<mxfile host="app.diagrams.net" modified="2024-01-16T15:11:51.761Z" agent="Mozilla/5.0 (Windows NT 10.0; Win64; x64) AppleWebKit/537.36 (KHTML, like Gecko) Chrome/120.0.0.0 Safari/537.36" etag="wu0mbI4i0eQlLq9KOhur" version="22.1.18" type="google">
  <diagram name="Page-1" id="X3Fc_-aMkn_lRM1HajLW">
    <mxGraphModel grid="1" page="1" gridSize="10" guides="1" tooltips="1" connect="1" arrows="1" fold="1" pageScale="1" pageWidth="850" pageHeight="1100" math="0" shadow="0">
      <root>
        <mxCell id="0" />
        <mxCell id="1" parent="0" />
        <mxCell id="Wv0K25ZhWj1n_kQ2JJXl-1" value="" style="shape=image;verticalLabelPosition=bottom;labelBackgroundColor=default;verticalAlign=top;aspect=fixed;imageAspect=0;image=data:image/png,iVBORw0KGgoAAAANSUhEUgAABZYAAALbCAYAAABpD9U7AAAAAXNSR0IArs4c6QAAAARnQU1BAACxjwv8YQUAAAAJcEhZcwAADsMAAA7DAcdvqGQAAP+lSURBVHhe7N0FnFzlvf/x3+7G3RMggeDu7lBcilNv7y2l7a1cq5fbf2/99tao3wpSKLSlghWKFyjuDkGSkJCQEHdZ/c/nyTzpsN1NdqIzk8+b1zCbM2fOOc/x8z3PPKeurSAkSZIkSZIkSeqi+uK7JEmSJEmSJEldYrAsSZIkSZIkSSqLwbIkSZIkSZIkqSwGy5IkSZIkSZKkshgsS5IkSZIkSZLKYrAsSZIkSZIkSSqLwbIkSZIkSZIkqSwGy5IkSZIkSZKkshgsS5IkSZIkSZLKYrAsSZIkSZIkSSqLwbIkSZIkSZIkqSwGy5IkSZIkSZKkshgsS5IkSZIkSZLKYrAsSZIkSZIkSSqLwbIkSZIkSZIkqSwGy5IkSZIkSZKkshgsS5IkSZIkSZLKYrAsSZIkSZIkSSqLwbIkSZIkSZIkqSwGy5IkSZIkSZKkshgsS5IkSZIkSZLKYrAsSZIkSZIkSSqLwbIkSZIkSZIkqSwGy5IkSZIkSZKkshgsS5IkSZIkSZLKYrAsSZIkSZIkSSqLwbIkSZIkSZIkqSwGy5IkSZIkSZKkshgsS5IkSZIkSZLKYrAsSZIkSZIkSSqLwbIkSZIkSZIkqSwGy5IkSZIkSZKkshgsS5IkSZIkSZLKYrAsSZIkSZIkSSqLwbIkSZIkSZIkqSwGy5IkSZIkSZKkshgsS5IkSZIkSZLKYrAsSZIkSZIkSSqLwbIkSZIkSZIkqSwGy5IkSZIkSZKkshgsS5IkSZIkSZLKYrAsSZIkSZIkSSqLwbIkSZIkSZIkqSwGy5IkSZIkSZKkshgsS5IkSZIkSZLKYrAsSZIkSZIkSSqLwbIkSZIkSZIkqSwGy5IkSZIkSZKkshgsS5IkSZIkSZLKYrAsSZIkSZIkSSqLwbIkSZIkSZIkqSwGy5IkSZIkSZKkshgsS5IkSZIkSZLKYrAsSZIkSZIkSSqLwbIkSZIkSZIkqSwGy5IkSZIkSZKkshgsS5IkSZIkSZLKYrAsSZIkSZIkSSqLwbIkSZIkSZIkqSwGy5IkSZIkSZKkshgsS5IkSZIkSZLKYrAsSZIkSZIkSSqLwbIkSZIkSZIkqSwGy5IkSZIkSZKkshgsS5IkSZIkSZLKYrAsSZIkSZIkSSqLwbIkSZIkSZIkqSwGy5IkSZIkSZKkshgsS5IkSZIkSZLKYrAsSZIkSZIkSSqLwbIkSZIkSZIkqSwGy5IkSZIkSZKkshgsS5IkSZIkSZLKYrAsSZIkSZIkSSqLwbIkSZIkSZIkqSwGy5IkSZIkSZKkshgsS5IkSZIkSZLKYrAsSZIkSZIkSSqLwbIkSZIkSZIkqSwGy5IkSZIkSZKkshgsS5IkSZIkSZLKYrAsSZIkSZIkSSqLwbIkSZIkSZIkqSwGy5IkSZIkSZKkshgsS5IkSZIkSZLKYrAsSZIkSZIkSSqLwbIkSZIkSZIkqSwGy5IkSZIkSZKkshgsS5IkSZIkSZLKYrAsSZIkSZIkSSqLwbIkSZIkSZIkqSwGy5IkSZIkSZKkshgsS5IkSZIkSZLKYrAsSZIkSZIkSSqLwbIkSZIkSZIkqSwGy5IkSZIkSZKkshgsS5IkSZIkSZLKYrAsSZIkSZIkSSqLwbIkSZIkSZIkqSwGy5IkSZIkSZKkshgsS5IkSZIkSZLKYrAsSZIkSZIkSSqLwbIkSZIkSZIkqSwGy5IkSZIkSZKkshgsS5IkSZIkSZLKYrAsSZIkSZIkSSqLwbIkSZIkSZIkqSwGy5IkSZIkSZKkstS1FRT/lqSq0NTUFEuXLo3GxsZobW0NdmP19fXRrVu36NWrV/Ts2TP9W+sf837ZsmWxePHiaGlpibq6uujRo0f07ds3unfvXuxrBZYV/bLs6DcvN5ZX7969/6F/NDc3p2EvX7489d/Q0JD65VXuMmZ9mTNnTvFfKzC9vJi2jPEwTUOGDCl22TgWLVqU1nWmpU+fPsWuHVuwYEGat7kcuVx5m+C1NtsE847lhoEDB6b3SsU8WLJkSVpn8nrGvGD9Yj6w7tQaysz6Qrk7Qpnzcmu/rrSX1xu2YeZXVzCf586dm7bXLK+DzH9e4J3lwLR0tL1vKKwbrM9M3+rWZ/pjvrItZnyPfVHedzG/1lReX9nGBg0aVPHHrrwvYH6w3MG8KD3+gjLxYj/K59WCdWPhwoVpn8uyZVmXi/lC2fN2xjBY3xleZ9sU2wbfYfxsR3yPedqvX78ub4eSJEkbg8GypKrCLuvhhx+Ov/3tb/H888+noJCLOC6+tthiizj88MPjyCOPjMGDBxe/ofVp1qxZ8de//jVuvvnmeOONN1KovPPOO8dZZ50V++23X7GvFaZMmRJ33XVX3HffffH666+nYIIgZZdddomTTjop9t1332Kff/fUU0/F9ddfn9656B46dGgce+yx6cXyLsezzz4b//7v/54u8kvDAv4uPRQSZB922GHxrW99q9hl47jkkkviiSeeiKOPPjrNz1X59re/neYtQQbBVA7gmUeHHnpoHHHEEWXPr1JMxw033JCGe8EFFxS7Vh72BZMnT46//OUv8fTTT8f06dPTekZItNVWW8XBBx+c1h3Wu1oyb968+OUvfxnXXnvtm25CsF6zfh9zzDHxuc99LnX74Q9/GHfeeWfMnz+/w8CP4HDMmDHxL//yL3HQQQd1KTRlP/CZz3wmpk6dmpZB3r7ab1usn+wfPv3pT8d22233pu1wQ7r//vvjmmuuSeH5l770pWLXjrHe0+/48eNTOMg0E54OGzYs9txzzzjqqKNir732KvZdPo5hf/zjH+PJJ5+Mb3zjGyno3ljzZXUIPR988MF0/GV+5OMvx9vRo0en9eyQQw5Jy5x5dtVVV6X1crPNNisOofLde++98f3vfz/e+c53xsknn5z2o+V66aWX4sYbb4zHHnss3XAhGB47dmy85S1vSfOoo6B45syZab/1yCOPpO2IG0BsI+9973vTPrxS1wlJkiSDZUlVg8Dv//7v/1KwPHLkyBRcjho1Kn3GxdszzzyTQotzzz13Za2p9Y1AhQtRpu3d7353sevGRWj7q1/9Ks2Hrbfeeq1q060KtdZ++tOfptCXZbHPPvukbrfcckt6P+WUU9KFOYcZQqzvfe97qfvee++dlh8BGBfThNLUzjrttNNS/xnhxdVXX53CqFNPPTWFFxMmTIg77rgjtt9++/jQhz4Uw4cPL/a9elyoE5CCQI1aaQ888EA8+uij8YEPfCCF1oSy1BYjNNpjjz1Sv+ViugnZd9xxxzUeBi666KI0vYQRZ599drFrx77+9a+noGf//fdPy4L1kXlOSPHCCy/ETjvtFB/+8Idjyy23LH6jPC+++GLcfffd6W/m+5pimpjfL7/8cpqedRmWEIgSmF5++eVp+RIiU172BSxrxsm+g4D5/PPPT/uKWjFt2rT4yU9+EpMmTYoPfvCDaV6AbY95zH5yt912S91YH1g/CdxL5z/rPtsI85BA/pvf/GaaV12pQUvgSJDP9s04Cc7YH//2t79NN40IYAnoGGf//v3TtsF7udjXUtYddtghDXNNcXOLfQv7oK9+9avFrh277rrrUrjMPoF9Kje42L7YJliXuZlGCElguCaoac4+kBtfhPOlNwbKxTJg/f/f//3fDm8arI3XXnstfv3rX8dDDz2UbgayPrH/Zd/NcZAwlW2Om3KsV8zf3/zmN+kG2eabb14cSuW755570rHqXe96VzrulBsss88lVCd0P/PMM9O2xzGM7Yp1hv3zxz72sWLfKzz++ONx6aWXpvnG/COEZvnx4lhZTcG8JEna9DR8aXVVNSSpAhBYXHHFFenijBpR55xzTqrhSo0ewg8uxAgbeRFArsvAalUIaajBRZBCsFoJCAAuu+yyOOGEE1IYkuWQaV2hhiwX4czzf/7nf45tt9021VqjtiNhMwEQITJBCeEU08K/qd1Hv/RH8Mdn1D4n/KN2Lgh3CTG4YXDGGWekWoH0y/foRsBMeFZOcEsARMCRx8t6QghPIPtP//RPKSyhO68RI0Z0KVDrCDWsZ8yYkYZXTvDdHjUYCQC5ObC6EJTlwDyjhim19gkiKMeuu+4as2fPTvOXgHVNw7gBAwak5UyZ1qQGX173qLVO8E7QQi28dYl58Ic//CGNh/CbkIsAkv0DL+Yjy5/xs67xd6X+sqHcbZX1jUCL5cRNEsrG8qfcvLMe5qCR2trUXs+f5RfLl+3hlVdeSd/nRk9Xw0n6Y5vJ2z/DJoBlmRx33HFpncz7B4I29pdrsi8i4GW/wvbA+NYU+0hCPvYJeZ/TGQJT9jfbbLNN2hexbVEOwnGMGzcuTRM14ddkn0EtaOYZ+8ZcW7mc5Z/7ZX9I8M7x6G1ve1vx03WD8rFfY3ly84+bhhzvmCd5+2Jb49+sX9xoYP6y3zn99NPX6CbCxkJtYebh7rvvnspUbpMt1FTmJhY3BDkGs66wPdEkCPs/5gmf5ZvfrF833XRT+tUB2y7rAeczbKNst9SqX9NjkSRJ0oZgsCypKhD+8ZNawo93vOMdKeAisOSiL7ddSI1TgpXSC3J+psuFGz99pqYVNbr4qTzf4WK39IKNWleETlwUMwyCUy4wCUmpCUi/paE1NTgJOhg+QRW1/KjBRsjCtPBvwh7GRa2u3IQHF5eMmxcBG0EONZb4nHcuSqkRxwU6wUd7r776auqXaaNGK/0T4lAb8LnnnksBAPOLMJ7gm26EjlzcgppxzAuGQdn4PjWHc1uOXQ00rrzyyjSvCI4IMCk3ZaWGFUEML8IfAj0+I1DKNZXpj/lJ+QhGKDfBCLUbwfT/+c9/TkEFPwXmIpxh8M73CS2YDyeeeGKXp5f+GAYvxs0yYTgEQ4RouS3Q/HnGOkQ/rEPMM9YhginKwPqWh0WAS0DAzQ+CPv7NvCUgJihgHWV+sf5RXtYVXgybmqKUi1fGsmUd6mqwzDrAdpFrqTOvCKpyyMN7aa1K5jfrHrU387rAtFEe5kXpfKU8DINQn6AEBCGsg0wj84HtgRrgTPfEiRPTOpdrgTMsykrtT2qyUkuT0JxuTAfjY11gWHlbZTisv4Sd+ef2nS1rtpc//elPaZ17+9vfnkI+ti+GyXJiXvB9bkQxbUwD84b1FqyDbDe8sx1RDuZLLgvrBP2XrhcZ2zOBHt9hHlIGlmP7MI2a9pSZz/iJPMPnnfnKfoB5mLd3ykm5WS4sI0KmVf3ygDCM9ZJpJMSl39IX05/xd/vPeYFQjPGyXbGv7arSbSuPi/lAMzkE/ISwLIf8eelyZJ0r3Z9RXuYH+z++w7ZF7U9+CcG2xTzM2xb9E4ozT1m/2S7Ztpiveduilnz7bYv++Izhry5YZvkwTey/+EUA08/3CPx4sR9iWt761re+aX/NdFKmvE3QT/vlDPbTHEPY51GWPH/YBphGtg2+z3bB8STvLxhO3l+zjtKMAscsysv2xXdYL9jvsF6wf2A+M1zmDccBpp1hld546Aj7F2pVM3380oAgmeEyH3gxb9nWmR9MTy4T42DfWrotsDzZrpkvTAvbDMuD7qU3QkE31se8T2BfSvlZt9hW2+8TmOdsVwybfvku09dR0zf51xN5O2QZM/2sW6xD7BtysMzxMc8ztsXS5dce6zz7Sfa17PfBNHJ8ZZ4w/awr+QYd85V5QGBPk0V0z/tM3jva50iSJFUSg2VJFY8LQC4UCW+oiUhNoq5cbBFscWFPIMEFNRfuXIDzngOeXDOVi1RCKZraIOjggpYLSbpxcc7FIMEzF8iEo8gXhARshBp8zgUytc8IZfiM8JULdsbJxTHDJFwgMGXcBCa33XZbKl+ePsbJhTdhAGFGDn1ASEyAwIU+QQX98h36oTz8mwtlxsGLmmaEgoyLcCcHz4RQ9EuwQGjOBTifc6He1QtZfnLN9PHTXUKFUlz455CyfVvLpQggCCQpAxfx1LgFy4vwjxrJ7WuCE6YQ9lB+LsQpd2m40FXMH+YHwyLQZtm2Hw4hI8str0N5nrGsmK8EEcxbvsfyJ1imH8pFuMP850XtXIZPP6yTBEB52bFu8TfhKfMgBzwEQ8zHrgbLhKu51mApgk/KSEBC4ArKRZjCupTXc6aFeUqIQnBCzcw8P5iW3/3ud+nz448/PnVju6BmPGEXy4D5QzhDd8aXQ60cRLP9Eg4xDwiTWfeZl4RJBFUEXKyb9MNw+IxpYj4zPZSts3WT9ZlAh4CMZi4oa0f4PusPy4C/DzjggLTtsP3TdjTLimXHtss0sA5TFqaBMuabMxm1D9kPsA7ndYP+CfHYJkoDLX5eT9kYH9NLyMSyYV1iPEwDyy6XkeVCMwK8E1Ktaj1nPjE8xnnggQcWu5aH8hIsM83cvMs1KtcU+0KCYMJY1uGOlgnrPtsM62/e/zEPmZdsB+xfmI5804Z+mLes6ywr9lsE1+wr6Yf5y7aVh8Xw+ZtjQem2tSbBMts560sptnGGw3RQMzfPM/q/9dZbU/nZZpgWpoPxsu2VhpNMN9sW7WMTwuZhsH+lG4Ek+0Kmg+/n9Yz9F7XAWZ9Y9hxDGBdl5UZnXqcIN5k/3Ni4/fbbU795PjM8+qWWbGdhKfslbvLxHZr8yDdjVoVpYzztg2W6E/hSrryNMR3MG/YXlJVtOG8DfMY6mY/f/JvpYB/FvoXjbN4m+Jxtkf0Af3NcY55x/kA4X3qM4pjNNst00A/zivGzPNkmWbfY57LOsI6wndO8FPOQbZFQv7NtkeHw4hyCY2penoTVvFgWHG9YFzlvYN4yX2hKi/GyTHhnuTAfcgAtSZJUqQyWJVU8Qh0uFgmkaLKAi7rV4aKOC9sLL7wwhRC0lciFGw/24/tcgHIBV9p+IUEXIQ4XwwSGjCs/wIeLdQILLkD5GSsXlQSmXLgzfMLVL37xiylc4GKXC0IuULl4pvYS79QkpK1c+mWcXLByIcvFMt+hpiUXnAQBBACEivSXp48L5P/5n/9JF8KER5SHkI+LV4I53glhCYYIzr785S/Heeedl8rOZ8xHan0zXKbjPe95TwpV+IxwgmYSCK+6ItcQZbyELQQCpRgHF/eEEszzjECR7+Ya3oQhBAeE8UwTAQCYfsIaauDyKsWFOsE7gQ7lzcFuubioJzBgfrKM24cFuabyd77znRQGUcuMdjdZjqwfTDcBQK6JzXxnfhLY8u+PfOQjqb1b5n8OVliHebFMKS+hC8ubsIV1hLaQc3nKDZYJ3Pg+/YN1k+EQ6FJObsjkkJ8wmPZP2Qb42TzrHs2NEGIQpBOA0D9lYhgEJSxP1o8cxBEEM81MO/OH9Yl1kp/JU16WIfOCGu2s6wRSDI8gjfZZeVAZbZAyHkIWQjiCVKaH+cy2wI0F5hWhEKFuDpzaI1AkrCWYpRyrQrBM/4Q5rPsMm3nFNsf0Mu0Eq+973/tSzV3mCSEh2z4BHMse3JyiXVSGxXbItsa8IbTilwmUs7S5D9Z15gnjZV1i/8I7tajZ7zDfWT4ET8xzlg3BG/OcMjHe0vWzFOswoSLTTlMzbF+s3ywXvpMD1VXhQWssZ5oaopxri/0fy5T9AwFo+2CZfR8PyGTdJBymOR2aDmD9Zf1knvAd1n3mCfOA9Y19BA8W5CYj84/PwP6bwJFtL29brA+sF6zPpdsW87bcYJnhEpKX4ljB8medYl1m2Oxn2bZYZ7jxxXbB/oVysd/iOMI0M09Yn9lumQesL5QnB5FMN9s1+wu2BX65QVMcbC8c29j/MD3MD/af7EfyvvXiiy9O08OxhjJTVtpdZn1nepg/3MTLtb3p3tk6QpDLNDOv2E/k9X9VOguWWQ60Hc+2w7DY1lmuzD/CY/ZVlIn9BMPghh7rJfsDXqwf7DvY53JDin0D8zyH8xzXGR7bItskxxuGSRnycRvMO5rN4bjFusTDUdnXMJ8416C/0hrLTC/loTvry6qCZZYHxwXGSz/Mf9Yf2l2mTJSZ+Q5uEnAjmHnPusqNaMrA/oN5x/RzjM3rhCRJUiXqWrU0SdqIuLjiYnl1P9ctxXd4eBAX7lyQcnFLLTEu6PibboQQhEml+B4BKwFx/hkruEjlgpYLRgJPgqiMv0v/nTGtTDcXpDyUiYtXhkFAlgNcLjq50Gd81OzkYpkghvCSwIELWnBBSkiTg0BCFQLXHOxyUczFO2Fonpb200XZCCq5WOa7XAAzfsrLQ6m4mO8Khsm0Ed5zwds+MAK137iopr9SBHdf+MIXUqjABf0vfvGLFGIRshGwZdQaZf51VouO8VJW+uto3q8LDJvwnNCDUIeAmHWI9YLQhpsOBHEEEaXyfO9oulhehEcEOwyHeU6oRgDF/CKAWJvylAavBG1//OMfU01PAhRCmYzAhhAqB7ise4RTtF3O+sW6QtmZx6tCcElgRnkIAPP4KROhFtsYAWPpcDqaP4TUBHKsw9yIyG2SEgayLRC4rmrb5/vcHOnKTSdCPdYfli/bZ8bNI9ZBgqMc5DNM5hu1FAmvCH0ygkNuCtE/ITTrBvORGtOs09QyJXTPGD7lon/C27xuMy7mFfODMCnPK/ohfOcGUQ5EO0OIzI0n1kW2K9pq/fjHPx5f+9rX0j6utJztMV6+S0BKGVb1C4N1hfWGaaVWKWEp84z1iMCQdedf//Vf07IkdGO+Z6XrTHusv2yjrMMMi22LG3CsT6w7a7ttlc5/th3Cb44x7FO5mZI/J4QljCbgpNkIbhpSLpYn+xH2v7///e/T+rcqrC/c9GD6Wf9yoMt+g3+zX2J9Ydkjj58yti8ny5f+csjPvGF+ES4Tene0D8/YttiPMz62yTXFPGP/z/Jk+bId5P0Ox8aPfvSjaZ/FcY71lRsP7D+YVvplHjI/OHaxv2Qby2UmiOXXJ5SHYyP7WUJnbnSxHAiMCa45ZnGjN99A4uYfw2H7Ilynf/aHjLsUx0huHHMjhOnt7AYX8niZrwT8rAOf+MQn0vh4aB/LIKO8LCvOEXiGBMua8fzXf/1XOlehqS1qSkuSJFUyg2VJFY+LQYKIVV3MtUc4Q7BDLSAuBMFFaL4Q5WKSEJdgkAvN3J3vEWDn72Rc1BPO5QCnK5huLsa5YCUMyBfveVzgb8rFK3fnb8bPBWcOHyg/tdqoNcewCLzAd/JrdbiwJbThwp1aY1xc5xqN5cxblAYXHY07d2MelCJUoWYizQ4QfBGyEgj84Ac/SE2CZAx/VeXqbPjrEsEOwQ3BUG4CoXR6eHgkoQfrELVU2+to2unWfnmDdY71ixBnTbBuUSvvhz/8YbpRQY1bAhaalmA6CRtZb0BYww0S1iVqP4JpydNDKEcwQ+3Q1c1ftheCWrazUgS3dGf9Yt50NJzS8rMtErDS31e/+tUUhrOd5flV2m9H8vrSlfU4D4/vlK7HjJvwild7lI+gk3mcUfuUZcb8RZ5Gyk4oxLAJnjOGTzCXayuW4kYTNaPZF+VpYhtnHjJvVocAleXOtkVtzX/7t39LN2/Y/1ALkvWio3UUrOeEzwR/BGgs//WNcbLdExSyruXlluch6wL7QG42ENJmq1oP8vJvv76wbbHvW9Nti+Fxo4VtiXnMzRjm83e/+910cyDXjs3jJMBGfrAo3fNnLHtuLlILmZuEyGVvj/WF6e5oebBcWfdYX0pv2nSGsJNAmf3+b3/72zTu0vm1KiwrxkF/+bizJhgnNxLYjqiVXBpmMy3sY9nOWN4ErnmfQKj93//93yvX0TzdeZ4iz/Mc2ubPGAfzj+nO2y43upj/7P/yDaSMcdJ/+/0VNyaY7tXd4AH7PH6ZQLMZHPu56cA7N26oJc2N6YzjO9slZefmFDeYGD/rCDd7mU/cXGl/M1uSJKmSlJckSNJGwEUhYU0OmrqCizuCBIKLXDu4VA4buGjl4jzj4o0Qmc/a42KWC06G3RX0S/BQ2p5me1wo83Nnmqj45je/mWoYUkuRGqVccOaLfobFxTDBVFd+itwRgghqUVEjlbDg8ssvT7Wj+Nk24WhXsQwIwXhnXjCs9ujGvGS5lWL6CVyohUqtO2qqUduV/ikzQRIITihzR8MG42XedDZf14W8DhE2dNTOJSED85RlWLoOZR0FAfRLzTlqslH77etf/3r6iTq1g/lsTcMD5hXrLIEEIRfLmVpz1ARl/vKz7rztsF5RA57+O6qBmLvnWo6rwvSyrAhA28vrbmfbS2lZmTZCTW42MG7WBQLmn/70p2+q9dsZtnHWlfY15DtCP0wT62bpcmV6WJ4dbV+5lnNp7VmGQ3BM7VO226985SvpRXM11DRkPpeGSCwjprOjWtWUn1dn6/vqsJ+jpjHbFCEztWOpqUlYRQ1PbpAQUDEN7VEO5je1tbnxsyEwHcxLbsx0tj/jM7Dfy1a1fVAOahHTnErptsXyWZtti++xLhOA0zQKNdipFU2gTA1kwsDS/Rz7DALNjm4IUFb2GwS1lJ/lnbfL9hgvw83zoT2mifW4K+XiGMSNJoJXau8SinOcIaxd3TbO9s1+lnG1r8lbDuYL+x3Kk/cNpRgH84ZQmf5AsEqtYvZJbFO03sevXFifSxHQElzTXjH7jdJtkSCdfRmBMvOK4bP+dbTPAsuo/XGrHDSzQajMvpj9Gb9G+o//+I/0zjQQ7jMNGaE1Nbe5ycf+gX+zTnAjkF9ssB/he2u6b5AkSVrfDJYlVTwutqhFyMUhtS27ioszLiQ7uvDurDu46O3oZ/f031kI0Fl3hsWFeUfj4kKbpgqoQUy56I/QiYtowvT2w1zVNHek/fcpEwEDQSPBIxe+DI+2X6nVSEjWUfDUES6+mV4u6Alt2iOAIIhoH4owTZSNECGHLAShhFqMnzYnQbhILcGOhk3owPAZDv11Nu/XBYbd2Txf3fJoP10EBNTKJiAhQGcesKxzaIk1LQtBFfMi/9yeWpWE9vxknFqSpetzDi46U1qurkwP/bAs2lvVvOkI84HQjummZj3zhlqthO48aGtVNTPZPxDmlYaQneEmCvsS1k1qcrbX0XTneVI6P/g385Kys93kfgjqqOXOet0+qGV/0NG8WhcIydl/sC7ldYtaqoRzdOMXD0xfKbYx5jHbHvOc8HRDYD4yL9pPT6lVfdYey5OQlGCR5oNKt628/+3KutwRvssyo3YrNZZpAofa4CxfQvv2wfiqxsOwyinXqtaXzobT0fhZ/vxKh0CcGw4EmTThwcM72b5WFRhTs5dthZtnpTX2y0VZmLZVlb/9Z9ww4VhF00OE4pwLcKOJJkhokzz3z3ueV/ydX2yLlJX9Cssqr3O8OrO6z1eFwJhmOTj25eaBOMZRY5kayBxz+SUI7WczDsrDfquzZZzXLc4VunpsliRJ2tAMliVVPMIBLgq5sOJisivhUa4xRr8dhZMEuVyscWFHILe2OrsQ7ewilQvP3K4iF/0EFdRq4ifstD9JW5FMW76Y5IKYi2wuXDsqT6nSYKGjkIHhcpHOg+U+9alPpZ/y014sP9VlnnQF08PPd+k/twNditCC0Lmjn/13hCAIuaYatbUIEju6kcD46E5wRKDItKwPTBPrEOPqqCYs00FboFz8l65DzPOO5juBCLXZqKlIrfG8vGmmguAjhx5riu+zLjHuVYWXrEdMc2c3aihTrk2al8vqrMl0d7bc2NbZHj73uc+lGqI020E7o6uqWZnbsSU0Xl0NZ2qMs54Rog4ePLjYdcX0EP531B5x3o+U1kJlO6K5Btr1peb/Zz/72fRiunlnuRLitbc2y3hNEH4TrlK+9usl5eJmR24WhTJtCEwLy6uz+Y38KwB+XZJ1tF2BoI5tixs2hKel2xZt5jIP1na+c0zB6rYJ9gXsuzraL7IOsW9keliX2E5XFRgyzZ1Nd2fzguF1tm1xY5Ftiv0+v2ZgP3DZZZelGrGdTQfBKPtxwmdqvXPsWhPMl9x8Bzc02qMb84b+2I9llJN1k5tlbFc8hI8bkL/+9a9X3mzipgpl40GhtOGft0HeedG2cW6uhG2e+c/+ryMso46mryuYj5SPMLt9EybMa36VwTtNdzAfmWamne2wo/nKNDLNfKez5S1JkrSxGSxLqnhceFHbiotbaljxZHlCJi4quRjmxd9cDOafi3LBTmBKTbxcyypfpPNiGFwAEgwRoHV28b46OcjLwWMe/uowrXm6aBaCmoXgu4RetDPJhXwOCAg1aM6AIJCLaspPv7nspeXOwQehb75YzdOV5xHf49+EG9QI4yKYi/qOAtTO7LPPPmkaaWsWeRyMd/z48eninRpaYJxMM9OTx53f+QkzTQZwAyG3ZUwNLwIlPuOn26Bf8DNo5gPzLAdhlIvQnQvx3N/aYp6zDhEC0DYoGHaedtqopqysQ0x7RohHeUvXCRA6gHChdHkzLIZPyLY24UEe1uowrYSqzK8nnngideN7+bssO+b7Xnvt1WlAtaZYN1lHCW9K103GzTwrXT/Ytg499NDU1ACBYUfBS0bNY6aX9ZEamMzLPKz8Yv1jmyNIJfhh/S1FWVkOebvM3wO1fRkmAXZGAM62xw0iUDammRdlZHhsA2uK6WWbZL3J61BnWP955X1inqf8mzIR3rZvBxss50cffTQ1odHZDTbmI/tKyr+66egq5gvLi2GW7s/yi22cmwQE3qW1vtm2KFO+uZanJ88jmtnJy4h/Mw8oP9O/tsFcHtfqUEuV5c+2lachf5fjEesSYS37DXR1uKvD/ooX60Fum59h52lgHjPv8viYV9QE5jNCcL7XGfZZhKA8cJFlw/zP6xovtt28/nWG4zf7Pb7Lr2TyTUTw/cmTJ6dlRfMPeX/afp/A/p4H3HFjlG2Dz8EyZ7vLxyLmQ2fbIuXguMc+hf7zsEE31sf2+z3KxjGHaaT/znCuwjjZD/HK8z8PnwCZ5ZB/ycN+iH0xw6ZJLMqT+2VecB7ADVS23a7e5JMkSdrQGr5Eg2WSVOG4qOLiijY0+akp4Q8XYFzwUbuSizC6E+Zxwc6FIe9crHEhz8UgF6sEj/RHu4uEmGeccUaqOQcu+viM7+WHAJUigGE8BF0EHgQVBIs8JJALTi6IuXjlQpiLS0IbfvbK8AnGucAtxYU142M41CIlNCHU4wE/XLxTNr5HyMp3Cc8oPy9CQS44KS8Xwi+//HK66M7dCM+4gKUsTBPlJ2wgdOOdcTL/uJBmGnhRa5YydPUClgt0aocS0jMsaoIRUFC7ND+hn9pxjJvlQJMfubYe84hQiXJSY45wjmYcqF0I+qH8fM6wKDvDIcz93e9+l4IDarXmZUct1O985zup5iJtzTL/V4f5w7rBxTvhOs0IlIZPTAMX/kw3/VBG5i/TTdMMrEOsk6eddloKijKWBYEFIQuhGMuDZcv6RVlYX2n6g3WU+UF5qAlIKEHAT4jDdBBM8Tnd2j9kqj3mL4EN60pHAWJ7BBvMc34BwHipEUf4yHpz7bXXpvn74Q9/OIWNTEsO+Ol+9NFHp2EwH3hIFd2oRdg+jGE+sK7SHAfrCvOTaWS8bDOl6xrrM8uC9YnhMSzmG8NnXhMEsS6134ZKMQ5Q+555x/rCi4CHQI9Q7Oc//3kqD00alG7jLFuaKGE7Zvsg4KF2JfuLq666Kg2TZUabxcwvMD7KwvSxbNn+WKcIiSgH2zLD4AXmLesETVOU1nwG2zDrOuEbgR/zimXKQ/cYPu0mr6rWIk1AME6GzzQw79hX0X466y/rBA+cK90uCG5pW5l5Q1uw3MjpaPjs99i22PaYdtblriDsZdzMZwJFlmtG+dg3sT2wjjD/GH/eJmmDnPWRWqalNwC4ycO2xfJhXc/bFtsU38s3nBg++yKWHfs2+snbFutWR+tzZ9j2GS/beEfHhfY4rnCjjPESaLNfZHpZvjR9xHpB++es/0wL2wTHCWrm8zDTvIwIX9n+aaIk7+cyurPPY79ImfgOw2IYbNNs32y7rP+sE3Tn4YOUl3nD/pf5xY1ajgHUBm6/TpaiTKx/jJPtiPlNmTiGsexYf/nFC9tzLi/zjTKzf2S/yfQxbtZL1gumkW2J7ZNhsq5SDmpSc3xluKzT7CsYLt9nnWC+Mm+YJtYPujMfmOc0h8K8YXlTRobBNFBWtkOmg3Kw72LYrAPMW6aL77PvY1tnOqglzf6becYxjm2Recg60P5YkXEcZ5/ANsN0MGy+z3nCzTffvHIZfOADH1g5DPZpbIPME+Yd087y4ljNcDjf4JcPnW37kiRJG5vBsqSqwMUjF8q5NhgXYoROXEhyocmFHxdyBDPUXuIijItIwgSCIi62uYimf0JpAltCZWrUMmwQRHDxR2BEyNke4R8Xy9SY4kKWceSfaXOBygN7+D4BE+EGwQrTSD+EnaWhGBeyuaY04QoXs3yXC2AumLl45UKX8XCBCy44Cbe4YCaIYHyEVYRoXCwTHuU2Vvk3F6V8TjDFhTlBDNPDRfxNN92U5se9996bwg9qLBIO5ppUXcH0MK8ILhgHw+OdcIiglpCY6QDLgLIxfqab8fNO2ZlmAhW+k0M7EDyxDFlezB+GT0hAOXkQErWJ88U2wyVUZr531PxARwhFmI8EDIQf3HgovXjP6xDjI9DI6xDTTTjCMmUdouZq6fcIoAgkCVoI7lhvWIYESfRH8MByYR4Q1tHsB+NgPWQ5MVz6o0ys53yea353hvlDWMI4WEdWhxAph/VMH+VimigXwSZNdbC+5G2DZcC8AmEOCIMJQ5jW3JRHKZY360Nu0zWv8yxjgrq77rorNV/ANBAkMf35wVeEvGyrBL1sz7Rry3wtnc/tsT6yzjAvCZTYJzAshkN4yfCZj7RBzfIo3R7ZDmm3lZCOXwZQVkImlh/TwE0SlnVpG8Rs54yPdZx1j/GwDbM/ImhjvWZYeZ2+7rrr0jpHSJz3Gxn7FbbXXJOaecV4WT/Ynk455ZQ0nM7Kz3KjX7ZtliPTkmvM5odkth8nwTVBFzWHWX6dhfasx8wP1kOG1VWsuyxHyssyJFArxfqS1zHCQ+Yd2wTzkmXNNLOvLf0e3QkiCTjpnzIwj1nvmWdsW5Sd4bDMWV7sExgHw2Gfwd+sz2z3zE+aT1gVpo39FNsMIe/qsA2zX2RdZxx538Xy4BjGvoYwOwfI7FsoD/OLGsS5O9sWy5VgkWNCKW4KsP0QXLK+8B3GyzrJ8Nivsy1RTuYZ6w7zJG9zrNcsU9ZdbtCxD+ts+YP5xDbK8ZfQmHCc/QbbF+s7y4z9AZ+zX2GdZb5RLtoaZlsAwSvrEWE6+zemhfnDuk6I+/73vz8ds1lGjIf9BMuZZcq6xPrNcZFlzj6K4TFt+VhEMMuyYt7l8nKDi8/Z5ikv/eflw/qSj4esL0w7+0/mIds26xXrDecWbF+UkWNVDoU7wjkIw2a8DJttjOlhmbH/ecc73rGyjGC+shxzaM66wnrNcZ71hKZdWK6SJEmVqq5w0bFufoMnSRsIF5bUOCMQ5QKWCzwu/qiRxAUb4UwpLs65wCbsAxeFhE9cXJZeTBM8cfHPhTgXru1RU46aRIRPXNBmTAcXqNT8ImTlIp0wg1pddCdMIEAh+GiPMJuLdIIwAjamjTLwHS5MeWdaS1F2QgjGy3e4aCZA4cUFKN0oCxfYXAgzXi7auWBmmFzgcmHPtDLfGAeftQ+euoJDCMNjuNTK4mKZ4TA+hpsxPsIDykswRGjAcmN6uagmbCDEbY9+mT+MgxrMBCTMHy7eKXf2rW99K/VDAJeDz9VheKwXrB/cSMihQ3uUkfnNizLSD9PKPCPw6Wi50i/TTf+EPgyfsIHlwbzK6wrlIbygLHzG/GPeMQ7CRtYhwg7KvCqst4SWrAPtQ6jOMH62JaazdNvI8zcHH2C5USbKSvANghDCI7YharK2n3csb8JlbuKwTuThsS5QNrYltl/Ky/iYfrozXLozLsL+HBZ3FcuVMhEGsf5QTkI35j/D4tUe2wy1kZlWQlamhenju3lZt99fZNSSJQBjWREGMd18h/6Zl2xjIKBlPOwf8k/9M9ZdppmQiRCWecVw6cZ3mOeUoTMsH/YLTAPzjnWWdYswlGkgcGuPdZ91kW0v34zryHe/+920jXCjKP+ioCtYxwnL2Zd2Nu9AfwTxlDdvE+zDWeb83R7Twvxm22KesG1RPvaHlId5kYfDfpd3ti3Kx795z+sz00TYvCqMj3nL/oxl11Xsg1mf2bezXrCNUy6WR77hBm66Md30R7NIeX1h22J5EoiWHm9A9xx2l4b2jIftjvWGdZ/tjjJzbMzHg/yLlbzv5ful+9LVYX6wvlI+tjXWVfZx7DsYF/OJ6cj7QH6x0D4YZRilx+S8nXPczDhGsJwYBvsExsXyYjtmf1F6kyfL6wDrUp42ys4+lGHn0B6sPxyf2U/k5cN2zrSy7TPPmSbGyXCZDvZd3PTtaL0sRf95nWZfwjAoI9PMtLdHWfM8YbmxD+E8hG1gTY7LkiRJG5LBsqSaw26ts5CkGpVTnrUtO+E5wQQX5Z0Nh9CMAKQ0eNyYCN54SBcBJbVRCeeq3dosx1pb/zeEHCxT4/K8885LQdSG0tHyWt/LsKvDp7+PfvSjKRCjKQ2CyK6o5HVwbaZtQ5VrVeOp5Hlbi5zfkiRJq1YZqYAkrUO1dhFYTnnWtuw0NcFPd2nnmTYeS1+0D8qLn9oTxFUKauAReFGTvBZCZazNcjQEWTvUHtyQOlpe63sZdnX4bFtsU2xbXQ2VUcnr4NpM24Yq16rGU8nzthZVyvzmZq8kSVIlssayJGklHoaVf0rfmdxEgVQrSmss895RcxmSJEmSpDezxrIkaSXal6QNS9os7exFW5pSreGGCm2ter9dkiRJkrrGGsuSJGmTx4O8eCgXD80qfciXJEmSJKljBsuSJEmSJEmSpLLYFIYkSZIkSZIkqSwGy5IkSZIkSZKkshgsS5IkSZIkSZLKYrAsSZIkSZIkSSqLwbIkSZIkSZIkqSwGy5IkSZIkSZKkshgsS5IkSZIkSZLKYrAsSZIkSZIkSSqLwbIkSZIkSZIkqSwGy5IkSZIkSZKkshgsS5IkSZIkSZLKYrAsSZIkSZIkSSqLwbIkSZIkSZIkqSwGy5IkSZIkSZKkshgsS5IkSZIkSZLKYrAsSZIkSZIkSSqLwbIkSZIkSZIkqSwGy5IkSZIkSZKkshgsS5IkSZIkSZLKYrAsSZIkSZIkSSqLwbIkSZIkSZIkqSwGy5IkSZIkSZKkshgsS5IkSZIkSZLKYrAsSZIkSZIkSSqLwbIkSZIkSZIkqSwGy5IkSZIkSZKkshgsS5IkSZIkSZLKYrAsSZIkSZIkSSqLwbIkSZIkSZIkqSwGy5IkSZIkSZKkshgsS5IkSZIkSZLKYrAsSZIkSZIkSSqLwbIkSZIkSZIkqSwGy5IkSZIkSZKkshgsS5IkSZIkSZLKYrAsSZIkSZIkSSqLwbIkSZIkSZIkqSwGy5IkSZIkSZKkshgsS5IkSZIkSZLKYrAsSZIkSZIkSSqLwbIkSZIkSZIkqSwGy5IkSZIkSZKkshgsS5IkSZIkSZLKYrAsSZIkSZIkSSqLwbIkSZIkSZIkqSwGy5IkSZIkSZKkshgsS5IkSZIkSZLKYrAsSZIkSZIkSSqLwbIkSZIkSZIkqSwGy5IkSZIkSZKkshgsS5IkSZIkSZLKYrAsSZIkSZIkSSqLwbIkSZIkSZIkqSwGy1KVa2tri5aWlvReK2qxTK2trellmSpbLlMtsUyVj22oVstUS/sH1NqxCZ5DVD7KUmvbU97n1WKZagnlYXuSJKkzBstSleOEb8GCBTV1IssJ7JIlS2rqRLaxsTGWLVtWU2WiPMuXL6+pdY/1jnLV0oUu5aFctYJtiPVu6dKlxS7Vj22IMrGsagVlYr1ramqqme2JMi1evDiam5uLXaofZVq4cGFNHZvyOQTrXq3I5xC1tO7VYpnYj7Pu1dJ5Ectp0aJFxX9JkvSPDJalGlBXV1f8S5WqFpeRZdLGkJdRrS0rt6fq4X6i8rGMXE7aGFzvJEmbGoNlSZKkCmAgIUmSJKmaGCxLkiRJkiRJkspisCxJkiRJkiRJKovBsiRJkiRJkiSpLAbLkiRJkiRJkqSyGCxLkiRJkiRJkspisCxJkiRJkiRJKovBsiRJkiRJkiSpLAbLkiRJkiRJWmeWLVsWc+fOjQULFhS7rF+LFi1K42O8kjYcg2VJkiRJkqQq1NbWFk1NTSlYJcRduHDhm1504/MNbc6cOfHSSy/F5MmT078bGxtj+fLl0dramv69rk2ZMiVefvnlmD17drGLpA3BYFmSJEmSJKkKtbS0pPD21ltvjRtuuCH+/Oc/x3XXXZfeb7zxxvT366+/Xux7w6mvr4+Ghob0IvyeOHFijBs3br3VYM7j413ShuMWJ0mSJEmSVIW6desWW221VZx44olx9tlnx1577RVbbLFFHHzwwfHWt741zjrrrPTvDa2uri69EyrzN9PAdPbp0yd1Xx8YD+GypA2nrrCRtxX/llSFuEPNT5z69+9fMwfR5ubmWLp0afTu3TudKNUCfvbFsurRo0fNlIllBMpUK+ve4sWL0wkp614+Ga52S5YsST857NevX7FLdaMsbE+cvqzPC5MNiX0DP1GlTKx7tYAy0cZh9+7d06sWtifWPX5mzHpXK/txykTNMfYPtVImziFY93r27JnWvVqQzyHy9lQLWEasf7VUJs6LKBP78VqpMclyYv0bOHBgsYuqwauvvpqahdh+++1j5MiRxa4R06dPT81TbLbZZvHCCy+kc8Tdd9899TN//vzUjeXNuf22224bI0aMWHmcmDp1ajqW8znfY7vdZpttYsiQISvXd4ZBUxQcK9kH9+3bN53fcNzceeed03TRHAYBM8N644030rkP36M7++9hw4al4eb9AuN+7bXX0nTTL/3x3e222y4233zzN+0/aHaDcefzKqaVaWDcXCuD4Tz77LNx6KGHrrx+oV3madOmpfIy/hdffDFNM+N55ZVXUvkOOeSQmDRpUho2x0umnc8ZBtMyePDgNCxpU2SNZUmSJEmSpBKLlzfHlLlLY/r8ZRXxmjZvaUwtTE/rauoGEgYTwvJeikCYcJSwlOCXUJgAlWCXbgSlBKR8l2B65syZKVTlpglhK5WZCGrph0D1ueeeW9l2M8OgOQ6CXT4fMGBA6jZv3rzUL8Pk+3QjQOZ7hLME0UwL3+nVq1cKeZnGbPz48WmYBL6Mm88ZFoFy+xs4/JvPmV7GzzAJohkG4wafMfzSeUM3ykoFEzAMposgnkA6l5fuhOO8040bLnyH/vJ3pU2RwbIkaY3UFU4C6wongHXFu/2SJElSrVjc2BIvvbEwHpowJx6euHFfTMNjk+bGq7MXR0vrmv3onHCUQJUgdbfddot99tknBae0vzxjxoxUe3mPPfZITWkQ5uaAl8CZ2r+EuzvssEPssssuqZYutXyp1Q7CVV7UdN5zzz1j1113TbX3CXYzgl+mgeHlUJgawNSsZriMm+/k8TJspmvQoEGp1jHTRVMaW2+9dZoWhtUe36F/ykf/O+64Y6rxnB/ox3gJpZmGjL+phZynic8J4am5ve+++6b5Qj+8CLWZZzvttFOaJmpNE5YTNkubKoNlSaoRrYWTxOZZs6J5+hvR/Mb6fzUVTtKaJ0+OpsLJaEefr4tXU+EElTJRNkmSJGlDaairSyEuYe6rs5ds1NfEwjS8Pn9ZNKTwc82alyJUpoYywSy1hEEQy4sQlUCV0JnP6JdwGQSqhKmlTaIQ6jIsAmfkJijGjBmT/g2alqBmb/ua06Ab46RZjhwQM3665TCa6aIWM93B8Pk3tYNLA+uMYQ4dOjSNMxs+fHgKgylXVzEevte+XWqGTy1vPsuYLwy/o+mRNhW2sSxVOQ58trFc+TjpYllxsrS+yjT3yitj9iWXpsC3cAZW7LoelR4+Ciec60NbYb712GqrGHreeTH4ne+gmkHxk/XDNpYrH2Vhe+L0hQuaWsC+wTaWKx/rHhfOrHe1cmyiTLaxXPnyOUTenmoBy4j1r5bKxLkrZWI/nms+VjuWE+vfptrG8syFy1ON5fo1DHLXtbbCfw31dbHPVoOje0Pn69iECRNSm8jUKia4zehO7V1qExPAcmzmuEaTFjT9QPMRnIvQnXNiagfvv//+qV3ip556KtXe5Xvge3/961/jwAMPTG00P/LII6nW7vHHH58+BzWhmQ6OMdTwff7559P6xHQxHqaHYw/Tk7cZ+qG5iZNPPjntz++4445UBmozc0774IMPpjaYqSnMdVUp2lim9jCBMJ9nt9xyS4wePTrVtKb5jbvuuivOOeeclcc9al4zLVtuuWUKxh9++OG0X2I6ucbOKCPTSe3q3J3vTpw4MUaNGpWmS9oU1cYRT5I2ccsLJzSL7rk3lr/4YrRQY2DWrPX+ai2cZLbwml14dfD5uni1Fk5ql7/ySsy57LJonDz5zWG2JEmStJ4M6dsj9t1qcApyK+W155hB0W0VoXK5qJjEjTiCWELhY445Jo4++ug49dRTU5Dc1Zsk9MeNlVL8m9eqbi539Fmu+0jwS7g7q3BNcNNNN8Xjjz+emsAgxG0fKmeE0dyIK0WYzfSVjqv0b6YxtxWd8fmqplvS31ljWapyHDitsVz5cm2j9VVj+Y2vfT3m/u530TB0aAw644zotesu0ZbaX1sfu/jCiVbh/8sb+ekbbZI1REN9Q6pFsS7VF+bVshdfjAU3/iWWjRsXAwvlGvVfF0RDyc/b1jVrLFc+ysL2xOmLNZYrF2WyxnLlo0zWWK58+Rwib0+1wBrL1WFTr7FcrcqpsYxxhfNs2jU+7LDD0gPyMs5LePFgu9XVWGYYDJv2iAl+8cQTT6Q2kml6g3aUO6qxzPZPTeK8zdAPNYBPOeWU9O9HH300fUYtZK6jmL7OQmUeQMh0UOuYdp7BtFPLmTaXmY5cY5ngPJeVBxMyXmpnU7M511hmmkvPn62xLHXMYFmqcgbL1WG9BcuFXfjiwsnStC/8v1g+fnwMfte7YtTnPxf1JT/bWl9WtKgWwand+oqMaFt57m9/GzO+/Z2oK8y3UV/+Ugw48cSoX0+BosFy5aMsBsuVz2C5OlAmg+XKZ7BcHQyWVSkIWKdMmZIC0NImIcYXrhUIkAl/qfmbj8082I6Qt/TcinWYfmgnmYfyUVv4gAMOSN3A9eett94ahxxySAqv582bl4bNMYXwme8T6rIOEdbSFMazzz6b/s10MS6mk+2f6cnbDP0wnaeffnr693333ZfOkZgO+mGaeTgf42h/3CIgptzs//mc4wHTwzbJQwVZj5luQnLKmY99hM0098F00BzG/fffn4ZRGiCDgJppoCw0GwICfKaX+UxgLm2KauOIJ0mbqObCieCcSy5J7Sr34cnOxx6zQUJlEPqmV+Fid32pL5wI9j/++Oh3+OErQuYrroilTz5Z/FSSJElSKUJTHjJHOFqK7gSu7Wv80o0QlRsj1MAlnCUo5oYWGA4PrCv9HoEstXR5mB4hMWEvoSxBMcMgrOU71BLONYMJaQl3+S798XcOaDP6oQY0qBzBNBNGUyuYtpcnT56caiXTlnJ79EstY8pOTWkCcYJgAt98c4RpIRjmRhDBN6F6/h5lAQ//y9NZijLyKu3Odxgfw5A2VdZYlqocB3xrLFe+9VFjmfaHF952W7z++QuirTDPNvvqV2LwO95R/HT9YxmBMq3Xda9wmFpeOIGcfP4HY/mECTHsox+JoeefH91Lftq3rlhjufJRFmssVz7KxIVgro1ojeXKRJmssVz5rLFcHayxLK07bEs0pcG2RDhNoIvGxsbU3jLNedD0RK1sa1I1cyuUpCpF0xczvndhCpUHv/1t0eeAA4qf1Ji6uug+dmwM/cB50WPMmJh75W9i3h//VPxQkiRJUq3hZi43CUtrShMsEzrTzVBZqgxuiZJUhRonTYr5114XTdOmRfeRI2PQWWdFzxp+YARNYgx629ui9157pSB94e23x4Kbbip+KkmSJKlW8EunnXfeOebOnZvaWb7zzjvTwwJ5gB5NWeS2niVtfAbLklSFFj/4UMy75pr0QLuhHzw/ehZOsGpdfb9+qQmM3nvsEUsffzzmX3NttMyaVfxUkiRJUi0gWCY8pu1j2n+m2QsewEd7yWPHjq2ZpsOkWmCwLElVZsnjj8eCm/4SLbNnR+999omBb31r1G8iD4zoc8D+MeCUk6PbyJGx+MEHY85vf5tqMEuSJEmqHTR1MWLEiNhqq61WvsaMGVNTz0KRaoHBsqTK061bqonLq2Y0NKyTMhGizv/T1bH4nnuj1447xpB3vTMahgwpfrppGHDSyTHw9NOjdeHCmHP5r2Ppk09FW8uKp1ZLkiRJkqQNo66NR5BLqlo8JXzhwoXRv3//aGhoKHZdvbbGxpIwrjLu+HLjmV1SfqI7d6N5Sn0176VymXiidn7QxJqUKd2UL/xv/g03xuyf/zyWT5wYg845Jzb/n2+s6GEj4OnnoEzlrHvrAk2BzPjWt2LZ889Hn332ic2+9tXosQ7amF68eHGqAVFLNSGWLFmS1r1+/foVu1Q3ysL2xHbVp0Zq6rMfb2pqSmWqlZ92Uib24927d0+vWtieWPd4kBDrHfvxWkCZFixYkPYPtVKmfA7BA59Y92oB+zy2qbw91QKWEetfLZWJ8yLKxH68Vh4qxnJi/Rs4cGCxiyRJb2awLFW5NQ2WZ3z3e7HsueeijpP5SrrgL+yS2C21FE7MGxrqC5NWCyfmbdHa0lr4/4qfdK1NwLL8+edTqNz/xBNjxKc/Fb122KH4yYa3MYNl1pOFd9wRU/7139gIYsSnPhmDzj47GoYOLfawZgyWKx9lMViufAbL1YEyGSxXPoPl6mCwLEnaFBksS1Wu7GC5sMk3vfFGCuSWPvFE1BW+k9qorZEQrda1LloUPbffPoZ97KMx+B3vKHbdODZqsFzQPHt2zP31FTHzJz+JhsGDY7P//mIMOOWU4qdrxmC58lEWg+XKZ7BcHSiTwXLlM1iuDgbLkqRNkcGyVOXKDZYJkRf99a8x/Wtfj9aFC6L33vtEz222ibaWCnkAWmGP1NrWGi3NLdHQraFmTsxZTuxuKc9alalwwdJr112j76GHRvcttih23Dg2drCMxkmT4/VPfzoWP/JI9D/2mBj6vvdFrz32iLamxrQuUSO/vrBtcAOlKwyWKx9lMViufAbL1YEyGSxXPoPl6mCwrErHecb6PB6v7+FLqkwGy1KVKztYbmyMGRdeGHN/+9vovdvuMeSf3hd99t8/da8IhV1SczGQ6NWrV+Fio7rbWE4KBVhemL8rL6AKF+9rXKTCMKidW1e4YN7YKiFYxoLr/xwzvve9aJ45M3rvs3f03nPPaGsq3iipr4t+RxwRfQ86qEu18g2WKx9lMViufAbL1YEyGSxXPoPl6mCwrGowZ86cePbZZ+OAAw5I11pri+PihAkTYsiQITF69Ohi179j3/XGG2/ECy+8kP7eY489YsSIETWzjUgyWJaqHgfocoLl1iVL4rXzz49F990fQz/4wRj+0Y9Gw5DBxU8rQ3Nht8SJLCfmGy+uXLeWFy50udhIIWyxW7WrlGAZ07/4xVhw083RPHduCvKTwnvLvHkx6NxzYvi//Vuq6b06BsuVj7IYLFc+ymSwXPkok8Fy5TNYrg4Gy9rYWAc5TrEOdnbe9/jjj8eXv/zl+OUvf5kC3rU1ceLEuOiii2K//faLM888s9j176ZNmxZ33HFH/O1vf0vXDO9///tTuFwr2/2GwH6FYwDnUrVyrFZt8TaRtIlpKVxALhv3YgqYe2y5ZcWFyknhwEmTHant51pRi2WqIIP/6Z9j0LnnpprJ/Y46asXrsMOixzbbxMLb74g5v/pVtBUujCRJkqRaRE1kAuMHHnig2OUfURmkb9++6+zmB8MhyO4sKCbIprbyBRdcED/+8Y9j3333NVQu0/z582PSpEkxffr0YhepshgsS5uQ1qVLY+lTT6dws9eOO0b3zTcrfiJVt55bj41h//rxGP1/P43R378wRv/g+zHml7+IgWecHg0DB8Siu++OmT/4QbFvSZIkqbZQo5Wgd1W/EtrQvzLkl3PUfB87dmyxy6ZlXTQQ8Oqrr8bDDz8c8+bNK3aRKkvDlwqKf0uqQhysGhsb008+V3fnuWX+/Fhw002x9Iknos/++0W/o4+O7iNHFj+tHPzch5+ycje7Vn5KyM+XWFaczNVKmVhGqIgyFU6g04P6CtsB7U/X9egRdd26Rc8dd4ymadNjyUMPR+uChdFjq62ix5gxnba3THMEnIyz7tXCT/eRm1jg54e1gLKwPaFWarxQJvZ7qKUysY9g/8CrFrYnysTxtpaOTZSJn7mzf6iVMuVzCH4uvKEDlPWl9ByiVsrEMqrVMtXSOQRlYv1bF23xav2j2Qmapth8881jm222SfvDZ555Ji699NK44YYbYsqUKakfXscee+zKJsXGjx8fv/vd7+Kaa66Je+65JwYNGhRDhw5N2yah8IMPPhi//vWv48Ybb0xNWtAM4/bbb5+OG9Smffrpp2PUqFGxww47pOFld911V/zlL39JtW1zjVuuWZkmvkNtZqaN/fUWW2yRzlnvvPPOuOSSS+L222+Pp556Kg138OAVv7CdPXt2XHjhhWmaGPa1114bzz//fPr+uHHjUhmZRsZFM5G0+9wRxsN3r7rqqrj66qtTG9GUl/lBMyFbFa4X8ncp35/+9Kc0zpGF6+ZHH300zQ/mzc9+9rO47rrr0ryYOnVqmna2FbozL5l2XrNmzVo5LpoFYb5tttlmabqZlu9973sxd+7ceOyxx9J0PfTQQylEzsOlXMz3l156KfXD8qV5mlo5bqv6uSZKm5DWxYtjycMPpwf18eC+7oUDnVTLuHEy+Nxzo9+RR8Sywgnn7F9eFI2vvVb8VJIkSepI9T6KKt/YIMj9/e9/n4JiHtZH2Ppa4TyYZ4pkBNE0nUE32kneeuut46abbkrhL7hZAkJOhsGwCHEJWLGqmyhjxoxJ7TjT9MZuu+2Wai0TdhOcEsIyToZJUMpwCJMJTnfdddfYZ599UkhLME14DGo/E7ASBPMdppcbH7/5zW9SOE6YzvB4WOAtt9ySvtMebVATSlMGynrQQQfFdtttl5rzIOSlZjDPHsi4ofzyyy/HjBkz0rzg4YdMw2233RZbbrllmgZC6ZkzZ8Z9992X5h0hOd0JogmM77333rQs9txzz9h5553jkUceSeUH03///fenoJ12sQ888MD0fcZBTWXCbkJuXkwn7VMPGDCgZm5eqTYYLEubkJbCgXD5i+M4Q4heO+8U3YYNK34i1a4+BxZOgt/xjtT0y+LCid28P/wxmgsnf5IkSVLH6iKWzY947cGIJ66IePLKwus3G+/FNDzzx4jpz0S0rvqZLdSmJQR98cUXU6B56qmnxllnnRUnnnhiqilLcJoDY8LQyZMnx1vf+tbUzz/90z+lEJUwl9CTGsaEwm9729vi7LPPjnPPPTfVls3B8qpsu+22KUglXD7llFNS2Eq4TQ1egtEjjzwy3lE4R6cfglnCVT5/17velcbDwwAJdeme8T0C6+OPPz5OO+202GuvveK5555LYSzjoKzUOKZ2b37QeCnKRq3mXXbZJd797nenF/OFoBoEuaU1gRkf8yA/NI9fJFCTn2EzT975znem+cH8JDQnuD7nnHNSGait/OSTT6Yg+Zhjjknd3/Oe96Tl88QTT6T5y/D57vDhw+OII45I5aIcfPbKK6+kQJma4DvuuGMcffTRaTkxP62trEri2ihtInhw2fJJk6J18ZLoNnRIdB89miNl8VOptvU98MAY8t73Rn3hZHH2RRelgLmtcMImSZIkdWjxzIjnro249b8Kr/8XcdtGfN1yQcRd/xMx/s6IlqbiBHaM0JGmFKjZS41cgk9Qc3jvvfd+U/Mz1IolJCWspIkMmpugVjK1g6n5y7CoOUx3XnSndi/vXUEtYELSjPCV5pcIdqkFnfHgQaaTWr0ZYS/hLE1vULuZaeFFP7kMTBthOeXKYTnhNMNiHuRuGcOiljZNgaxJ82OEytREPuqoo97URAxlHDZsWAp/mc8Z8/D1119PYTfzl6Y1CK8JlKk9noNlAvK8nJhH1IbmBgDzmXEyH2mOQ6pEBsvSJqJp+vRY9swzqe3Z3vvtF/UlBzyp1lE7f9A550Tv4snq7IsvjkV//Wv6W+sAJ+1deUmSJFWLodtFnPjNiM9OivjMhIhPj994r89NjvjXxyIO/beI7r2LE9gxwspcq5bmFfh3RjCbg00Q0NJm8Gc+85n4r//6r/ROMxi0v0/gyTBoVuIHP/hBfOc734mf//znqbmINX12B8MkQC0NX0FNX6alNKwFzT7wHT5nmnlRgzjjM8pU2rY53fKrPQJa+s81kLuidDj8TdkJ30vRnWmgPej24yXIZt7y+sQnPpGawWD+Mi1ZR/Ozo+mXKpHBsrSJaJ4xI5Y991x6wFnvvfeO+sJJhrQp6TZ8eIz87y9Gt1GjYunTz8SCv/wllr30YvFTrSluWs2/4YaY85vfdP668sqY/+cbonFS4cJMkiRJ600OOQmQqenbPqAkLM7dqGl72GGHxY9//OMUHH/729+OX/ziF/HBD34wfZ+H+d19993xvve9L77whS/Exz72sdSOMW0Pr0sEzTkML0UNXwJjaiHnac4B8ppgvlAjuDTUzRgu4ygdPv/O87C0e2fT0FF3ambz0ME8f3m43yc/+cnUnWlBZ8Mr1ZV+pI3BYFnaRNCmLGFa1NdH3333NVjWpqew7vcqnMANL5wQ0xTM/Ouuj7lX/sYmMdZS46uvxpxfXRZzLr4kZv/0/2JWu9fs//tZan5k7pVXxvJxBvmSJEnrE2EltYJ5OB0P5iOcBc0qPP744ynAzWgHmdq7L7zwwsqHxPGi5jC1amnKgTCWB8cR/tK8BA/KK21OY13Yfffd07BpezibMmVKaj6CWsuE3DmEXRsE1DxEkAcFlobLzBPmAy9qR2c8rI8H/fH5mgS7NNNBMyPM99L5S3MiWQ7MO8M0cQOg9KGCUiUxWJY2EU2vvRYthYN1t6FDo0fhYFpXxs9/pJpRXx8DTjklBpx4Qqq9v/CWW2PeVVcVP9Sa4KGgSx59NBonToyGIYOj+8iR0X3E8MJrRHQrvNcXLmyapkyNZYULlubZs4rfkiRJ0rpCOEn4SRjMixCUB77xoLtrrrkmrrjiirj22mtTu740j5FRW5lwmeYuLrvssrj00ktTjWWCZpp7oG1gaidfcskl8bvf/S49KI+mKHJ7v4S9/N1RDWDw3dJayPTfvhkI8PA92kmmdvAvf/nLuPzyy+OPf/xj7Lrrrqn9YRCuEvqWBsx0IzCn/DmgZdhMU0dBNCEvD/ijHBdffHFcdNFFab7QDjIBOm0v82DC3/72t+khfwTzhPQMi+EzbKa//bA7GydtSR988MHpIYnM21/96ldp/jLcjDJTjoxh5HnEiyCc9ptvvvnm+M1vfpOWYWn/0sbW8KWC4t+SqhAHOA7YHOBpL6ojBD4Lb70tlr/ySvQ58IAYeNppFR0sczDlxIiDe2dlqjYc/FlW3N2vlTLl2g7VViYCZZrFIBBd+sQT0TRlSvTZZ58UgjYVlhN1EVj3auXnZpyQsu6taVt4q7P0qadjwXXXFebfiBj+n/8Z/Y48Mvrst1/0OWD/6HvAAdFrt11j6WOPRcuCBdHv0EOjd/HiYE1RlnwyzXKqBZQpX4jUUpnYR7B/4FUL2xNl4nhbS8cmysTFK/uHWilTPoeghte6rlG3sZSeQ9RKmVhGtVqmWjqHoEysf+3bvVXlYZ0j2GR58eA3HnpHDWOC1JdeeimFkfybWsyjR49ONYS5fiQ05TVr1qx4pXCtyDvLfZtttkn9UVuYbtQe5uF9hNU777xz+i6hKeeZBKME0ITD7VELmX73K5wbgmETBFOTl8C0FA/rYxviQX58j1rKp5xySqotDcY1c+bMOPzww9MwwbAo9/7777+yGw/o4xjAdFIzuHR75HhHuebOnRuTJk2KqVOnpvWb+UJNYsowefLkmD59ejrm832CbQJ6HtrH+Bg2zVhQ+zkj8C7tnseZlwHjo6Y3NcCZXsbDPOaYxTTQvAjtM4NlSBmYR7wIlcGDFhkO46DfWtl3qvrVFTbcVde7l1TR8oGHA1hnB5eFt98es/7v/6Jx0uQY9qEPxpB//uf0EL9KxQkHd7Y5kHOArgVcuLOsOJmplTLl2geUqRpPbBbcckvM/N6Fqd3f/kcfHaO++P9ieeEkrXBgjN6FE8xauSjkBJiT1tLaKetMYV7N/tWvYvr/+2L0KlxcbH3tNVFfuAgo1VbYnscfe1wse/6FGPXlL8Wwj/xL8ZM1Q1nYnjh94YKjFrBvyDcASn8aWc0oExdOBCy1ErKw7nHhyHpXK/txysRPa9k/1EqZOIdg3SNgqJUbNfkcIm9PtYBlxPpXS2XivIgysR+vlRs1LCfWP4JHVRfOKTb0sbf9OFc3DeVMY0f9drXb+rauxrkxpl1aF2rjiCdplRonTIjG8ROioXBSmGoLendTiv7HHxdD/+XDqY3lhXfemZrFaJk5y2ZiykAt5Ja586KuR/dU45sQub26wsU1tcTbmpuirXBxKkmSpPVrYwSU7ce5umkoZxo76rer3da3dTXOjTHt0rpgsCxtApZPfDUap0yJhsGDo/fee0edwbJUOHmrj74HHxLDP/rRaGtsjJk//GEsfezR1BSGJ3Zdk4LleXOjrnuP6DZ8RAqR/0FhXnJTi19JtC5ZUuwoSZIkSap2BstSjWt87bVomjYtGvr3j55bj001ByWt0H3UyBhw2mnR99BDonn+/Fh4xRWxrORhGlq11hQszysGy8PTwxE7Uj9gQNT17BGt/Ey45EnbkiRJkqTqZbAs1bhlzzwTzdOnR/ctNo9eO+9c7Cop44bL0PM/ED222iqWP/Z4LL7hhnRDRqu3osZysSmMVQTL3NgifE7B8uLFxa6SJEmSpGpmsCzVuKXPPJNqLHfffIvouetuxa6SVqqvj35HHhUDTj4pug0eHIv+emfM+8MfU9vLWrWWBQujZe78FCw3jBjecVMYBfUEyz16RNsyg2Vpbd12/0ux19nfj09/9y/FLpIkSdLGYbCsqsYTsnlC++LFi9NTVEvxVGa6z58/P+bNm5ee1Ny+H55yzNPQ+Zx3niRea5Y//3w0z5wZ3TffPHrttFOxq6T2hn3849H3qKOi6fXXY8FfborF995ruLwaqSmM+Suawui+uqYwaGPZpjAkSZIkqWYYLKuqjRs3Lr7xjW/Ed7/73RQgl5oxY0Z85zvfiQ9/+MNx/vnnx6WXXhozZ84sfroieL7xxhvjE5/4RJx33nnx2c9+Np599tlobGws9lHl2tpSQNY0/Y1Ui7D76C2iYeCA4oeS2qvv1Sv6vf1t0ef442P5iy/EjG99K5oL+xF1LgXLcwmWaQqjk4f3FTQM6B/1hX4IllussSxJkiRJNcFgWVWpqakprr322rj88sujf//+6d+ltZFff/31uOaaa2LgwIHxhS98If77v/879UO4nP35z3+OCRMmxKmnnpqC6TPOOCMuvvjimDRpUrGP6tbW3BxLn3oqWhYujB7bbhs9xo4tfiKpMz322iv6nHB89Nx++1g+YWK88Y3/iZa5c4ufqr3UxvLcOak2creRIzqtsdxQrLHctnSZTWFIkiRJUo0wWFZVIkQeMWJE7L333rHbbrtFfbswg5rJjzzySJxwwgnp89133z222WabVKt5ypQpqZ/7778/hg4dGscdd1xsvfXWceCBB0ZDQ0MKlmk2o9q1NTXFkscfj9aFC1NI1mPs1sVPJHWqsC/pe/TRMfg970m1/hf97W+x4MYbU81c/aPWxYtSLeS6nj1TeNyZ3MbyiqYwDJYlSZIkqRYYLKsqEQDvtddecfTRR6dwuL2FCxfGsmXLYqeSNoW32GKLGDZsWLz88supuYu5c+emcLpv377p8wEDBsR2222XQunZs2enbtWkrq6u+FdRa2ssfeKJaJk/P3rtsH303Gab4gfaWP5hGanitBX2Dd1HjYoBJ50UA087Ld2YmXPFlbHksceKfahUy6LFUdetWzQMGljs0oHCep9rLKdgeR3UWHZbktaNWtyW3D9UB5ZTftWaWiuT21RtWbJkSYwfP36dPVuIZxbxa2GeWdQRmp+kctdLL70UL774YnquUfvnHkmqbgbLqkoEy3369EnNYHAwK8UD/ejGZxzIsl69eqXvzJo1Kx34evfuHT169Ch+uuKgN2TIkPQwQA644KBXDS8w/enfTHfh1TRnTjSOn5BqXXYfOzYahgxe8VnJ9yrxlcuB0ndflfmqpeVTLEwKP7tttlkM+fCHoueOO8bSp5+O+ddfH8vGjSv20vH3K/mVdfTZGr0Kw2qaMSM1tVPfr190GzZs5b6nfX9thW2afup6FNtYXrSw0LU65+OGeK3cl/uqyFdedzf2cso6+qycF+XIw8nv1f4qXTa1UiZetVSWWnxl/F0r+/Fcnmp4aQUqT1HBqv31cSlC3ocffniV/ZSD6+YXXnghpk2bVuzyZlxbT5w4MVXuevXVV1P/lbzMCNzzsXFtMSyyCanW1RU2avfEqlocqB599NG488474z/+4z9i8ODBqS3lu+66K7XB/MMf/jCF0OCAd88990S/fv3iqKOOSg/2O/nkk+PYY49Nn7Pj/9Of/pRqMvM5tZ3X1QF3feLAx3QSnKcmQQrlpZblkrv/FjMuuCDqhwyJEV/+UvR9y1uitcLLQ40IdkkcgFke3bt3T8uvmndTuUz5JKUbtTurvEygXPlBl5SnVsrEtsR7j8L21Fb4e/Gtt8bsC78fjZMmxaD3vS+GfuZTUd+r94qyVkl5WU5ML/uIdbKMCvOHh/QtL+xTZ3/7O7HsiSdiwNvfFsM+/3nu7L1pHHn9bxw/Pmb+1xei8ZVXVszHT39qjfZHDI/tiO2J4fbs2XPdlGkjymViv0dZ2O/l+VatmP68H8/7h1ooUz7eclOa4+3GKtMdD74SF/zwtjjmoO3iG/92XLHrmmH6+YUX21K178fz8mA5cS7I8ZZXNZcpy+cQLKNaKBPLKj8fJe8jaqFM+Xib9+PVLpeJ/TkVcip1GeXtQhFTp05NtZH5pe62225b7Ppmb7zxRtx7771x4oknrvzl7tqgwtZTTz0Vm222Weywww7Frn9HTeXXXnst9ttvv/T8o0rGOk6zmVQ2WxfzZvr06Wn9HD58eLGLVJsMllXVOgqWWaX59xVXXBG//OUv084czzzzTNx9992x+eabp+D4i1/8YnpwHwdVcNLOdzjRpYkNmsVg+JV+Ykh5meZ8EsvPzZsLB+8Fl/86Fl51VfQ+8sgY+KEPRs8994y2wsVjNaBMOZBo3352tcp3q3MYUQtqsUysd0gXKJSpcCE/52tfi8U33Rx1vXpF/3PPiUH/+Z9Vsy2BMrFNsY9YZwrb5tL774/5P/5xtEx9Pfq/9z0x4AMfWBG282qnZcbMmPXZz8byxx+P/u96Zwz50peibematWVPWQhYeK+VC0nKkrenWisT+4da2Y9Tpko4Nv3oNw/G725+JkYM6RvXfP9dxa7lOeOLTxb/kmrPtV/Zq/jXhsU+j/0E+4haOtfjmLtOzyHWIeY308bNMa14gD0Pp+d6l+cLdWTGjBmpstWGCpafe+65FNby7KNKx/p0++23xx577BEjR44sdl1z1AznF9M880mqZQbLqmodBct44IEH4vvf/35cfvnlK080HnzwwfjrX/8aRxxxRBxyyCHx4Q9/OE455ZQ444wz0uecOFGLecstt4wjjzwyHZDpVuknhkzj4sWL04lBOpEtXOwuG/diTLvgglj+7LMx/BOfiAFnnRndR4xIP0mvdOySKBO1wlh2tRCyUCZqfOQT81oJjqjlBsqUb+BUO36exzZP7d607Re2p+Zp02PGV74S82+4IXrtuUcM/+Snot+RR6TPCivrigC6gvEwUta9dXHxsFKh7POv/3PM/ulPqRIdwz76kRhwzjkpiP8HhfWfJjCmfuSjsaiwDx70nvfEFv/7zTRNa4L9Q67pRg2qWlBappXrXpXL+3H2d+wjaqFMrLPsI1hGGzM4+t5l98QVNzwRI4f2i5t+dl6xa3lO+PQDxb+k2nPLtw8u/rXhsD/Ix9uVvyKscpSJcz3OYWlisBJx3GQ6a+UG5toiWKbZCUJegmXmD7VmqTXM+knNWeYVNYiPOeaYleeGPF+Ipipo/5jj284775yCVf7mhio1oQmsOa7TjRrR/LqXYa0qWOY7zz//fGqeg2tragLzzniYHs59CJ133HHHGDt2bJpemsugDPxNKLvrrrum74Fj8EMPPZTGT5MejJt1k+t3hkdtbK6L6Z/hdfQsJsaZy8O6ja222irGjBkTr7zySowbNy4Nk+2YbpRpzpw5qTvZA+c3PLeJ8uft4umnn07zgvlJO9J8zrCZHsrBc52YFsrpuqpa5FqtmsTPbDgYEjBnHDzYuecdOgcbDr65PSjaXubAx/fyz1U4cNJvJb+YxtJp5TK3rXDwbiwc1NoKB77eu+0WPQoHM7q3/24lvnI5SstU7a/SctRKmXhxIp9P5mvllcu0cjkV1sMem42Kwe9+d/Q99NBY/vSzMe+yy6J1xoz0WX0VLM/1spwKZW8rnMy3FU7e6wsn/bSxnOZHR/0W5lE32lju2TNalyxN30GH/XbhlZdNLa17tbyP4L2WypTX3Y1ZJuZr1tHnXXlJtayjdX59v/Kxllet7PNKy9TR55XwyvNab8YyA4Hus88+u/Ih9TQJSbccqILQlKCZAJQwmmthAlYC6Yz5TCDMMLjO5jsEwqtDmMq4qSxESEvAyrQR7E6ePDndiKHJDoJguufx0u/WW2+dglpCca7hkUNugmmGzXeZNoJtguZRo0alaSQAZ1gd4bt8xjjol/c8jTl4ZzrJCnKgzbTlsHr06NFp/jFdGfODrIGgm+kmZGdaqAAxaNCgFFwzvXm5SLXGvbCqGgdADjDs3Pk7Y0f+lre8Je6///64+uqr4w9/+EM6eO2yyy4rQ+Pjjjsu3XG85ppr4sYbb4wbbrghHSg4GFTqz706ksu98r2xKRpffTVaCgfNboUTg+5bbJ66V6PSZVoLKE+tlalWtV9OfQ87NAadc3Z022xkLL733pj7299FS+EEdlPWMnt2tC5aFPV9+0RDBzVC2qvvRRvPran28tqqxX1DLXO/J2lT4jGqdixvWR5TFk6Jp2c9Hc/Memajvp6e+XQ8P/v5eGPJG9FaOJ9aFQJMlhsVp6h1TgBLiMo7IWppsEyoTE1cKl/RD802UPuX7xL8Etxy/Zw/p6YugWmunLWqsJQQmkCVmsc5tOY5BQyf4RLUMjxCW6aBcVJTmBrT1BRmnIS1NN9RirCWa3aGSQhMsMu4+DfdKSPPTaJ2cnuEztTQZlooDzWiCc25/qcmNO9kAswrah4zH6mZzPTw2n333VP30mA9byO5VjLDoWwE+fRbGqpLtchgWVWNAxIHEX7+Utq8AAcnft7DQeeOO+6I2267LR0wzj333GIfEQcccEA6MHBQIFzmzuW73/3utOOvZk1Tp8SyZ59JtQj77LNPepe09vodfngMfte7Inp0j9kXXxyL77knml5/PZoK+5Cmwkl56atx8uRofqNw4l9FbTGXq2XunGhNNZb7RreuBMuFfVE9D/+hyYeSCxpJkqRKtKx5WUxeODmenPHkRn89MfOJeHbWs/HG4q4FywTKhLKEpIS14HqZQLU04KSmL2ErgS/9U6OZvwllaVaCfqnFS3deDJd/U7mrK6jIVXpzgr+5hidwzc1YYubMmanWMNOXUWOZcJYgPIfhTE9pSEuZ6IeKZXk8TD9lzs32lSIUZ7w0t0HtaJrXyM2zMa0oLRvj4UUYnpvwoP/Sfvib8J1MImP+0V8etlTLbGNZqnIcADnIcyeVg/Ti+++PmRd+P5a9+GKM+I//iIHnnBMNAyqzXbTOcHDmoM2Bv1baI+aEjWXFiU6tlIllBMrEulcL8gk0614+YS1FYDztC1+IJY8+Gg2DBke3woktNXELZ7LFPlZoKyzvnjvsEIPedm702W+/YteNI58wc9K9Lk352Mdj3jXXxKAzz4wtvve9qOvZo/hJx6Z/5asx51e/ij4HHhijf/yjLoXRHaEsbE+cvlADphawb+AChDKx7tUCysQFHTV/aqmNZWpUsd5tzP34d3/1t/j1nx9PbSzf8ovzi13Lc9wn7yv+JdWe2757aPGvDSsHTuzHa6V5BvbjHHOpyKPKl9tYJkwm6KQZDNZHatFyvg7CVB7ed/LJJ6fglr9p15gKWTkaIsSl+QZqExPQ5iYqOLbnFxW5DjrooBRMP/nkk50+vI/2h2m+4qSTTkr/JpzlofqsU6UPtXvhhRfSMZbKYNT4zXgAHtcZTAvb1/XXXx9nFs498zkgw37sscfSr5HzORTNVNB93333TbWXS1FGzvcZH/0QMjN/CKYpF8Pfr3DuniubcV1K2ZlHOVRnOpmW/KymW2+9NQ1n//33T/8G2w3tQTP+vfbaOA8UlTYUayxLNabp9WmxtHASUVe4kO+9z95R36c2QgqpEvQonGSO+vzno9vgIdE8bVosK5wsEzIvKZzQrnw9/ngsLXTntXzci8Vv1p7mOXNWNIVROLFfXaiMhn59U79tjcujlWZE2oXxkrrmgacmFf+SJKljBKC55nFpXUL+Lq1tC0JkHmp/4oknptdpp52WQlluDE+aNCm99t577zj66KPjwAMPTMEvweraKJ0mMK10a998Ra51nD9fW9zoprIF5TnhhBNSGE1wTkCeld4MpxY3ATHNbBxxxBFpHtBUR/t52JFauKkudYXBslQj6qgZUTjWNk2dmtp+bRgyJHpsu23U1UjtWKkiFE4Qe2y3XWz2lS/HqC9/KUZe8PkY+fnPFV68fz5G/dcFMfT8D6Rtj6Ywlk+eXPxibaGJjzZqbRROzOsHvrkmSGfq+/Zd0RRGY1O0LFxY7CqpHM+PfyNemTw7/d3S4s9rJUn/iACWmsbUoqUN5RzOUhOZtpFLA9r8gDq6E97yIlDOzV3wyzd+pUON5vTr2MWLUxvF6zo0pQkMppPawRlhL7WDaSKDaVrbYJnvUybCa8pEqMyvfulODWPKRLlL26CmOy/mJfOGaaQt6NX9KoHpZTh8V6p1BstSrSgcCBsnTiy8Xk21AnvuuGN6l7Ru8WuAfkcdlZqAGHTOOcXX2Stfg9/+9ui1ww7RXDjpbnr11eK3aggn5W/MSO0kNwwaGA1d/HlsXd++Ude7V/peywKDZWlNXHL1o8W/eM6Ep/GSpL/LwWmuTcvD5AiOn3/++dRcBO80RUFAmtEuMP1NmDAhHn300XjkkUfSiwfmEbwSKDM8utHkBW0h8/08jjxOmpHoCN1LayF31j+1iGkGg89o/oLppSkPmqigO/guYS3vGTWn29fKbj/OjOCYJiSfeOKJNHzeCckJjXNzL8wPnsH0wAMPpFCepiyYP0899VQ8/vjjMX78+DTs0mYAmeY8PzKCZ75HOM73aEqjdBqlWuIZqVQjuGe8/KWXYvnECant0j57773iA0nrXuFksp52zam9UTgRza/6/gOix9ix0W3kyPRgu2ZqXXRyol2t2gon8M2Fi4rW5ctXlrsrUo3lXise3tdauKiRVJ4Hn54ctz/4soGyJKlDtDtMEJvbFaYNZZptIASl5jHBKiEtbQrnZwVQY5f2hAmQ6YdXDn35Hg/Ko/1kAl1qDzPsrbfeOnUHITPD5PsdIVwtfagd/TONdG+P/mgfmlq+tFlOTeVtt912Za1qvrv99tu/6TkHlJGmPEq7MS0010Gt4fYIfAl4GT7lofyUj3Exf7bbbruVDwwkQOZz2o5mntA/w2Q6aRojY5rz/CjFdFETm3naPhCXaokP75OqHAc57rwOLBxAZ//4JzHrF7+I7oUD6eZf/3r03mtPjp7FPqsHd3x9eF/l2xQf3tdVM3/4w5jxv9+KnjvtFFtd8evoXjiBLgyw+OmGxckstTnW1cP72grb58Lbb483vv6N9KuIYR/9SAw8/fTip51bcOutMesnP42W2bNj+Mc/FoPe/vY1mieUhe2J0xcf3le5KBM/F+UCjNfabE+VgnWPi8qN9fC+f/ny1Slc3mOHzeLpl6b58D5VlDMP3yw+esY2cd290+LH10wodt04fHjfusN+nGOuD++TJHXGKg9SDWmcMD6apkxJ7Sv32rM6Q2WpFlBjufuWY6JteeGCbOKEFMbWjLa2aJ5BUxjLo55a2gO6drHZsLKN5cZoXmiNZakc1FQmVB46sE/svv2oYtfq8avP75PCvvYvwshKxjT+6SsHFv9VnrX5riRJUrUwdZKqXbEW2LIJE6LpjRnRMHhw9Bw7Nur8qay00XQbNiy6j9osWpctj6ZXJ0VbSw01h9HWFi0zZ0Xb8sYVTWEM6mpTGP1SDee2psZonb8gDUdS1+S2lc87a/+or6++2t/9e3ePBYubU03p/Hph0sJUw/XjZ/7958SSJEmqLiZPUi2oq4tlTz+TahHSDAYP7pO08XQbNjwFy23LlkXjq5Nqq51laiyvURvLfaKuFw/va4rWhYuKXSWtzrV3PBfPj38jxm4xON59au08P+Hffvh0et9vp47b5awEBOBnf/Gh4r/KszbflSRJqhYGy1K1o8ZyfX0sffrpaH7jjegxZkz02mXn4oeSNgZqLHfbbFQKXxt5CnQNBcu0A9w8a2a0lRss96PGcu9obWyMFh/eJ3XZJdc8kt7ff8Z+6b2WUIuZ2sySJEmqTgbLUi1oboplL7wQzbPnRPcxo6PXTtZYljambsOHRffNNou2pUtj+cSJNVdjuWnGjBU1lgcNim6DBhc/WLXSNpYNlqWuueLPj8fkafNit+1Hxelv2bXYtXYM6NstFi5tKv7r70rbYebVvi3mr5y3c+oO2jHO/dGWM3bfZsDKbrw6am6DYZb2w4vvlWLYeZjI3+H9h/+2x5u+297afBel5Sp9UfaO0D+vUnk+ML5SeVpK50vuVvpqP648PL5XWobO5OXUfvySJKl2GCxL1a6lJVpmzIymqVML/2iL7qPHRH2//is+k7RR1PXoEd1Gjoi21tZomjYtWpcuLX5SAwr7nOZZs6OtqSm6UVu5i+25168Mlpui1WBZWq3Gppa45Jpi28pn7p/ea0kOXb971SvpHTm4pP3l3BbzdfdO67QtZvq94rbJqb+fXjshthjWO4Wr3/vY7iu/z7BOP2yzFJxmBJ50y/3wovY03+sKpmfeoqY3fbd9qNuZrnyXfxO4534eeG5O6k4Zv3jJC+nv9p57dUEK6kvD8SP3HJbemS+l9t5+RfMjdz81K70zb5ku5nUeJ+M6eNchHYbCzDvkfjvCMPk+056bPZEkSbXHYFmqdk1N0fjU06lmJG0r0xSGpI2vYcDA6D5qVNS1tUXjpEnR1txc/KS6tSxcuKIZjD59oq7w6rKGhqjrveLhfQxD0qpdcvUjMWf+kjhozy3jLQduW+xavQg9cw1XXiCUfGbC3280ffLt26WgtTSI/PE1E2LqrKVx9N7Di13+jvDzmnumpb9557uMpzTs/OUNr6b3HKaCcPaf/+fx4r9WuPOJmem9NIDuDGFpacDLdxnvuvgu7/ybkDf7w11UHnhzGdp74uV56T2HydhhTL8079pP25Yje6fued4TFBPAM68z5ifTuvNW/f+hJnf7ZdQeoTLDbF9WSZJUewyWpSpH7b+mp56KtiVLoueOO0T3rbYsfiJpY6rv3z+6b7lVapO4afLktI1WO9qKbp4xM6K1NRqGDkltJpejvmfP1JQGNbhrJWiX1odZ8xavbFu5VmorE0bmGq4EjtSibd/UAt0IPNvLgXF7r0xdXPxrBWr50m9HBvXrWlvO7Wv3dmTG3OXFv8q3Nt9dlRyslz4MkbIQUNO9NJSm++Q3VsznHDi/9No/PlS1o7Aa1I7uDIEyL8ZrqCxJUu0zWJaqXWtLND71VLQuXBi9dtwxem61VfEDSRtTQ//+he1xyxSkUmO5dWkNBMtNTdE8c0Zq4qPb0GGpeYty1PfuFfX9Ct+hCZ8F1lqWOkNtZZrCOO7g7eOA3Wvvl0gEjgTINJXQHjVkS2s286Lbupbb/82v3LzD2uhKKN2Z/N0cEJdOzwdPHZvec83lzhD45uFQy5gwnuExr6mljNykSB5W7r+jQH9NUPMZ1JaWJEm1z2BZqnLNM2dGy5QpUddQHz223joaBnftQVqS1q/6/v2i+5YlwfKS6m9neUWwPDMFw92GDI36cprCKKjr1SsF7tR8bpk3L9V8lvRmr06dG7+58cn09/trsG3l7NFxK2rDtm87ubR95favdYV2gwm1aUojD7u06YmNKQfCBL6lwfonfvLMm5oN6UiuYUwtZGoZ57CY5jZygJybx2g/rPz52qLmc25Co32NdEnVhV/dSdLqGCxLVax18eJY9sK4aF22LLqPHp3ac5VUGQhQe2w5JoWnja/WRrBMm+4Ey9RYXtEURnnBcn2vXlHft1+aJ60L5qfhSHqz3ATGmcfsGrtsOyL9XYtye76lbScTeK6rgHNVGAfjojZvpTn3qC1SjeXSQJ3X6kJl5NrONHtBgJybu8jlJMSn7Lk78gP8OqphnJdN7qerqJHODQLC+9K2nSWtX4sWLYpx48bFo48+Go899lg88cQT8eKLL8biwjVjOSExw5gxY0bU1dUVu6ze8uXLY0kNNPsmqXwGy1IVo8bf0idX1Grqvc8+0TDkH39SKmnjqO/Xb+XDNBtfey1al7y5LdBq1NbUHM0zZqVguNuwNamx3DvNl7ZWmsJYkGo+S/q7Z1+eHtff+Xz6+7yzare2ckb4WPpgOWoN829qFJei5mv7bmuDtphLA2xqCa+LpjDWFeZBaTMd+dUVBOa7jh2QypdrMIPutL/MsEub1CCwZjlQw7i09jh/043ax10Jtdvj4X6E3B89Y5t/ePifpPWDEPm73/1ufOELX4jvfe976fWLX/wiHnjggVhYxoOTL7300nj44YeL/1q91sJ54cSJE+Pll18udpG0KTFYlqpYy/x5sezpp9JP7Xvvvkc0DB1a/ERSJeg2cmTU9ewZLXPnRsu8+cWu1autuSmaZxUf3jdkSNSVHSz3XFFjuaW1sP+yxrLU3iXXPJre3/vWfWLMqL8/bK1W0UQDcs1YatbS5AOBZmmgyoP3CCrXlX/+n8dT6JmH/72P7Z6axagEuf3p0mY6eNGNaV1dSMs8JTzmVVojm6ZHCJspd/ugmHlLqE+4nucJfzMNa/MAvi/9asV3v/TPNokhbSjbbrttfOITn4grr7wyfvrTn8Zxxx0Xl112WTzzzDPFPlbvn/7pn2L//bt+c3Py5MmpdvSrr75a7CJpU1LXZsM5UtVafN99Mfmf/5lcOcb+9rfRZ//9ip9Ut+bm5li6dGn07t07unX7x6fAVyN+HtbS0hI9evSomTKxjECZGhoa0t/Vjp8K8rM/1r1yfv7Xmaapr8drH/5wLHvuuRj1pf+OQeecU/YD79YWP0ukJkm/fmv/IKXGwgXD1E9+KpY+9VSM+u//joFnnJ6a/OiqxQ88GLN+/ONY+tyzMeKTn4xBZ51V9vygLGxPnL70KTPYrlTsG5qamlKZWPdqAWVaRjNN3bun17rYnjY21j1+Zsx6tz724w8+NTn+5StXR6+e3eOmn50Xgwd0vC5891d/i1//+fEYObRf3PKL84tdy0NQqcpEzWxCYcLvUtTqpvYvAXBuRkQdIxjfGDgvYj/Bfry+vjbqb7Ef55g7cODAYhdVMpq/uOOOO1IofPTRR6duXFe9+93vjve+971x6qmnpvON5wrnpX/4wx9i7ty50bdwHnbUUUfFiSeeuPJ8/nOf+1wceeSRcdJJJ8W0adPiwgsvTP288sorMWXKlBgwYEAaxwknnBCzZ89OwTXNb3Bs3H777dO499lnn7j11ltTbWmOnZwLHH744ek7HZ2TPv7443H77bfH+PHj0+d77713nFM4b+7Vq1csWLAgniqcexJeM5w5c+bEvHnz0jQce+yxMaT4q93Gxsb405/+lGpbc0613XbbpZC8f+Fclf6ZRpr5YBulHPPnz4/99tsvTe9mm9lsj7SmrLEsVSnaVV4+YUK0Lm+MbltsnmpGSqosdT26R4+xY6Oue49onDI1mgsnwtUsPbxvxoxUY7nbUJrCKC8Urk81lgvfaaGN5QXpIX6SVshtK5935n6dhsqqfaVNdJTK3am5LGnDaHr99Vh4662x6G9/q4DXPbHwzrti4e23R1tjY3EK34wwlRu5VPrInn322RT45jCX5jKuuuqq2HfffePcc8+NAw44IDVh8cc//jF9jtcL5SbMBTdMCHUnTZoUe+65Z7ztbW+LrbbaKu67777UH8E0taS32Wab2GOPPVIYzd8EyoTOBLfveMc7UqjN99rfmOVmzITCNS2hMgExITgh9muvvZa6EUoTeNPP/fffH1tvvXUcc8wxaTz0c+211xaHFKmWNqEzQfHxxx+fuvE5w+BmD6EyoTPTwedvfetbU5BNGC9pzRksS1WqacqUWF44ONb17hXdd9kl6vt4ESpVmrruOVjuHk1Tp6YmMapZW3NzNBcuEgiWG4YMjrqG8k4j6nh4Hxc2he+3zC9csBTeJUXc/sDL8fAzr8WwwX03ibaV1bnc/nP7h97RNAXNWFTiAwelWtU6f376heisH/8kZv30/zbqa+aPfhxzLr00lj79TOF8rOMb84Sn1EK+884744Ybbojf//73cffdd8cRRxwRO+ywQ/plHsEytdCpOUwAe+aZZ8agQYPioYceSjXUQTCda93nsJqw+LDDDktBMaE0NaFp+oIaxdRS5vNdCtekfL755punUJlp2XLLLVNNZWoWE0z37NkzDTdjOITUOOSQQ9K0nnLKKanG82233ZYeIsj0EEDzzjQcdNBB8Za3vCWGDx+ealHPnDkzBeGPPPJIqqV82mmnxcknn5xqXVNrmprJ1HTm11T86ojxHHzwwan8TD/tQ0tacwbLUpUipFr2wgvpYVg9CgfpwlG6+ImkSlFXOAHusXUxWH69+oPl1sVLonXJktRudANtJZepnmC5f79UU5kaywbL0gq5beXzztw/upV5w0a1hSYweJgezV7k9o550e3sLz5U7EvSBtGtWzpnWT5+fHo1Tpiw8V7jXylc/02JOmr8dtK6FAEw4fHzzz+fwmXaVR48eHBqUoKwl1rHhLA0IZGbE6MG8dixY9M7zUN0hBrDNE2Rm8ogpB05cmRqXoJgmOY1eNEURUbITP80z0ETFAybf7dvGovAmKY5dttttxg9enTqRqhNGE1wTWCcmwrj89JmNAithw4dGi+99NLKaSccp81naiIToNOUB/OE6eS7DKO0KTWa9SCwzjW0JZXPM1epShEsL3/xpRTU9Nh99xT0SKosuSmM6N4tmqu8xnKqrTxzRtQVLgq6jxqVylYuaiw30BRG4SKimYf3tRgsS1ff/mw8P/6N2HqLIfGuU/YqdtWmjIfplT64j9e6fHihpC5qa4seY8bEsI9/LIZ99CMx9CP/stFew/7tX2Pwu94V9f0K51GdPLeAkHaLLbaID3/4w/Hd7343vvrVr8b73ve+FL6C4JcAmGCVfjOCYoJbmoxAafhLqIvS5jXoll+dISim5jDj+dnPfhYXX3xxql1MwFuKYfA8EKahtJkM/mY6mF5qGhNKt29Gg268CI6Z9oULF6ZmPr7xjW/E//7v/6bx0nYy46DslKF9jelc1lWVRdKqGSxLVarp9WnRPHNm+ll5w3bbpZqRkipLXbfu0ZPtkxrLU1+v6mCZmsrNs2ZTjSS6DR+eylSu+l69C/us/itqLC+kxrJtLEuXXlusrXxWbTyAV5JqBedwQ847L4a85z0b//Xud8eQ970vhrz3valiUWcISNuHtxnNPhCs0kRFaXhMO8qEs/kheGsSsjK80mGC5jE+9rGPxde+9rXYaaed4ic/+Ulq2qIU36HWMOFybooD/Juay0wzgTK1j9vXKmaaeVErm+Y8aBrj3//931Og/MMf/jB+/OMfx0UXXRQ77rhj6p9ytZ9GA2Vp7RksS1Vo+SuvROPEidFQOID22m3XqDdUlipWfZ8+0W3YsBUn+gSzVaq1cNHRMmd21K1FsFyXH97XuqKN5baS2jLSpujy6x+L16bNi923HxVvPWqXYldJUkUonPNwvlNpr9XpLCwdM2ZMqsF77733pmYsQE1fHt4HPl8ThL8EwbRlnM2aNSvVVibIHTVqVAqWaXeZGsilqHFM0xy0j0zzFaB28Y033pi+M3DgwNQtN3FBG9GgjC+88EJ6WN+uu+6amsVg2DzkjxCaaeKVm+doHyhLWncMlqUqtGzcuGic9GoKq3rRvjK82ypVpsJFSY/CyS4Bc/OsmdE0fXrxg+qSaizz4L7CiXnDiOFr9CuJ1MZyvxVtLLfYxrI2ccuWN8clV+fayj6wT5K05lIFhubmFMB2VmO5b9++sfvuu6cg9pe//GV8//vfT7V66f+MM85YGb4SNudAlnCYJiZKw2q6MZ7cTAVtNA8rXJc+/PDDabiPP/54jCtcr/7qV7+K733ve6n2MG0+88BAahaXojYyD+QjGL7lllviwgsvjB/96EepfeXTTz89hdIExf379081m++44440PJq7oKb1Mccck5r2IEQ+66yzUhvSlIumQBgWDzGkVjO1nxkO3ylFN8rSWRgvafUMlqUqtPzFF1fUWC4cwHvvs8+Kjh4MpYrEKXqPrbaKhsIJMc3XNE+rzif6t7VrCiO6UGPmHxBKp4f3UWN5vjWWtUm75JpHYt7CpXHwnlvF0QdsW+wqSVL5cs3gAw44ILYqnHd2hlrJtH1MwEsoTI1gvkO4m5144okrm4+gv7PPPvtNbRPT9MS+++6bmrogsOWz/fbbL/bcc8+VNZLzQ/FyW86088xwCYhLMd18RkC89dZbp0Cb9p6ZJsbBMAi+CY5pPzo/4I9/H3LIIXHUUUelf4O/9ylcGzOOHK4zHYyD/gnUGW4ppplu7dteltR1dW3empGqzpSPfjTm/eGPMeD002Pzn/40Fi1ZnA6aHNhrAScC3E3mpKL9QxqqFXfDOXnj5KhWypTv+FMmfsZWC6jRwMkn616utbHWCifU8/74p5j5wx9GQ+FEfNhHPhIDTj6p+OH6x08TOakvfYr2mljyyKMx4zvfiWXPPRcj/98XCmU4OYXl5Vp8773x6jvfFXWFebzdTX+JHtuWF6hRFrYnTl9Kn+pdzdg3cCFGmVj3agFlogYQD+Phtc62p42IdY9aXKx3a7sfnzV3cZz44YujuaU1fvnls2P/3br+8+Pb7n8pPv3dv8Rxh+wQ3/7kycWua4Yy0WYl+4daOTZxDsG6R0jAulcL8jlE3p5qAcuI9a+WysR5EWViP14r5+QsJ9a/3ByBqgfnFGt77GV9br8udzTcdTGuVaHZjttvvz3Vgv7CF75Q7Lr21vd0S5sKayxLVabx1YnRPHNW1PfvHz1Gj46GHitOxjkwSqpAhRPW7lttmZqAoMZy0/TqrLFMUxgtNIVBjeVha9bGctKtW9p/cRrfUnz6uLSpobYyofLxh+xQVqgsSVJXrIvAtKMbJB0Nd0OFs9xgW5cMlaV1w2BZqiZtbbH0yaeiedas9NP6nsWfKEmqbD0L22sOlqu1KYzWpcU2lgmW17CNZdR16x4NAwZwNh+ttLO8ji8SpEo3cerc+M2NT6a/bVtZkqRVowIVv0Zp/+A/SZXBYFmqJnV1sfRpguWZKVjuteMOYT1lqcIVtttuo0ZFQ79+0TJ3bjS98Ubxg+rStnhJNM+YkWp3dC+Up24Nf+Zb173bimC5oGXhwmj1IkGbmEuveSS9n3XcbrHT1sPT35IkqWO0mXzsscfGhz70oWIXSZXEYFmqIm20WfnMc6kpjFRjeeedUy1mSZWv24gRqV3hlnnzU6BabVoWL4q2pqao79s36teiHWCa0GgYsKJt5pYFC6Ot+NRxaVPw9EvT4vo7n09/n3emtZUlSVodngEwbNiw2HLLLYtdJFUSg2WpWvAToGnToun116O+R4/oPmZMCnfaWlc8aVdSZeu+xRbRfcSIaF24MJomTSp2rQ4Eyi0LFqTmL7oNHZqaw1hTdbSxnJrCiNQUBsOWNhWXXL2itvI/nb5vjB7pw7AkSZJU3QyWpSrRumxZLHnssfTeY/sdovsWmxc/kVQNum++eTQMHZpqKzdOfq3YtTq0zJ8fLfPmRV3PnqnmNc17rClqLKdgOerSvDBY1qbi/icnxV2PTIjePbvH+62tLEmSpBpgsCxVibbly2PJ449H67Kl0WvnnaLH6NHFTyRVg+6bbxbdhg1NtXSbJk8udq0OK4Ll+StqLA8bltpZXmM8vK9fsSmMhQtsCkObjFxb+byz9otB/XulvyVJkqRqZrAsVQmC5aWPPR5tSwiWd47uBstSVaHGcrehw1K7wsurLFgmDG9dQLDcMxrWssZyPQ/vG7iiCQCaBbHGsjYFt97/Ujz63JQYPqTvWretfNwhO8STf/qP+PYnTy52kSRJkjYOg2WpSjTPmRONqV3Wtui53XbRMHjwig8kVQXaRe82fFi0zJ8XTa++WuxaHdIDB6mx3LNHKsPatLEcNIXRv38Kp1vTw/sMllX7VtZWPnP/aGjw9FuSJEm1wTNbqQq0Ll4cy8e9uKJ95bFjo9vIEcVPJFULHlpHG8tonjWrsGFvmAdv1vXpk15ro3Xp0tQcBg8O7TZ8+FrVWE7zIbWxTFMY1Fi2KQzVtqtvfzbGTZwZ24wZGu88ea9iV0mStDpTpkyJ119/PZYvX17ssmE1NTXFq6++GrNnz47m5uZiV0ml6toKin9LqlCNkyfHnIsujrm//30MOPnkGP6v/xo9th6bPmtpaYmFCxdG//79o6GhIXWrdhy0ly5dGr17945u3boVu1Y3ToZYVj0I5mqkTCwjUKZaWfcWL16c2g9m3VurdoQ7MffKK+ONb/5v1PfpE5t99SsrQlpq/67HQ/GyZcuitbUt+hbG2Vb4r1x1vXrFguuvj7l/+GMKhDf/9rei9557Rt0aLvPWJUti4Z13xuuf+nT03GabGPWVL0efffctfrp6ra2taXvi9KXPWgbmlYJ9AxculIl1rxZQJta97t27p9f62J42NNa9RYsWpfWunP34qR+9NKa8MT+++q/Hx1uP2qXYtTJQpgULFkS/fv1q5tjEOQTrXs+ePdO6VwvyOUTenmrBimNTa02VifMiysR+vH5tftlTQVhOrH8Di01YqbKxrObOnZveOe7y4jx98ODB6b2r3njjjXSs4/qyq9j3sv6XM56uuO+++9Iwd9xxxxhQrJiwIXFt8OCDD8bo0aNjq622il6F82JJb2awLFWBpU8+GdO+9OVYPm5cjLzgghh42lujYdCg9JnBcnXIF4WcGBksV671HSwvuPnmmPWjH8eyl16KHmNGR12v9TOeUpzkY40vcgvfa549O5qmTo1eu+wSY375y+ixxeZrXGuZNpWXPPRQTP7Qh6Pb0KGx+be+FX0PPqj46epRHrYng+XKZrC8wmXXPRYXXn5P7LnjZnHZN95e7Fo5KJPBcuXL5xC1FMIaLFcHg+XqQs3exx57LO3X+/btm7qxPm677bYpGO1qKHrHHXfElltuGdtvv32xy6px/jJr1qy0nxo1alSx67rxUOGckWuN7bbbrqyge11ZsmRJPProo7H55pvHmDFj0rFF0pvZFIZUBZrnzo1lzz6bgpw+e+65MlSWVF0IUrsRyhIkvj4tGidMiOXjx6/XV9PEienV0Wdder38crTMmZNqVdf36rmijeW1CAnruhfbWC7gQYY2haFatWRZU1x6zaPp7/ev5QP7JEnqiiFDhsTBBx8cZ5xxRpx66qkpHH7qqadixowZxT5Wb4899khBalfNmzcvpk2blmpLS9r0WGNZqnC0q8zP56d/5avRs3BiMPbKK6LbyJHFT62xXC2ssVwd1neNZdopbhw/PjVvk5rA2AAai7V7e/XqvUZNYazU3BINw4ZGvyOOKHZYc40TJ8b4U06NtsL+bcwvfxH9jzmm+MnqWWO5OlCmTb3G8o9/c39c9KeH49C9x8ZPvnBGsWtlscZydbDGcnWwxrI2NmosTyycYxEKb7311qkb5xZ/+tOfUli8ww47pH0JIfOzzz678jhNvwTQeb299dZbY+zYsal/rjNpjmKbbbZJtZI5ZlDzeYsttkjfYb1/4okn0rj5Ps1uUEOamsuvvPJKvPbaa+kch89oSoLvcO3QHt8fXzhHZhx8Tu1gpvmRRx5Jx6dcY5ltjGnP7S6zbjI++gdlmjBhQmoXOUddO+20U6qxzXGB8vB9QnA+Z7iUP08TNZSffvrpNB2Uk+Mj07/ZZptZY1nqhMGytIE1z5oZjZMmR133HtF7j92LXTu3/KWXYvZFF8f8666PAaecHKP++4vRUHJyx8mBwXLlM1iuDus7WC6cwaamIHgVRlDsuH4tLZwgcxLer38/Rr/mCl+mXWXaXF5bzdOnxysnnBjNM2fGlhf9MrUd31WUxWC58lGmfMHKa1MLlmfMWRQnfvjiwnfa4uKvnBP77jq6+ElloUwGy5XPYLk6GCzXnuVLmmPR3GVR320dHMPWRepSGAbncoNG9SmsY/84TYStBKoEoDlopRttBO+zzz4pLKb9ZIJTQl6OZ5z7ErLyN0EurrnmmhQA77bbbumzG2+8MbVxTFjMvpVgmtd+++2XmtwgyJ1Kk2mFc0QCaLpNL5zrcXxhuFynsm/mmmHYsGFvOt5w7sM4nnvuufS94Tx/pIB+R44cGQ8//HDaRxByM27Cah6kN2LEiNQ/f/PafffdY+jQoWk4hMN8l+uTxsbGtP4SeHPNzPyhzATNTBMPB+Qzysp+9oEHHkjjYVi8z5kzJ8aNGxd77rlnmmd0k/RmNoUhbUiFA+eCm26OGd/9bsz73e+iedasFWcHq9A4+bVYVjiY1ffrG3322TfqindTJVWhurq0DdcXToR5gN+GeNUVTubTq3fHn3f5VZjmdREqJ4UTfYaH1uINCqmWXHL1IylUPuHQHSo2VJYkrVpLU2ssmL0sXn9xXrz+0lq+Xu6gWzmvwjRMnzA/lixoTAFzR7iJS6hK+ErAShMYkydPTjVyCXQJWQlhQTfCVQJbbobQlAU3uUEg2/7mCEEr/RPoEtqCJjDol+CWB+vRTw58uSHBtBAsU4OaNpv5rH1lFG7GUKuZ7jkQ50W/yPUgmR6mn7LxGbWU83AJeyknw2Kc3BDhhim1qiknwTHzhlrIBOKE5oyDz/guwXaeXj6nfATkfH9dtxkt1SKDZWkDop3SRXfeFfOvvS4W/vWvsfjuv0VbS0vx0441TnkttXFaXzjg9957L4NlSeVhH7Oa/cwGV1effnlR161btC5aFG3NzcUPpOo3Ycqc+N1NT6W/z7NtZUmqXlQKbotYvrQ5GtOrZe1ey9b8tXxZczQ1Fs7nVpHgEJ5SC5fAlxrDvBOw0hQE7/Pnz0/hKc065FrDfIdgmOCWGsbtEezyGQFr/vURIXAOjwlz84savxk1jxkHgTWhL+Et38/DyBj+zJkzU1hMOJ217w8E35SBQDkH3wTXlIdh8DmfUduZJkGojUz/Gb8q4N9MK/OHkD3/Yox5xa+SCNlLHxJIOWm3uqPpkbSCwbK0ATVOfT39BL5h8OBUS2/BzTdHW+GAvCpNr02J5jfeSA/s67njDumn6JJUzerq66KhcPHA/iwFy9ZaVg2htjLOPm732HHrFT/plSRVH7LEXn27xRY7DIrNt+c1cM1fO6zda4sdB8WIsQOiW/fOIxwCU0JRmr045phj4sgjj0xNPORmtgh+6ad900eEtDQ3kWssdyQHuSCIZTirQrBM8xl8j6Y3qD1NjeGOvkcYTn+l42iP7zH97cNp/qY8DINXbvuZvx977LHUnjKhcUZ4TLvNfEYTIQTSeX7wHULp9vjcYFnqnMGytAE1T5+WQpRUS2/x4ljyxBPRNH168dN/tPzFF6PptcnRrXBg7rXLLul7klT1uHigVgrBcmFfaHMYqhVPvzgtbrj7hfT3eWful94lSdWpd/8eMWpbAt2Ba//aau1fIwvD4VXfsOqQs7TmcCnCY2ob5+ekZASqNDOxps95aB/2ZoMGDUrtML/lLW9JNZIfffTR1L5xezRHQe3n1QXbTD/jKe2PstL0Be0752CaGsYHHnhgHH/88am8L730UhovATFNgpx88snpddJJJ8Vpp50WhxxySOqep6M0/CZEpxvvkjpmsCxtQITILQTLhQNcXeHAR23lhbfcGi1z5hb7eLNlL74Uja9NiW4jRkbvPfcsdpWkKlfY/3UrXGysuMm2JNoKFwRSLbjkmhW1lf/p9H1ji5Gb5sOuJKmWkJdW2mtN0dQENZppmoIwFoSmud3lNX1II+EtYS/Dyghyc0BLcxW0v5wf2lmKMJjmK3jIIA/Kywi6SxHsEizT/jEPC8zjovkOmr2gpjKfMw6CchCUE27zb6aP8tG0BUEzATXjzkE1ZWD+ELrTbEdG0xm5pnVH4bkkg2Vpg2qaNi1aCgeqnttuG/2OOipaCwe++X++IVoW/L3tp1LLnn02Gl99NbqNGB6991zxlF5JqnbpZJ4HChZO4rnZZo1l1YL7npgUdz0yIfr27hEfOPuAYldJkjYMwk9C0vbhbZaDWdokpjmIe++9NzUHQWi76667FvtaEermWs+5xm4puhHW5qY1qCFMG860afzQQw/F1KlTUxj7+OOPxz333BP33XdfjB8/PjVRQc3iUoS7PICPAJgH8/3tb39L/RMeg3HkcVGjmOmknWimm+kfN25cejgfD+OjRjJtOj/88MPpM4bzxhtvpOA6h9tjx45N3ZguxsX7pEmT0rhoBmOXXXZJIffdd9+dxvFq4Vqc4aOz+Spt6gyWVbNoP+muu+6K66+/Pq6++up0kCttvB8c4G688cb4/e9/HzfddFO6O7k+f+bSVDhItcyeHT133DEGnHpq1BcOrMtffimWv/QSR6piX3/XOHFCof9ZqSkMviNJNaFwEUEby6kpjEWLo3WJwbKqX66tzAP7BvTtmf6WJGlDocYtIW0OQjtCPzvssEN6J6jlffTo0anGb8bD/mgjGdT63WOPPVa2Qwy6EeQS1BIM51rHdCOcpfYvQS79ESTzorbwtttu22EbxvS39dZbp+YymCb65/tclzNtBOF8j4oJBOOMh+kmKCfU3mabbVL/eViE3PTP3wwzf5/+mU6GSf+MixrM9AfKsd1226UHFdKd6aCJDNqp5r10Hkj6u7rCxmpjMao5uVH+22+/Pd3d5MXPfmjjifaUwN1MQmUeJAAOLAcffHB60AF3TNeHV9/xzlhYmKbh//5vMfSDH4zXP/HJWFyYzsHnnBNDzv9AqsmcFDZLaipP+Y//jKVPPhnDPnh+jPzCF1Z81g5lW7hwYSofB/FawF1pfobEQb5WDuDc6WdZcVJTK2XK7bNRplpZ9/jZHietrHu18nM3anVQw4KT7EpBDeW5v/tdzPrhj6LXrrvGsI9+NPoecnDx01WjLGxPnL7ki4hqx76BGkaUKV/cVDvKxM9RuYjjVQvbE+se5xesd+334zff+2J87sKbYuTQfnHTzz8Q9VVSXsrEz4jZP9TKsYlzCNY9zutY92pBPofI21MtyD+Jr6UycV5EmdiPE1DVApYT69+aNpGg6sZ5Sa2cD0taf6yxrJr02muvxZ///OfUYP///M//xLe//e10h5QgOT8w4Jprrkk1lD/4wQ/Gj370ozj//PNTzeb8s5t1rXXhwmgtXLzx0+/63n2i+6hRMfCMMwp/945Fd/8tGl95pdhnQeEgvuTxx1c0m7H99tFzx52KH0hSDShcpKyssUwbfMussazqVlpbuVpCZUmSVsVQWVJXGCyrJuXaX/zMJVfKpxYyNQhyG1HPPPNM+tkMP+0BP7/hZz+0DZUfYLCutBWmp3Hy5Ghdviy6jRoVDcWfJ/U7+qhoGDgwlk+cEMvGjUsP80Nba2sse/KpaJkzJ3oWpqvnDtun7pJUC3h4Kfu+FQ/vWxRttrGsKvbHW5+Jl16dFduOGRpvP8kH7UqSJGnTYbCsmkS7SIccckj8+te/jmeffTY13k97yrSPRDtMudYybSdl/JSfNpeoxczPQteptrZomjo12pYtj27Dh0W3wjSgYcDA6HvYYdFQ+PeSRx+LJY8/lrpjyZNPRvPMmdFjm22i1847F7v+o3wn2TvKlc9lVD1cVutXCpYHDEi/4KDGctuyFU8m7yqXT3Wp9eW1srbyWfun92pSi8umVte3WisX5cmvWlOr66AkSR1p+FJB8W+pZtD+IW2B3XzzzSlQvv/++9NDDE499dTUnYf48ZTYnXfeOdVaBm2i0S/tJ1LTmQb6aaePGs9r9aqvj5Zly2LRPffFkgcfjB5jRkefww+L7mPHFsbZEnX9+8XShx6K5ePGRbfNN4/eBx0Uy14ZH/OuuCLampqi/1tPjd777hutLS0dDj/Xzs5tI3bUTzW9WA68KFdut7ej/qrplcvDe76I6qi/anux3iFfQHXUT7W9cploG7Gjz6vxlfdj7CPaf7ZRXoX5y/6seeHCWPiXm6Kl8N5rv/2i9557drqfK33l7Ym/2Ue0/7waX6VlqpV1j/LwqqX9A8uJfUTpselX1z4atz/4Suyxw6j41D8f/g/fqfQXyyiXqVaOTZSJ/V4tHW8pT62dQ9RqmXjP7Su3/7zaXsjLqWLOIdq9mDawDkmSNg4f3qeaxMPsHn744VRbmYe38G/e99xzz/SAPoLlr371q3HaaafFsccem77DidMf/vCH9NnRRx8dO+64Y3ro1dqeqKSfehfGP+f7P4hFV18dvY84PAZ94APRc6+9oq2xkXY7YvrHPx6Lb74l+p9+egz57Gdi2aOPxexvfCMahg6NIZ/8RPQ7+eT0sKuOsAk3FoaTn5RbCzhJZHlwElsrDz/hQpdycfFeK2ViGSEHErUgB8u18iAhUCb2E+wjKgLrCtv49Okx/bwPRNOUKTHkE5+IwR/9SKf7uVKUhe2J91pZTrlMqJUHqFEm9hHs73IQW+0oE8db1jvKtXhpY5z5H1fGwsWN8e1PnhiH7b1Vsc/q0b5MtcBziOqQ9+OUpxbKxHlQPt6y7tXCeVEuE8uK66hKlOd3xZzjSNImqDbOTKR2Xnnllbjqqqvi8MMPj3/5l3+JT3/606kG8vXXX58e7EeNZi6keJUiVObEaV2fnNBmcvPrU6N12bJoGDos6ocMSd1QV5iW3nvvHd233DKaJr0ai268MZY/9VQKnXvuukt022yzlf12hpOqWlJr5UEtl6mWylaLZao4zNvCxeraPLyP5VNr610tlimrpXKVuuKGp1KofNAeY6oyVM5qdfnUarlqBcsnv2pBLa5vuUy1WDZJ0rpjjWXVpLvuuiu1r/zLX/5yZS2I5557Lu65554YM2ZMnHLKKfHxj388jjjiiHjb296WPuehfl//+tdjr732St0JotcVaiy/+o53xtKnn46Rn/98DD3/A1FXEl4vK0zbjG9/JxY/9FD03HbbqOvePZY+80yM/OxnYlBh+njIVWeoRUCN7AEDBtRMLRZqGi1dujQ9bLFWau+xflHbiFphtVImlhG4EVMrNRJpf50aOtx8qhX88oJ1r1+/fsUulWP8SSfH4gceiFEXXBAjPvPpYtdVoyzcFOS9VpYT+/Fc0439Xi2gTMuWLUv7vFqpScY6R3NZrHez5y+Lkz58cbQWltklXzs39tl5i2Jf1YV1jpvq7B9q5djEusfxiYoCtfKrBs4hKBflqaUy1eJ5UT421covudiPc8zlOkOSpI5YY1k1iQtzwtbJkycXu0RMnTo1Jk2alIJlECBTe/nJJ59M/544cWKMGzduZfvK6xIXbk2vv55+5t1txPA3hcroteuu0WuXnVObysvHj49lL76YHmbVc7vtVhkql/IeUeVzGUlvVt+/f9of8muOcrgtVZdaXF48sI9Q+aTDdqzaUBm1uGzcP1SHvJxcByVJqm4Gy6pJ2267bZx55pmpxvIFF1wQn/3sZ9PD+vbff//0wD6cfvrpMXTo0LjkkkviYx/7WPzsZz+LM844I7bbbrv0+TpTOLlsmjo12mjvb/jwqO+k1mCv3XZPATOBcrS2Rs/CdNK/pA3Pi8INo6GwP6wnWKaWV7EGvFTpxr82J6666an093ln7Z/eJZXPY211cDlJklbFYFk1aciQIXHcccelh/Adcsgh6XX88cfHYYcdtvInhMOHD48jjzwyTj755DjqqKPihBNOSP0MHjw4fb6uUBOv8bXXUsDcffMtUpDSkd777B199tsvWhYsSDWX++y1V5drK0tSNaKd5bqePaNt2dJoXbyo2FWqbL+67rH0fu4Je8T2W63bXzhJkqQ3o7mwp556Kv7v//4vfv7zn6dfJdM8UEeq7UYIzedQtvvvvz/eeOONYtcNiyaxHnvssdRsKPNaKpfBsmoSbQ3TnMWxxx4bp556aqqdfOihh8aIESOKfayw9dZbx4knnhjnnntunHTSSek767pNNGogN02Zkh7A133zzTqtsdx91Kjoe+AB0XvvvaLXzjtH30MOjnqDZUk1rH5AbgpjebQuXlLsKlWuZ15+I26658X093ln7pfeJUmqJPPmzYsnnngibr/99rj55pvjjjvuiBdeeCE9J2BD4jkfvNY27H355ZfTr4+nFK6pae6S5/FkBMyzZs1KwShtt3MtzztlrYaQmWCZZcP0z5w5s9h1w2KePvvss/Hwww8bLGuNGCxL61lr4cBGUxgraix3Hiyj9957x4hPfjKGnPf+6HPwwZ3WbpakWlDfb0WwzA241g18sSOtiStvfDq9v//M/WKz4T7MSpJUWWbPnp1qnv7+97+P3/72t/Gb3/wmvQhmCWA3pOeffz5eeeWVta64RejKtH/mM5+JT33qU7HNNtusfHA4ITOB80033ZQewg2eo0Qt4GqpvcxDjnng7MZ6GDoPUGUaevXqVTMPHtWGZbAsrWcEJo2vTUntJncbtepgmTaVB5x0Ugw666xUgznq3UQl1a6G/v1SUxipjeWFC4tdpcp03xOT4v6nXou+vXvEeWfatrIkqfL86le/ir/85S+xzz77xI9+9KO4/PLL45vf/GZq9jE3+UjgSk1fQlle/F0awvJvatKW4t+l/eVh5FdHw7n33nvjkUceSbVg2w+vVB52np72/dJUA8MYMGDAP3xGIMozks4qXD/3K15nU/uW2tpLC+eXDC9rX+7SYa2qPKXd+E5pGfl3Hl7+Tmfaj790OO2VDpfvtC93+/GWft5+PHzWflz5c+R3aU3VFVawztdmSWtt2bgX4/VPfjKWvfRSbPa1r8bAU05ZZbhcLg4K/Hylf//+G+0u57rGwY0Tgd69e6c7qLWAn2SxrDj5qZUysYxAmWpl3aOmA3fqWfdq5Y49P0HkhDKfbFeSuVdcGbN+9rNoGDY0hn/849H/2GOLn3SOsrA9cfrSp0+fYtfqxr6BCybKxLpXCyjTsmXL0nMNeNXC9nTeF/4Qj78wNT72zoPjg+ccWOxa3dieFixYkPYPtXJs4hyCdY/aX/m5GtUun0Pk7akWsIxY/2qpTJwXUSb24zTLVwtYTqx/A22er+JxDkFTBn/4wx9iv/32i3e84x3FT1Z8xov1kndq9BJA884+84ADDkgPsd9ss81S/9///vdjiy22SM8fYtmzXtMG8Lhx4+LAAw+MXXfdNTW18de//jUdP2bMmJFem2++ebz1rW+NPfbYI6677rq4+uqr07k13UeNGpVqHLc/1jDsW2+9NTXXMX369NQ0Jc9FOvvss9O0/vGPf4zrr78+hcs8hJ9x04xlPl9iHSVIZnwM/7nnnks1tCdOnJhqNlML95OFa3GaxHz66afjmmuuSeXmGPHOd74zlZ1poIbz3XffHX379k1tHVOe3XbbLT2L6c4774xp06bF3LlzU/OaPKOJZzqBmuEPPfRQasaCcfGdjxfOadvvAyjLiy++GFdddVVq2oPzIsb9r//6r2ma+P7hhx+eysi+hCZMmL+Um/l3zDHHpGdIobGxMQ2H5c385VqMZ0udcsopaXlQPmpwE+qDz/guz5gCw7zooovipZdeSstjq622ipEjR6Zhvf/976+Zc1FtOA1fKij+LWk9oBmMORdfGm2FA8DQwo6657bbFj9ZNzhIcXDh4FgrJ7Ec3DnJ4UKjVsrEBSHLigC2VsqU727XUpkI9zjRY92rlWA5B5acdFaaxomvxpLHHmOjj9577hG9dtqp+EnnKAvbE2oljKBM7PdQS2ViH8H+gVe1b0833ftiXPHnx2PEkD7xnU+dUjP7PJYToRH7h1o7h+BiuVZuepaeQ9RKmVhGtVqmWjqHoEysfwRmm6J506fF+McejrnTX4/Zr02O2VM23mvO1Mkxc9KrMWPShBi8+RZR38F2Q5jI/pzwlyA3Y33M6+SkSZPikksuiR133DGFjfvvv39qSoKQku+xPd5yyy3p5j39EDKyXhOG8tC8MWPGpNCZkJlQ9YgjjkiBKMMhEL3tttviLW95SwqpCWsJRd/znvfEnnvu+Q/PMyIUph+mmwCXZyMNGjQoBZ6En2PHjk2hJ81psF196EMfih122CH1k49ZnOdOLVxvE3QTSBMmU0YqVpx//vmx7777pmE888wzKRyn1jOhNcMmvKVyVv6cIJznLlEeyjl+/Pj429/+lsJkhk1/r776amqWg4CbQJvwls8J1AmV8/xpvw8gqP7hD3+YQnfGwbxm/jJPmJdM77bbbpum74EHHkghN2E/4T7DYlo4XjPdBPHMH+Y5NdEZJuNkmRN+E9IThDPf99prrzQshkHNbm4mE8JTMY3pIHQmUGbe8H36r5VzUW04tXEGKVWwlvkLomXRwqgvnJA1DFnx8yNJUuEkhKYwChdArdRcW7SiXTypEl169YpaP+8+Zc/0LkmqfU3Ll8XUcc/HA7+/Mh7802836uu+wjQ89pdrY87U19JD4TtCjV9q0ubatB2hNivBK4EwwSQvAk6CStpEBsEiAXNpOMq/uWGXA10+49+EmoSsvAguX3/99TQswl9qOxNW7r777rH99tv/Q9hKfw8++GAKYw866KDYZZddUijNcAibCY0ZBuErzXjstNNOqd/2N6MYLt24scg0UTuZ7+29995pmHxOcEqoeuaZZ6ZpZjwE5oTlPOyQ71NRiwCc+UG4TC1e5ik1i/O00R81j8H0MS8J4Zk25iVNkLQvJ6ExD+hj+uiH4fFinuWKBWDaCYSffPLJNA8OPvjgNN5jjz02zU8CZRAEE1RTO5lhUEOd8fN9vks728xPysL4CNtZLgTwBMp33XVXHHLIIXHkkUemGtKMg2ExP6Q1YbAsrUfUUm6eOTPqCgfgbiOGR33hYCVJWqGhf/+o69kj2pYuixYf3qcK9Ydbn4mXJs2K7bcaFme+ZediV0lSrUsBYVtbLF20ML2WbczXwgXRuGTJP4SWpahdzued/QKFIHfOnDkpeKWGa7blllum2riEn12Rf21ArWRC34xglhq3i4rndPkXJJ0hIKUmLuFnbt6MpigISydMmJB+lQvKVRrAdibPG8ZJ//n7ILAlJCZcJczmgYAEw4TNNEPBtFOe3OwL5aNshMu5G+iemwMk5Ga+UXOZ0Jeaxx2Vl/lBOQm0S+dXeyw3lg/TSqiclyPfoaYyw6BcBMYEwZSB5jKo4Z0RlFOjmnFSC50XNZ0ZLuWnljihNMPIGD7hssGy1pTBsrQetRQOVM3Tp3H7MboXDjx1/qxEklaqH9A/6nv0jNZlS6O1cHEhVaJLirWV33/GfuldkrRpoHLQ0DFbxSHnvicOPvudcdBGfB3y9vfG3ie+NfoMHNxpuEytXmqkEpZ2hKCV4JPwNjcrBsJSaikTOqKj4ecmeTJCT5rJKA18+XxVwXd7Ofxt33wMw+bfqwqly5VrGl922WWpDWbeCV+ZF4yPF+FyLg9loVv7puTonucDgex5552XQt4bb7wxrrjiihTkls5b5HIy/FXJZSbwbj9epgV8Ru1vmt5geH/6059Se8u0LQ2GQXMdeXp4UROd8hPe833+5pV1VE6pHAbL0nrUMn9+NE2bFnUcrLcYnX7yLUlaoaH/gBU1lmkKo3AhJFUaQuVpMxfE3jtvHicetkOxqyRpUzB09Jax7ymnx57HnVh4nbRxX8eeGHudcErsfeKp0a1HxwElTTjQXjIPrusIwSLtZdNUQmkgTM1hAulcmzaHmKUhK58Teq4uOM6hK1bXL4EytYFpF5jAM2N6CDpXF8R2hvG2Hzf/pj3hCy+8MLV1zOvnP/95vPvd707tQHdUttIQuTPMs/e+973xzW9+M7Xn/Itf/CLNq1K5nNQaLi1ne4yL5UNQTa3j0mVELWnmR54n1JSmzemvfe1rabn/7Gc/SzXSCcppZoMHGeZy/vSnP03/pg3oPG9oniMj9CZkb19+qasMlqX1qHXBgmiaPj3qunWLHqMNliWpVGoKgxrLS5dZY1kVZ9GS5XHJNStqK5935v7pXZKkSkQoSLvJ1ET9y1/+ktrRzahBS1hL6EiISsD59NNPFz+NVKOVh/PRJAWo+UzQSH8g8KT5iNwWcVcRDhNatg9as9wOMg/Ry+OiDWgemMe0EMiuCdoaZpoJrDOa16BGNg+2ywhXmb7VhcedYfh8H9TepnkRwuD2NZZpHoRQl4fy0VRFxvSUhrmE2zTHwUP8brjhhtSEBaiNTHMbefnQlEUOqFlWPNCQ5cu00MQFnzFPS+XmO3hYIf0zH3INdeY5y9dgWWuq4UsFxb8lrWPLX3opFtxya7QWDswDTz8tevLQgnUcLnMg5CDC3ct8d7nacUDmwMrJRK2UKf98jJOxWikTywi1VCZOxDipav+TvGpGmVj3KvEnbnWF/daCW26OpU8+GT0LJ9ED33pq8ZPOUZZ8wr6mFxyVhjLlWim1VCb2EewfeFXj9vSzqx6Kh555LQ7fd+v4l7cflMrE8baWjk2UiQtX9g+1dg5BsFBOAFLJSs8haqVMLKNaLVMtnUNQJtY/alGq8rHu0X4ygSFB4S233JICRNrhZd0ktBw6dGgKQe++++702Z133plCRx5WRyjJuksQ+sorr8Q999yT2g1+/PHH0z6V/SsPleOBfLSBzIPijjnmmDQ8EFDed999cdRRR6WHzYHAmpCU9oGp0Vt6rOH6lenhe4yLMJx2g6lZzUP2qA3M9BA0EzyfcMIJxW/+HesotbT5HuMlPOc7hK+M94knnkihLs1HcAznIX6U+fbbb09/M37aUaaW9zPPPBPHHXdcOiZSVgJdms+g2YmM6aTG94knnpge3Hf55Zen9pXpThMUe+21Vyon8ytjH0eZGD9NZdA/855ppP+nnnoqNV+S27om/GX+stxYTtwEYNmddtppadkw32kCgwcc3nvvvanfww47LD2Ij7Iw7Uz3bbfdlsbDCyw3vs/DHVlODJv1hAf70Y11hAcB1sq5qDYcg2VpPVpaODgt+PMNqX2uwe9+d3TfYovULMa6xAHAYLnyGSxXB4PlDW9h4aR3aeGChWB5UOEiYnUoi8Fy5aNM7CNyaFRt29P0WQvjk9++If395Y8dH5sN75/KZLDcsf+76oH44H//KdoK/+2/25hi140jn0MYLFc2llGtlqmWziEok8FydSFYHD58eLo2ZLkRGBI2E6zyTvBKzVrODwmEqfFKuHnQQQetPFfkO6zH/JsgkvCVwJHgc/To0Sn45JhBd4abQ1TWe4a30047pXHzN+NgG2e66F66bfA3zT7kEJrv8JA6gllC0twv3ydw3WabbdK/S9EP48/TwnQzfQyT7ZHuNBVBOZgePmd4fE5Yy3coL92YbwTneZ/EcAlj6ScrnRa2jdxOM7Wvt9566xTwMp72WB7UFucYxd+E5sxPvsO8ZDx8zrCYNobH8Pk3NZiprUy/YNlxPsL8onwM58gjj0zzkvlBefibcTEsysUwWP6Mm3fGyd/MF+YPy5dlxPLN5Ze6qq6wsa1ZvX9JqzX3yivj9c99ProXDlrbXHdtdCu8r2sccPh5EQfQWjkIcBLLnXNORErv9lYzLtxZVpyg1UqZ8k+qKFOtrHv8jIwTMta9fDJb7fiZHyeWnGBWotc/97mYfdHF0f+442KrK3692ptvlIXtidOX/ATxase+Id8AyLV+qh1losYUF3DVGLJ84xd/jd/f8nScdPiO8T//cVLqxrrHBSTrXa3sxykTtaTYP6xNmQiWf/77h+LDbzswPvL2g4tdNw7OIVj3uGBm3asF+Rwib0+1gGXE+ldLZeK8iDKxH6+Vm08sJ9Y/Qi5pVTiHWR/H+nKH21n/62L61lcZS63tODbENErt1cYRT6pQLfPmR2vhhKy+b99oGDq02FWSlDX061949Yu2pqZonT+fM+LiJ9LG8fLkWSlUhm0rS5K0eusrzCx3uJ31vy6mb0MEtms7jg0xjVJ7BsvSetIyd240z5qVQuXuo0cXu0qSStX17RN1vXunYLllwYJiV2njueTqR9P7207YI7bfasUT8iVJkiT9I4NlaT0hVG6eMzvq+/SJ7mNGc/uw+IkkKavv1bvw6hVty5en/ab7Sm1Mjz8/NW66Z1yq8XPeWdZWliRJklbFYFlaT1oXLy68lkQ9beoOGWpYIkkd6LnddtFj7NhY/vLLMeeSS6PpjTeKn0gb3qXXrqitfN6Z+8WoYf3T35IkSZI6ZrAsrSdtjY3R1tTIo2OjvkYexiRJ61qfffeJ/iccH92GDImFt92WHuTXPGNG8VNpw/nboxPinscmRv++Pa2tLEmSJHWBwbK0ntBeaFtTc2Erq4+6GnnatSStaw1DhsTA006LQW87N+r69Ik5l14a86+7Lppnzy72IW0Yl1yTayvvH31790h/S5IkSepcXVtB8W9J69Ciu+6KmT/9aTRNmhzDPvqRGPzud0ddt27FT9edlpaWWLhwYfTv3z8aGhqKXatbc3NzLF26NHr37h3d1sM82xiWL1+ellUPmkapkTKxjECZamXdW7x4cWpblXWvVp6qvGTJkmhtbY1+/foVu1SmpunTY+b3LowFN92UbsyN/NznYtC73pmaEypFWdieOH3p06dPsWt1Y9/QxM3IQplY92oBZVq2bFl07949vSp9e/rL38bFBT+4OTYbPiBu+tl5xa5vxrq3aNGitN7Vyn6cMi1YsCDtH9amTOd/8Y/x6HNTYr9dR8dFXzmn2LV8x33yvuJfkrLbvnto8a8Nj/04x9yBAwcWu0iS9GbWWJbWk7bGpghqLDc0RF2PnraxLEmr0H3UqBj5mU9Hn333jbr6+pj5k5/E3MsuL34qrV+XXPNIeqdtZUmSJEldY7AsrSdtzTSF0ZQCkrqe/qRWklanYdiwGPXlL0XvvfeKlrlzY+5VV8Wcy39d/FRaP35/89PxyuTZsf1Ww+LcE/YodpUkSZK0OgbL0nqS2lhuLraxTI1lSdJq9dhqqxj+n/8ZfQ88MBrHj495v/99LLjhhuKnhX2rLXhpHWJ1Wllb2Qf2SZJUcRobG+Oxxx6L733ve/GDH/wgJk6cmJrc6ojnidKGZ7AsrSc8uC/XWK7v2SNsCEOSuqbPfvvFkPe/P3rvu28se+65mH3xJbGkcEFBClhXI+15qzIQKk+ftTD22XmLOOmwHYtdJUmqXnPmzImHHnoorr/++rj66qvjhhtuiKeffjq1qb8h8VwCnl+ytmHvuHHj4sEHH0zPFeK5LqXPbSBgfuONN+L+++9PbYLzGe+UlecISFr/DJal9WRljWUOfj1tY1mSytH/2GNi2Ic+GD222SaWFi6GZv/8F7HshXGGy1pnFixatrK28gfOtrayJKn6EbLefffdcd1118Vf/vKX9CJYfvTRR2Pu3LnFvjaM559/Pl5++eU3BcFr4sknn4zZs2fHJz/5yfj4xz8eY8eOXfngcB76nsucHyw+efLk9B1JG4bBsrSeECwHL5vCkKQ10u+YY2LkBRdEw6BBsfC222Lulb+J5S+9lG7Y1RRvPG4Ul177WCxe0hhH7rdNHLr32GJXSZKq12WXXRa3Fc6Z9t9//9RsxEUXXRTf+MY34oQTTojBgwenfqjJu3z58hTE8qKpidJaxfy7iUpSJd2oGUy3XAuYf9MfL4ZFLWHeS2sJ33PPPfHwww+vHEdnCIf5Pv3xznhKzZs3Lw27Z8+e//BZjx49Yuutt47TTjst+vbtm7o988wzcccdd6Qazgwvl4NpzuWme2lzGh2Vh78pT2m39vOFf9M9D3NV5Syd77nf9sPi8/xeOg2lmF95OLyXloPv8p08T3m170da1+oKK/Lf12RJ68zsiy+OWT/7eXQbOiQ2/8b/RO+99kwh87rGQYKDZv/+/Vfeua12HAg5UPbu3Tu6detW7Frd8gGdk59aKRPLCJSpVtY9fq5HrQrWvbWtXVEplixZkk5I+/XrV+xSXVoL07/ob3+L1z/9mWhZsCCGfPCD0f+974mGzTeP3t27F/uqblwuNLa2RFtrW/Sukf0D+zsuZroXlhGvStueXp+xIE7+yCXp78u+8fbYc8fN0t+rwnbEz3r79OlTM/txysTPhdk/rE2Zzv/iH+PR56bEfruOjou+ck6xa/mO++R9xb8kZbd999DiXxteDqUGDhxY7KJKRazzwAMPpKYvDjzwwDj33HOLn6z4jFd94VqU/T41ei+55JJ47bXX0nUX/Z9xxhkxevTo1P+3v/3tGDNmTJx00klp2fOde++9N9VAPuSQQ2K33XZLbR4TYA8YMCBmzJiRXptttlkKePfee++45ppr0otz61GjRqXX5z//+X841nC+cPPNN8ftt98e06dPj+HDh8dhhx0W55xzTjp3uOqqq1KN6/nz58eOO+6Yxv22t70tHYvBOkozH4zrggsuSKHyb37zm3j11Vdjq622Suf0n/nMZ2LEiBHxxBNPpPlDuQmp3/Wud8VBBx2U5g2f/fWvf03X1NSApjy77rprHHXUUXHXXXfF66+/nmp8M22nnHJKDBs2LH3vt7/9bWp2ZNasWWmYu+++e/z7v/97mtelmIcvvPBCKg9tRNPvnnvuGe973/vSPKSsV155Zappvccee6R+KTPD46YA4XnGvOJFOVhOTM/hhx+ePvvd736XpoX5zfrANHKdxvxkOUvrg8GytJ7M/tnPY9bPfx7dCgfYLb7z7ei1004Gy11ksFwdDJarQ7UHy2hdtCjm/uEPMfMHP4zWwjLq/453xOCPfzT6jRxV7GPtEFwveeTRwrAXFfbTG3ZdZjVrbW0rvKhJUpe2Jda8zk7O2hobo+cO28eAwsVet6FDi10rT6UHy1/7+R3xx1ufiVOO2Dm+/u8nFLuuGtuRwXLHDJal9cdgeeNpnrU0lk+YH9F9HV3Dre2hsHC+wKvPXiOirtubp4lY5xe/+EU6lz322GNTONkRQk1qMRP+EtSC0Jgw8rOf/Ww6r//yl7+cQlnC5kGDBqVjxZ133pkC3COPPDL22WefFMJeeOGF8aEPfSh2KlznEqQ+8sgjqYYywTTrzte//vV0Tv2Ownkbw91yyy3fdD5AP0899VQKe48//v+zdx5wUlVnG3+mb+/Lwi69d0VpKgoWQOyIJdXYYhJbjJr4GUsUjaZpjDXWaKJJFBVLbKCiiCKKICK9w8Kyve9On+8+Z+7FYZmFLTO7M8P753e4d88999zz3nruM+99zwwMHDgQGzduVHlsG4Vtvhc+8MADSuilYMv6KBIbwi3fRygKv/TSS7jtttuQk5Oj9gMF2muuuUYJuIMGDcKKFStUnOakpCQlDpeXl6twIWeeeSaOO+44JW4/9thj+NWvfqVE3N27d2Ox1j+keEshm22n8M2QIgUFBcom7o933nkHEydOVOsYcZ0pGLfs95SUlOAPf/iDEqpHjBihRGOK4BSxb7zxRtXOBx98UInU3//+95WATtspkjP0x+zZs1X/g+I+xeljjjlG1cM6ePxoK9tIcZqCMtc/9dRT1Xnx3nvvqb4YfxTgOoIQaSx3aOjzgiBEkEbtwdWkPVyt2dnIOOMMWLWHnFIQIgwfFvzchQ+jlr+Mxit8IPNBygdgothEkYXHiqJRotjEY0QSySZ+PsaOYCwKYR2FNvHcY4c+XjFpbXfQU0O717nWrYNTSzw+aRMmdC7esrZfnFoHvVx7YWn44EM0ay8hzm+/hVPrpHdVauZU26ZrzRqV9uW1ltashb++HraePeHQXpRiFZ5zvEfw/qDE8hi6njZuL8edj72v5v/wq1nIyQx6PR0K43mbSM8m2kTRiPeHztj0xqK12FNeh8IeGTjrxJF6bvv514Jd+pwQyitzJ+G0yQV4bUmJnhPbPHvzUbhq9kBcNLMvhvROw6KVFfqS2IFi7YTh2XhnWameE7twP3YXvI+zD0sx7nDEV+tG85pKNC4vhXt7HdzbajuXtnY8uTbXwLOnAeYUGxz9M7T+z4H3bIqc9FSlpy29YFvCez7FUIaouPTSS5XgSpGUTkqMhUwvXHodcyA8CsoUd3nsuR69nCnGUnBmGXoEU6z98Y9/rOqhoMsfX+ndS/GUP0ZQZGY+PW5ZX8u+AOMmU/SkUDx9+nRVb2FhoRJomX/yySer8Bbfav0k9mfPPfdc9UNoaD08RynOcoA/CsYsT/GcQjk9krl9QvGazhY/+tGPUFRUpERYtpVCNbfLOridiy++WHlucz9u3boVa7S+2c9//nP1N9ehpzZFZwrsFJrpOUwR98gjj1T7MlT0NuB+odDNdtGje/DgwWobtImCNoVp7i/udwrlF154ofJEZtvZLtpCu/n3m2++qby6KRqzTdyvtJ2wXgrPPJ5HH320+gGA4U9YJ48XjyWPlSBEmsToFQtCLEIxR0vaGzXMDomxLAiC0BkYZzlbe0HImH0OTPxS478voubll+HXPec7gkt7Yah89jk0fLwYFq3jnTLuSKSMPxopRx/VpSlZ6/gnadtmCrc8mLR2aeXMaalKYG5c/IluhdBenpm/XE0vnHUEBvWJXa/veKG+0YVvN+/V/4pfKDQyPXjtgV5+YwZmqGVzLxVPr0PBfVSUl6y8z5luf2advkQQ4hBDv/QFEPD6gQ4mrtvZpOrR2nEw6JxzMOgly3jFFD8pghpQ5KSQuWHDBj3n4FBo5lcuFDYN4ZbQ0Ylf0dJrmrA9/GGiNViOYisFUAq8hF659ICmEMofcwnrOJRtoRjljfUJPZ7pfcwQExSU6eVLwZf7hAI3f2ClPYYgzx/FaRtFXNpkQNHY+GqT+43iO8VnCr4U7UO3aWDYOXLkSCUEG3B9Csr0Zibcr1xOodtg6NChal8XFxcrEZ0e3fT0pgj96aefKu9k2sv6DWcSHl96fxsYor7RbkGINCIsC0KUoKgc0G7+Ju3hQ287QRAEoXPY2AG/4AKkzTpVxVsu+8t9aNQ61X6tg91ePFonvva111Dz4ouwaR343MsuQ8/f/Q695s5Frzvv7Lo0904U3PE75N16K3JvvQU9w5Vh0sr1uvtupE+bBm9VFZpWrULA5dKtEdrKV2t3490lG2DWXrAunT1BzxU6w20PL4DTFfyCJV6hcGwwol/6fn8L7WNU/wzsrhDxQkgMTBYT7IWpyDilLzJO7ov0DqbOrLsvzeiHtOOKYMl0tPoVLL1TKZTS4zccFCaZKOKGCrUUUSle8gsWEu4rI4qXFC0NWIYesKH1cHm4dVvDEH+57dD1OE8Bl23tDKF10kaKr69pfT+KwIzJzO1TdOUybo/CuGEPbWFeyy/+QvdBbm6uipFMAfrjjz/GvHnzlODbst1ch3aGq4vH4mD7nW1gm1gnl7MsQ4XQ05le2AzXQU9sCuDcjyxrHE8Dbie03YIQaURYFoQoEXDrHssiLAuCIESM5FGjkPmDHyJpwgQ1sF/J7b9T8ZHbA3/0q311Pioe+zuseXnIueQSZJx5JhzDhsHevz/sAwd2XRoQnNqYtHlH6LLQNGCA1rZ+SB53JOxFRfBWVKBhyZLgc0ZoM/+Y/6WaXnLueBTkxm/c8Vjhr//8BB99sQU2a2LE2V+3o15Nf3pGfzUVBOHwxpqfgtRjCpE6oWenU1pn03gtTdTS5F4wtRLzmfFzGaZhy5Ytes7+UMRkooduqCcxPXcZPoGeroTCJIXIUJGVgrUhbh6MUAHTKNuaqEmhlWI4Qz3Q29aAbaFo3dEQLNwuk9F+QpsYouOPf/wj7rvvPpUeeughFXaC4TfCidhsd2ttJ1xGUZkxke+55x6MHz8eTz/9tGp/KAyhRQGb+z3Uo5kiMQcEDPX6pjdyqGcxw4/QDiPOOQVkDsTH+NW0gXGu7733XhXzmTZ2VowXhI4gwrIgRAk/PZa1tM9j+RAPYUEQBOHQsBNvHzsGWdf/CknDhsGnddJLtc58w4eL9BKHpvKJJ1H53HMway9XaVOnIueiH8OS8d1njt0CX1wO8vJi4Bg+HMlHjYNfe8Fr+Ohj8VpuBx8v34olK7YjI9WBy86dqOcKHeXV97/Fc69/peb7F2WraSJAcZley7OP/+5TZKHtZKQmxsCWghBvUEg9/vjjlVjLWMuM/WsIqxRtKXYy/jDjCzMcBmP+GjCUw+bNmzFhQvBLHoq9DN9AwZewHg58x/UoXrYVegBTSG3Ng5piKQcRZDxlY1s7duxQXriMOxzqddseKOQSCrkGjINM0ZbbMuA+obgbKkC3B4rCrJNwvzOERUtBm9BODujHfchwHITrMXQGhWCGISG0l7GsOTCiAeNhs40MD8L9OXnyZCxcuFDFxDbgPuaPA8QQ8wWhKxFhWRCihdfD74348yhMDvFYFgRBiAjsrGudZnoXF9x2q/LidWmd68pnnkGj1vk+FNX/fVGFwPBVVSFl0iTkX/8rmNO62XO1DYKyQdKIEUjWXsK82stdR8OAHK4882rQs/3ScycgJSn40il0jBXrdmOuPgDiTZdNQ2Za4gzs9eT/tqvp2VMOLixfPXugirvMaShGfqgwzcH3GLuZeUYs59B1GZc4NL81jFjPRgoXD5pwe6HlWmsj6zPKcsC9g9GyjUyhNhrLCWMsG2XCwW2FW8a8lu1oLb61Ub+RwrXf2O+GvUyt/WBgHBuuIwjxCj18OTgdxdq33noL11xzDa699lr8+te/xqJFi5SQOmTIEDWoHcNB3HTTTfjNb36jxMzZs2crb1jCQfMojtL7lh6xjz76qIo/TPGUIiZ/5KdYTfE51KOXIinzDGGVQje9b2+++WZVT6iXNGE84xNOOAH9+/fH3//+d9UWTile05OYQiqhCMtwD63B7XK5sV2KyIxfTK/eO+64A1Van4+DA3JAO8Ylpt033nij8jKmqE5B12h7qD20teV22RZDTObAevfffz/+7//+D7fccosKT8FB9UJjMhPWTxvPPvtsvP7668pOtovi8E9/+lM1MB+h3YwxvWfPHrXP2EbadMwxx6gfBCiYc56xmhkGg8eVZei5bMRpZpvZvlBxm7YxL9QrXBAiiUU7oe/Q5wVBiCD12oOl8csvkTR0KLLOP1/PjTx8+PEBwgcvYzAlAnwQ8gGYSCPvG3HJ2GFIFJt4jEgi2cQOF3/p57mXKL/40yaeey3jusUr7O572TFm57tvX1hzcuDiQCbffgtfXT3sffvApr38hKPpiy9Q+djf4dReIlKPOw75V/4CSVrnvLvh8TFeAAwvm9Ywact9tbVo/PQzNU2dOAm2wl4wafsjlqBNvEfw/sDU3dfT/z5eh/+8/TWKCjLx5xtO13Pbh/G8TaRnE22iJxTvD221qbKmCdfe87oatO97s47ALy48Bm8sWos95XUo7JGBs07s+DX1rwVBT66upiDbgZkTC1BR68Zz7+7EhOHZGFiYioZmL9bvbNi3vLi8GYtWBr3qJo7IxvC+6digLf9ifbXKI0b+l1oe1yUXntgbvfOTMaxPOs64eamyk9uYMjYX50wphMfrxw/uWq7yL5rZV+W9tGi3Wpdw/fysYBs4IB7LsW2nTe6p6nlnWaleMii4VtS5MOe2L/aV+/GMvhjSO+2AtrO+d78oxTV/+wavLQmKEuGgODtuSBauf2Q1/vLiZlUv6zv3hEJkptqU/azbaD9jLBvbDwf3Bbdv7F9CYZe2ZKTY9lvvgmlFquybn5WoshSaX7h1vPIsN/YZ01WzB4bdb9xWYW7yvv1ubI/t5PHmvmOdt140XLWbdcYabGt3wfs4+7AdDUkgdD15eXkqpAVFW4ZYYJiHvlp/iYPMcRmFS+bxnk/PZHrZcvA8iq5GH4RhG1iOdVBsZhkupzhK71p6PrMs8zlInOFZzCkHBaR4zXdT1s86KJxyvcGDB+/XH+A862KsYp5jLM8ybA/rMMpy2aBBg9CvXz/1dygsw21R+GYZtovbo+1cj7ayLuaxfm6Pwi/L0x5uj/ayDpYdMGCA6rcQ5rHdzDNo2Rb239h+2s2B9o499th9YStC4XPWEIe5PdY7duxY5SVubI/xmXm9nXvuuepvtodC8qhRo1RbCLfP48iQJtwOy7AttIPHjOV4vLktYx3WzzbS3tCwG4IQKURYFoQoUff2O2j+agWSRg5Hlv5wiAbGiy4fHInyoivCcnwgwnJ8kHDCsmaL8njRpjxODq0Tb9L+uTZvhnMNxeU6JI8ZA4s+qreBa8sWlD/4EJo+/1yJyXlX/BRpJ5ygL+1eaFNbhWUS0O75np274N6+XYXwoBezpYV3THdDm2JJWL75gXdRXdeM6348BSMHfTcSfnugTSIsA7/+y1tYs6UUxxzRD3/41SyVl0jCMoVGCsj8uzAvSQmukRCWXR4/5ty+TP1NkuxmJaRuLWnEtQ9+o+dCCbaDi1Lx9eZalFUHQ91wfYdWnqKyAes++eh8JYAb+40CMAVoiroGLMftUBg2yhltpDh753PrVV5rUPClgP26th/+t3Svngu1H7h9iuWhYi5F0Pom70GF6ma3T+1Pry+wb3/+4JQ+2jkIJSwbYjX50Yw+cNgs+9r5p5+P0k5cEy75wwr1twFFagr1oesa++3mJ9fs25cGhrDMY3r/VWOUqHzxvfvXGSuIsCy0FwqOFBoZfoFpjNYvovBp9DF4z6c4SsGS3r2G4GnAZzbFaYrRFGUpHlNgpohJYZbLKRhTcDVEZT5PKN6yXkPQZJ2sm9sPFYpbQrGT26LQyqkR65mwXkM8DQefXRSK2RZuj+XZJraXtjHuNNvDfAqvFFeZzzZxGfcV6+CUy9hnIWwrxdhQUZl1UEw32sJ9QbuM/UjbDe/jcFAMZhmWpdcxvapDn70Me0HmzJmjyjDRdmN/GnDfsx7aYOxb2ka479jG0HXYTtbD/UwburtPJiQeidErFoQYJOD3Kw8yk/XQIoEgCILQcbJ//CPkXHQRzCmpaPjgQ1Q++yy85eX6UsBTXIzal19Gw/vvKw/nvCuvRPqMGfrS+IMe2alTjlNhQRgOI9RW4UD++87X2LKrEsMG5GPO9DF6rtAR/vTMR/h05XYlIN91TfxeQ4di9dY6LF1TpUI6tBY6ob3UN+//CfLm3Y1qWtMQ/tNkisuhUPhsyc7SYJ7RRrY3XDljG/TMDWXRykPfOyhIk49XBQXgULh9xlRuWe+h4P5lO0f1/269vgXJWL6+RuUP7fOdMNPSptZsnP9JUMgOXZewLLcXDsbSpqhMgT1WRWVBiBeiJVa2t97WykeifdEWZCn6Go470SLaNgiHJyIsC0K0oEedzRocuE8QBEGIKlk/+D7yr/sl/C4Xql/4N2rfeEOFivA3NaHunXdQ8djfYUpORo/f/hZpU2PDU7mjWPiJ6oTxdDmCc916JZwL4fH7A9/FVp4dHJRI6BgvvrMK/34rONjTXVfPQF72/sJnonH7M+vU9EfTu89b9FC09MIlofGNjXTMqI5/+pyVFnSQaE2c7SgUkUNFabab4jXFas4TCuYsYwjgRtnWxPj2QkGZGNsLxYgDHZraK6ALgiC0B3ovGx7TghBPiLAsCFEgwLAH9Fi2irAsCILQFZiTkpAxaxZ6/PpG+BsbUf7XB1Dz0jxUPPwwKh59DOa0VBX+In3a1O4frC8C0PM6ddIkmBwONC1fDveOHfoSIZRn5n+JsqoGHD2qN2YeN1TPFdrL56t24t6nFqn5239xitqfhwP0Wqawef60Ij3nO8J5zXY1PbKDnzob3s+E7WLIjHCpM+JwpEVVwwN66hF5SkCua/Sq9s37aPc+wZne0sw3vJENDLE7Ejz62la1vZaD/9GDOZL7TxAE4VD87Gc/w/XXX6//JQjxgwjLghAFAk4nAl6vCMuCIAhdiDU/H5lnnok8rWNOT+WqZ59FzbyXEfB4kH7KdGR///uwJMigJRTH06ZNgzklBU2fL4N761Z9iWBQ2+DEM69+qeYvnT1eTYX2U1Jeh9sefk/N/+Tso3HuKaPV/OGA4bXcHo/flqEYIkU4r1qGjzAEWUJROVy5zrBxVzBONAXgljCURej22wPXYXu5vyggG0I981knxXzaFyrgG8vC2Xj17IFqarS3rVC0Zvxo1jn30hF6riAIQtfDWNHhBv4ThFhHhGVBiAIBt0uFwlDCcshACIIgCEJ0sRUWqpjLmWefBU9ZGTx79yJl8mTk/vRyWAs6NmhbLEJBOe2E42FJS4Nz/Xo1OKGwPxSVm5weTJswEMeN66/nCu3ltocWoLyqEVPHD8SvLjpezz18oOgYDgqSFDlPHJev5wQHz2Pc3mjBcAwGFFIphq7Z/p2o++T/tqtpS+9blm2Z11Yenr9V2Xn2lF77eS3TVnr6Pr9wp57Tfhj2gvuLAnKoIEwxmXm0r2UcaP7N7XL7BmwX28f12N72wnUYFoM/IBgCtSAIgiAIbUOEZUGIAgG3R4XDgHgsC4IgdDn2vn2Rc9llSJs6FWnTpiL7gvORNGqUvjRBMJlg79cP9kGDtGeOG66NG+Hdu1dfKOwuq8Nzr3+l5i+R2Mod5q6/f4Dla4rRvzAbcxN4sL6DYQir4Zhz+zIlchoxeAlDK0QDCp8UuY1tUUjl34ZXNaFHL0M2UJA1yjGNH57VqcHpaCe3z4HujDopCHNbLcNUtAeGvSBsb+jggBSPmUda1s/jcf0jq9X2jbawXQxb0hkbr33wm7ACuiAIgiAIB8cU4NCTgiBEFPeuXSi5+bdo+mo5cn74QxTcequ+JPL4fD7U19erT2cSJdg/R8Ntbm5GcnIyrFarnhvfuFwudazsdnvC2MRjRGhTopx7jY2NarRknnuJMmpyU1MT/H4/0hIgrjChLbye2H1JSUnRc8PT+OmnsGRkIGnMGD0nNuG9wePxKJt47rUZbV9UPvssKp94Eta8POT9/OfIOON0fWH3QpucTidsNptKXX09URB9ZeFqnDF1BO6+dqae2zl47jU0NKjzLlHu47Sprq5O3R9a2vTPN77C/c99wt8w8Nw9F2Ls0F76kgO5/PaXlQA9flRvPDX3PD23/VCoFARhfyiedxe8j/OZK5/nC4IgCK0hHsuCEAUYCoMeyyaL9pJmlVAYgiAI3UHqscciaXQCx4M1mZA2ZQpsPXvCuXYtmlZ23FsvkVi/rUyJyuSyc8VbuSMs/mqbEpXJ3KtnHlRUFgRBEARBEA5fRFgWhCgQcLn3xVg2SygMQRCE7oGulgnieR4WzTbH0KGw9emtBo11b9kKb8V3n5MfrhgD9n3/tCMxoHdiDNbYlezYU43bHgwO1nf5nIk4c5oMaCYIgiAIgiCER4RlQYgCfpcbAZ8XYHgAGbxPEARBiCLJRxwJW79+cBcXo2nZMj338IThGBZ8tkl7/JpxqcRW7hC3P7wAtQ1OTD92CK7+wbF6riAIgiAcfjAUzNq1a7F3714Vtqy7KCsrw+eff67/JQixhQjLghAFOJCSCoVhlcH7BEEQhOiSMnkSkkaMgGfHDjQs+kjPPTwxvJUpKufnpKp5oe1QVF61oQRD++fjrqsjE5taEARB6Bo4VsiWLVvwzTffqPTtt99i8+bNKr+7htaiGMtY3aHbLy8vR0lJiRJtowXHeuB4MBxLoDNw7B+2leMRsM7ugmMqbd0ancFhBaGziLAsCFGAwjK8EgpDEARBiD7JI0epkBi+hgY0r1oFX22tvuTw4qMvtuCzr3cgKz0Jl84er+cKbeWpV77AG4vWwmG3Yu7V05HkSIwBCgVBEA4XarXnP71r169fr8TQ4uJibNu2TYnNFJe7AwqybEsoNTU1qKysVKJttKBovWvXrk4Ly2azWQ1CzGl3DuzN7XPAdEGIRURYFoQoYAzeB46wbpdQGIIgCEIUMZvgGDwY9j59lKjc+MUXCETRCyhWeWb+cjW9ZPYEJCfJs7c9vP/5Zjz878/U/NyrZ2D4gB5qXhAEQYgvcnJyMGnSJMycOROnnnoqRo0apYTmipAxGOg97Ha7lfjK1BZPXJYx1uE0VLDlPD2TjfqYDA/l0tJS5WlL72GuR3r06IGioiIkJSWpv7kuRWajDpbjfGi9zGspRIe2iYnLje1SvN64cSMaGhrUMqO9XB7a1tB1SOhyo02twTpD9wXX5TrMM+o08piMv0O3H1qWhNZpLCctRW3aznq604taEAwsd2jo84IgRAjX+g1oWrpUDayUOnESkrQHerTgg4gPHIfDoX7JTAT4IOXD1/h1OBHgQ5/HymKxJIxNRgcpkWxiB40dN5573emVEEloE8+9RPFyoC1GJ5rHKRGgTcZLSUdtCvClpaQETu0lyqK9qKVMmgiz/sLWHdAm3iN4f2CK9vX05kfr8N93vkbvgkz86YbT9NzIQpv4vE2kZxNtWrtlL266fwG8Pj+u/N4xuPDUI/SlbYeeznvK61DYIwNnnThSz20//1qwS58TBMHgopl99bmuh/dxPnMNAVCIbRgugYJqamoqsrOzVV56ejo2bNiA3NxclXjfp2fzUu1ddc2aNcqjmcc4Ly/voM9qej2vXLkSq1evVmKx1WpFVlaWWsb4vwy9weWbNm3Cjh07lHjMuMQMxUFRm17LO3fuRJ8+fdRyLsvMzFT1fPrpp2hqalLLGb6DbaIdXMY2MnEZy/Ts2VNtk3ZQsP7yyy+xbt06tV0KsRTWaR/XYcgNtpX1cVtpaWlq2VdffaW2w3XY/8rIyNjX/6IQzTppDz2eq6ur1ba4H432Eq5Hu5YtW6bqZWL76DHO/UDhnH1vemxz39F+tp1/s+4VK1aofO47tpnv8tz/9DJnncnJyViyZImym9tlG7hs5MjgM5b7lcI5+/k8roLQnSRGr1gQWmH79u3461//imuuuUal5557Tl8S5P3338dNN92Eyy+/HLfccou6QUfiV7+A57sYy+KxLAiCIEQbxlhOmTRZeSzXf/QR/NrLzeHEM/ON2MoSAqM9uD0+/OHpT9Ds8uD0E4bjivMn6UsEQRAECoW7d+9WImgsJIqTe/bs2fdjdDgoThriJ6EYyTwKl4SCLYVVCrzTpk3D6NGjlZhKITYcfDfmNikGDxs2THlCUzSlqEmRloInBdqUlBTlIX3iiSfiqKOOUkJr//79lZhKAfrYY4/FMccco9rBHyxCbeA2aF9BQQFOPvlkHHHEEUpwpUjbr18/lTd48GBUVVUpsZjr0iaK52PGjFHLjzvuOGUrhWQKrQMHDlQ/iEycOBFTpkxRdVMkppjL/BNOOEG1iXVSmDbaQVGXIjLrmzx5shLceQ5wWajwzh+YaRfFfArahFPaQbGXcaUJQ5Bw/7Isf5zmvqfgzH1vtGv58uVKcCbcN2wnBeUJEyaoNubn5+9z6CE8HtwOBWnaKQjdjQjLQkLCBxxvxs8//7x6sMyaNQtnn322esgZ8BdA/lLJB96cOXPUw+qFF15QN+rOomIsaw8fWKww2yQWkiAIghBdTDYbHIMGwtarF3yVlXBqL4iHSziM/7z9NbYVV2H4gHycO32Mniu0BQ7Wt2lnFUYNLsBd18hgfYIgCKFQwKQoSI9XOix1Z2IbKJxSvOS7bjgofLK9fMelF/DixYvVOzG9XOlBTChgMiwFBUkKswMGDFCiMOsOB8VQeu5SAO3du7cSXQsLC5VHLUVctoUiKgVUev2yTi7nPNtDEZfzFEHpGUxatp/l6JXLMizPOlg/xWljnlOK0my/IUqzPAVyrsv2cTltI/Ta5hdTFHS5nNtgXGcm7g/Wx31ieBozcd9RKGY+E9fllG3i+i3bTYGY+84Qlin+cn9RCKboznayPdw3zKNYznooVrPtnLL93C7LE26DojXFe4ryxj4jXEb7eS6wPuoYtFEQuhsRloWEhL88fv755+pGO2PGDJx22mk45ZRT1C+aBvRW5sOAojKF59NPP109UHmjDv1FsCMEXIbHsgUm8VgWBEEQugCr9lKVMnGimm9csgRe7QUm0fF6/ftiK192btB2oW089uLnWPDZJqSl2HHnladoL7KJEf5H6BpmH98LC+87DlfPjj1vOaNtcy8doecIQueg0EdBMBZSWzBCUFEspfcrxUuKsxRAmUfxkx7I/FqXojVDOnAZ34EpIjMmM0Ne0EOaZVkHBVKWZ/gJrkuvXHo/U+ykwEnxmB7GLGOIpITiKsuEvl+3tIPLKf4aYdv4NwVbiq+GcMp1KByzPQYUbOlNzPYwcRvcnpFI6NfIFMDZZgri9LLmez//5noUbFkf9xO3bUBRmW1rLQQW28g2cR9yH1F479Wrl9pnrNMISUehm3kUilnGgMI2t8e2sRwT9yWPWeh+4vZZF/cx20zBO7SdgtCdiLAsJCR8WFBYppjMGzw/eeFDx/gFk1BE5g2bN2XCXwxHjBihPivhJzadwW+EwrBZYdIfkNGmrR0NQRAOjVxPsY0cn/DYehQgfeoJar7h00/h0Z6FiQ5DYJRXNWDC6D6YfuwQPVc4FG8vXo/HX/pczd986RT0LwrG4hQ6D8XMWBVcBaEjHM7PXIp5FAEpnHZ3omcxPYYN79lwUJSkUMkB+xhCYdy4cUpYNcIycDn/pohMQdkQlymM0kOWAivFZL47M9QF34uNdSicUnSmsMx3bbaBIimX88tftpGiNeujaEsvXGK09VDnkSHeG7DecOswj4niKttPO/iez0RhuLX1CPO5LwwhmnbSZtpBAZt2hoYRMWhNVCbUECj48qtn2kxvbXoTU1TmPqPAzWPCOlh/y7axvdw2p4YYzjKGoG7APC7nNliXcUwFIRYQYVlISCgg8xdI3uCffvpp3HvvvWrKIPmEDyI+lI1YU4Q3aj4E+PmL8SDsKPRY1p4cMFms6vPkroAPo0QgUewIhTYlql2JSiLbFu8Y11OiHaNI2GXOSEfyxOCgfc516+HWXgC7i644PjV1zfjHa0Fv5UvPjX5sZcOmzh6n7mbN5lLc9vACNX/dj6fguHHdNzCYIAixTzzf7zoLPUIpFDLMQiwkhkagN+zBhE4eL8Orl6Ec6ClLhyqKvkboBoqhjEvMREcsxk1mPF++HzMmMb/k5Ve9FKYptFIYZfgIxk9m+enTp6sYwcOHD98nxLJtRhxlCs8UqNkWQzDuyHnUch3jb4qujItMD2A6hnG7TAxvEbpvWoq4XMb3/ZNOOknZwcSvmxkuk/uE9lN0pwBswHnDmzgcDLtJcZoiPDUIHh96OPMYMPQF16dXM9fnvmf9FKINuJzr0Uu5pZgcCsuxfdzvrJ8hTli/IMQCljs09HlBSBj4C+S7776Lvn374uKLL8Z5552nbrwff/yxGnSAcCRcPgyNgPcUlvnLLH/p5CABfLgYD5a2Jr/2wPDxl8RPl8C1ahUs+doDavJkmLQOiU974PChE269jiS2l/UZdfJBaeS1LBsvie035mmH0QlJFJtoi5ESwSbaQGhPvJ97TLTB+FyNxLtNRvuZaBOvp0Q4Rsa8YRPn4/04GfOdPff89LbRXn7c2rPMt6cEJn662buIbz3wai844daJRgq1iUTrHvHYi0uxYt0eTB0/ABedeWTYMpFKhk20gecd/46GTdFOtfVNuO5Pb6GqtglnnzgCv7hg4j6beJw6as//Pl6Pkop69MxLw6nHDQ5bpi3p3x90fpyL7mbRygr8a8EufLG+Ws+B8l7+/U9HoqHZi/U7O+e8ECuM6JeOCcOzsUGzJ9TWWMBoW3F5szoe8c6F0wrCXi/RTsY9jlO+ZzAvFu95JFRMPJyhgxQdqOhlbYisFDMZPoFipDGAHL18mU9PXaMvRfGU4mZLjOX07mUdFKoJ+8zM57OD67Ict8dEYdloA9vDRGHccOqiCMtziSIvxW6+u7NuJgrVrJtlKGgbedwGw12yDr6nsz1sLz2lKcgydjLtpIjLbVGspRcz50PbTAcyehPzq2W2mXlMrIuJgjW3y3q4nBoCQ4NQMKY9LcVfir1sPx3aaPOQIcGvpyh602OZ5elpzjawLOunzdw+953hbU2vb5ahjdx/FMxD4T7kNjjYItelZzhtpKAv57/Q3YiwLCQk/AXviy++wK9//Wv1MOENnQ8v3uD5AOTNfdGiRerGP2jQILUOO02rVq1Sy/mpEX99pLDMG35bE4Vl1uP89DO4Vq+GhQ/QyZNh1m7+fv3BG6nE7RjzbDMfKKHL4zEZNhlTEro8HlOi2sRkdCYTJRk2GYQrE0+p5bnHznHo8nhMxrnHZGDYF68p1Cb+zePUUZvUM4jXpfai4VyxEr7aWti0Z5xt+HD4tRfJcOtEI7H9vJY4JeHKdDbt2luL2x/5QNV/6xXTkJeVErZcpJJxjGgXjxHp6HHqznTbw+9j1YYSjBteiHt+OX0/m8KVb2t6a/EG7K1oUMLyrClDwpZpS/rvor1q3yYaE0dkY3jfdHy5vlqE5S4gEYXlcNdLtJNx32PqzLMpmsloW7jwBYcjFEwZ0pECpyGMUkA2Bv2jYEpxlHGE+XUvBVM6VnE5y/L9tyV8j+Z6FHaNdRjqgtthXRR6KZZ+8803SuxluAwKp3Te4nb4jkpvaQ4oyO3wPdyI6UyBlGUpkoYKyxS/WTZUWGYdXI/iL4Vltot/sz3cphEGg2I112E5vv9TbGb4DoroFGGZTyF3w4YNynaK7IR1sq3G/jLqpVhPQZiiPOsId67RO5vbZx30cCfcNuvmunRmY93cNu2laG60i/Go6Q3OdtMm7le2jwJyKBTOqXFwzCi2gfWxLPUNY5uC0F2YtIsvvE+/IMQxy5Ytw/3334///Oc/6qZL+MD65JNP1APq7LPPxtVXX40zzzxTJcKOyd/+9jd1U586daqKv8xfL/mQbTMsq6Xye+5B7UsvIfnoo5F3ww1wjBqlQmNEA7abD1o+BA1b4xnekviSyw4FOyp8wMY7tInnEo8VOxSJYBMxvBPYuUkUm/jLP23iudeuaz+G4XHiOcjOfSLA64jXE21iZz0RMGwifOHo8LnH9bS6vHv2YNdFP4FbewHMu/FG5F17DQLaC05XYtzHeX9givT1dPfjH+K1D9fijKkjcMeVJ+u50YXHifcI49kUb/eIB1/4DP98YwVyM1PwzN3noahHMDamMVhRZ+7jP7tzPr5auxtHjyzC47+bree2n1k3LdPn4hd6J589pRcefW0r5n9SouItt6Su0Ys5t39n67M3H4WivO/u0UvXVOH2Z9bpfwUHo7vynIGqzhPH5Svh1GD6DZ+q6StzJyEjNSh4rNtRj2sf/EbNGzD28zGjcvS/sK99B8OwxSC03UabXl9Sgofnb1V5ZMzADNx/1XeDZZNw7THWN2hpM3nw2rH72RquHhJqO9v4/MKdqu5wdcYj7/xxkj7XtfAeZ3y2b3h8xhq8h/H9J1H6oZ2F93MKoYY3soERK5mCK5dR9KQYymcan9fse1A4DScsG7BeipvsVxL2wSjU8plID1uK2twGjwW3bQi1rJ/iKUVQLqOHMetiH4HCNN+N6InLd3QmluE5R9GYbTXyeC6yHpZnW2kDy3C7XM5zlOcsp8Z7Mb2TDdvpcUzBneuxLWwDn+tcl+1gewmXcx3uS/ZfaJ+RWDfLt4T7heXZVgr6hPuW9XA/cdsGtM3YPtvIeikMc1uENrI+46tqA5an97ThFMf9x3K0gfGxBaE7EWFZSEj4q+kTTzyhQmAw3hIfMp9++qkKhcHYUIz9dMstt6gb9vnnn68efvy85Le//S3OOussHH/88Z3qQO294w7UzJuH1OOmoOD/boK9xYMhkvBhwgcqbUgEYZnwgc6HMTsF4R7e8Qg7QzxW7Lglik2GCJtIYjk7hbSJ516iwB+eeO6xs5sI0BZ2pjlNlONk2MQuWaR+ANh1+U9R9957yJozRz2HrNrLX1fCF0m+fBreOZFk3dYyfP/X/1bz8x+8CAOKvhPLogmPE19Sed4ZL4DxwvwPvsWdj76v5h+59RwcN66/muc5x5dY3h86Y9Plt7+M5WuKMX5Ubzw19zw9t/0YImk801JYbi3PgKIoMQRbQ5gNFVFDRdhQsZSiNYVUiqpG3ca2QssZovL1j6zG6q11aht3XDxiP3G7JcY6oW2m0FvT4FH1hhOWjbzQbRv27K5oxsX3Bsc6Cbcu98Mdz65T7SOG2B56TtDe0HqIISob5ULF8EQRlsP9ONFV8D7O51OoSCkIQnTgM5nvIYIQb0gwFiEh4Wc1FJQXLlyIr7/+WsU9othMcY+fmpApU6aol6kPPvhAfYby+eefqxdhxlfu7K/yAQoEPj+/HQKs0R28z/htKBF/I0o0m2hPItqUiCSqXYmCXEeHJvX442Hv2xfOdWvR8Nlnem73EGn7npn/pZr+4PQju0xUjmdWrtuzT1T+zaXT9onKRO513QvFW4qiFFQNKKxSEKWnLkXZUFoKpRSfQ0VlQqGWYnPfgu9+pMpKs6k8Q7Tl9GCiMqGozPpDhXAK3QcTan80va8SfkPLcFsUkCkSU1Amhnf2x6u+C1PB9hjtozjMMrQrlJb1sJxhvwHt534SIofcJwShaxBRWYhXRFgWEhJ+xsMRXvmZzF//+lfccMMN6tORCy64QH0CRGbNmqWC5L/zzjtq+auvvopLLrnkgM9OOoLf5VafHZtsVpjt0RWWBUEQBKElqcceC1tRb7jWb0TTF1/oufHPl98WY+Fnm2C1mHHpuRP1XKE1OEjfbQ+9p+YvnHWEEuOF2IHib6jga1BW7VLTwUX7OzoY+Qb0HiabdzeqaSjpyd/1PzfualACrOEdfSgM4ZbrtRWK4NzGztJmPec7DAF53JAsNTX+pidzS/GcDO0T/MKmpXc3RWtiCNOtlVu5qUafEwRBEAQh2oiwLCQs/GTrZz/7GR5++GE8/fTTuO6661Tg/FBOPfVU3HfffXj22WfVdPz48SrOUWehxzJ8PpgsVsAW2U+ABUEQBOFQOIYMhr1Pb/jdLri374C3rJxuZ/rS+MXwVr5szkQ1YJ9wcG5/eAGKS2sx+Yi+uPnyE/VcIZagGMtQB6EpNK5xJKAXL719Q7dliMfhMIRbQ8htC4YI3lL8DgeFdIblIBSX2R56b7fEaKuRjHAggiAIgiDEDiIsCwkLPyVhrEoKzMZABS3jwDLuI4P4czmnkYqZGNBe5AMUlrX6xGNZEARB6A6SjjwCjkGD4OUgNEuXdq2wrEJBac9ULUXy084TJw7CiIE9cOns8XqO0Bp/fuZjLFmxHb3yM3DX1TP1XCHWoMcy4wOHSy09cTsDxWWjXkKRNpy3cCiGwNweemS3zUGD4rLRHgrYDL3B0BahGMtbJiMusyAIgiAI3Y8Iy4IQBQyPZfVSHeFBiwRBEAShLaQcfTSSRo+Ce/duNHz0kdbri1y3z19fD29FBXyVlQemqir4ysvgLyuDT0teI69luQ6kOeOL8Pz/zYS1vjaYV12DgF9vlLCPl95dhRfeWqnm77pmBvJzOjd2hBAdGDaCXsSHEngjDb2XSctQGwZGqAoj1ERbMETw0NjOBudPK1LT1kJU3PfiZjU1RGkjBMfBvKqJEQqkZTkj5IYgCIIgCNFHhGVBiAIqxrLusWwSYVkQBEHoBpKGD4dj2DAEmp1oXr1aibudxb1zJ2rf/B+qnvsnqp59Vps+d2B69jlUP/cv1P/736j91/N6XitlO5gq9Wn1v1+Ad9PXQMCpt1BY9s1O3PPkIjV/689OxvhRvdW80H0YISVaCp7GIHd3XLx/GAgKpW2Nh9wWGEYiVLxuLTaxAb2JOXAfBxAMFW0ZriJcyAoDDppHL+fQMly/5UCAz9581H7eyVOPyFNTQ3g2BiBsGfqCNtAWA2P/cdBAA26b2xMEQRAEoWswBWSYV0GIONvPPx/1H32M/GuuRs/bb9dzo4PP50N9fb0K5dEy1Ee84vV60dzcrEKZRCo8SXfjcrnUsWL4lUSxiceI0KZEOfcaGxv3hdFJlJGZm5qa4Pf7kZbWds+zWIa28Hpi94UhjhIB3hs8Ho+yiedeJKl9802U/v4e9SVN4R/uRdoJJ8CUlKQvbSNau/za9e7evh018+ah5r8vwqedV/zxtLuxpFjR58YLkDL7R0DGUD03OvDca2hoUOddrN7HSyrq8ZObX0RZVQN+fOZRuOHiE/Ql4aFNdXV16v7QGZsuv/1lLF9TrETsp+aep+e2H4Y5iHcomDJG8qOvbd1PuA0VPCk0X3zvCjVPKCLTc9mAouqc25fpfwXFWYqs9DQODQNh1Ml4xaEDABqitFGHsX4oLdcJx4PXjlXiskFou1trU7httSxDQgViEq4MBeiW4TjCnSOhdRltZB6FbkN8jmda7quuxOl0qmeuMfi5IAiCILREhGVBiAJbzz4HjZ98gh43XI+CW27Rc6ODCMvxgQjL8YEIy7GPCMvtw7l2LSqffBJ1776HzHPORo8bb4Q1N1df2jY8u3ej5tVXUf38C/DVBD0Kk0aOgCU7BwEf41Ds35XktRPQjpNPS2azWf3NqymyHc5gjWZ3KfKnD0TSqT8ECo8NLooS8SAs//R3r+DLb3fhhKMH4MHfnq3nto4Iy4IQ+4iwLAiCIMQyIiwLQhTYMus0NH72GQpuvhkF/3eTnhsdRFiOD0RYjg9EWI59RFhuHwGt3pr587Hn+htgKyxE/3kvwd6vn7704AS0/Vz9wgsq9IVz3ToV4ilpxAjkX3sNkseMCXo+a8fjALRrx6fdx3mcrDYbbFYbsyILK2QXduuHMG9fANPwmcCoc/WF0SHWheW7H/8ALy9YjX6F2XjunguRlX5oz3QRlgUh9hFhWRAEQYhlJMayIEQYemnxRVvFV04QAVEQBEGIT0w2GxwDBsBWVKS8jZ3ffqvE5oPB5QyhUfyr61Hx5JNoXrkS9t59lLdz4b33IO3442EtKIAlMxOW7OwDU1YWrHl5sOTnw8qUE6ZMZ5O2DTXtPwombz3QUKa3/vDkX2+uUKIyuevqGW0SlQVBEARBEAShs4iwLAgRJuB0BoVl7WVehGVBEAShu7H26IGUSZOUl2/D4k+U97G/qRG+6urvUk0NvOXlaFq2DOUPPIDKJ55Q8ZRNFiuyf/hD9Ljp18i+4AIkjRoFk8Oh19w69G6mQK1SND+OyxoINFUDDaV6xuHHJ19tw33PLlbzd10zA2OHfTfYmiAIgnD4UKM9y4uLi1FbW6vnfMeuXbvUMn6pIgiCEElEWBaECMNPh/kSbbLbYbKJsCwIgiB0L4ypnD5tmppnmKaal+apeMnV//73/umFF1D+0EOoeORRuHcVI/2kk5B7+WXIv+6XSJ8+HZbsLFVHTGGxa71Z7VnrPPggZInKzpIa3PrQe2r+8jkTcea0kWpeEARBOPyorKzE9u3bUV1dred8x7Zt27Bjxw4VfksQBCGSiLAsCJEkEICfnxjv81i26QsEQRAEoXswp6UhefzRsGRkwFtWhuoXX0TpH/+Esvv/+l26736UP/Qwmr5aAfvgwcg6/3z0fuRh5Fx8sQpnEdPkDNCMtAC1xXrG4cNtDy1Abb0T048Zgqt/EN3BCwVBEITYhgPmMl5+uLFPmB8aS5/xszm+A2Noc9wUJrfbrS8Njv/Av5lY1ijDsXBawjIc04PJGAeDcMryRj0cy4TTcF8ycT2jDia2zcAYX4PrM3He8LzmlO0L3X6oVzbraWkny4e2wWinUQeXiwAvCG3HcoeGPi8IQmfRHkr+6mrUzp8Pv/ZQSj3+eKQcNU5fGB34IOQD2uFwqM5EIsDOAB/uNpstYWxi54THih29RLHJ6Fgmkk3seHLQPp57iTJ4H23iucdBFhMB2mJ09nmcEgHaZLwERcsmhmby1dfDzEFRe/aEvW9f2Pv0+S717g1br57ImH4KevzqOmTNmQNzJwZHpE28R/D+wBTV66n0W+1EbwLSC4GsPnpm5KFNfN7GyrPp9ocXYPHyrRjaLw8P/vZs2KztH0SVNvFlm/eHztj0xqK12FNeh8IeGTjrxI57Tf9rwS59ThAEg4tm9tXnuh7ex/nMTeJgrULMw1AYFF4zMjIOGHCRoTB4ny/imAvaMf30009V2Z07d2LDhg3Km5mezvkcG0HrM5SWliov5z179mDr1q37EsnKytr3zKAIu2rVKnz99dfYsmXLvjr4rKRISw9q1lNRUYGlS5eq/g7bF9ov5XNo5cqVWL16tWoL28rnU05OjtoO1+Uyltm8ebMauJ7L+P5LL+0VK1ao5Zs2bdo3yC4Tz9+NGzcqG2gf20EbSkpK9q3P/gm3z3Z+8cUXqnx5eTlSU1MTZuBrQYg2iaEECEKsEAD8/AVUe2Ca7PRYbv9LniAIgiBEGorEeb/4BQr//Cf0fuCvKLr//v3TX+9H7wcfRN7VV8MxfLi+VpyQqYvJtTuD08OAp1/9Uom5dpsFd149A8kO+UJKEARBaDsUbsvKypTQfPLJJ+Ooo45SQiyFWzol8EdhxmqmUDx+/HiccMIJGDVqlBJyKf4adSxbtkyJyFOmTMHxxx+P9PR0JTJTrKVAXVdXp4RcCsmnnnoqRo4cieTkZLU+ochNQZh5EydOxKxZs1Q9hYWFqg0UyylYU2CeMWMGZs6cqdpB0ZfiN5dxm9OnT1fL2CaKxxSfjR+1KZ7n5eWpeidPnoyCggIlhlNYN5ZznWOPPVbVQeGb8agpMAuCcGhM2oUXxRFVBOHwgoMVudatw65fXAm/9qDqccP1atCjaMKHMR+cfKDy4ZsIsFPDz5TYwQj9ZCueYeeKx4qdqkSxiceI0KZEOffYwWQnlOdeongs01uE3iGJ4nVBW3g9sftCb5REgPcGw7M89GUrnqFN9GLiyyZTVK+nHZ8Ca98A0noAx9+gZ0YennuGJ1R33sff/3wTbvzzW2r+D7+ahVOnDFPzHYE28aWf94fO2PTYi0vx+EvL8LMLJuEXFx6j53YP7EPw3KMnGs+9RMDoQxjXUyLAY8TzL5FsYr+INvE+3pkvAGIJHieefy29Xw8XeDz5pQqf0bEAn6Xsd/OaCfdcpUcuxVaKxX367P8Fz2effab66xSJadfixYuV5/HQoUPVeyTvMRRYKSwfc8wx6nym4Mt1JnEAYB16HXOfTJ06Vb2Dsp5x48YpIZhQiF64cCFOO+001davvvpKicMsH67fxu2u096f6ZU8ePBg9O7dW+WzT0Qb16xZo7bDfGOZAb2UKVpTLKYYTGgDPZRp27Bhw7B27Vq1Tyho9+zZU5WhYL5gwQKceOKJ6llBcZrtOProo9Vyiue0nc/G0aNHqzxBEFpHPJYFIZJoD8CAy62mwRjLiSEgCoIgCELMkqV/Jl6zIzhNYDbtqMDtDy1Q8xRwOyMqC4IgCIeGPxJQXI2FxLZQbO3Ij7Xh1uEPBhR/CetneAiKuPyBjnCZIdgaUIilCMsfHPhjK0V3evcyhAQ9mSnsUpSm+EwBmz9aUqBtzRmANlEIp7jNer799lslDBtQBGY72LaWcDsUoEPbmJubq4R3rmfYzLoNOwnDXHC7bDvL0Q7avX79eiVyMxQHBXLDiUYQhIMjwrIgRBLtweZ3u/aFwtCeavoCQRAEQRCiQkZvvjFrb5+79YzExOP1q7jKTU4PTjthuPIOFgRBEKIHxUcKkhRFYyUdzMOf7aXQytQSisGEAnIooWVbWzcUQ9hmfRSOmaqqqpTnMAVhzvfr108JyizD6cHazLqys7OVtzJjee/du3dfbGdysPZwWUvB3Pib7WoNrsd9ZbSfQjq/3uG2mSgqU3wOJ2YLgnAgIiwLQiTRHlJ+l0tNTTa7eCwLgiAIQrThS6QtBXDVa2/OB45Wnyjc9tC7WLe1DKMGF+Cuq2fouYIgCIIQhJ7B9MIN52lLD2KKqcQQaxkCzvBO5pReu6GhXJjHkGqhGOHIWI5CNwVYxmdmqAuGlmCaNm2a8iKmyHswYdiAZeg9feSRR6o4yFyXA/VRmGb9nLZsBzG8kA0bCG2iWMz1jG1zf4SGM+G+YDJ+NGDYDArbbLdhA2NKDxo0SF9DEISDIcKyIEQahsLQHmYSCkMQBEEQugjGV07OAao2a38c+iU23vj7i5/j3SUbkZbiwF3XzITFIl14QRAEYX/oYUsRlt7D9LolFFkZXoIYHrgUfJkY8oHxjwmFW8ZX7tGjhwp3weUUaek5bAjVu3fvVvMUgbmcU4q3LGMMhEcoULdFUCYsR29hQxymd7NRL1OvXr3UNhliw4CxvwnDXtDL2RhMkGzfvl2J31yP67Od9EKmJzWhoEyPaCM8Bgf1o1c112NIDANuw9iOIAgHx3KHhj4vCEJn0R6Izo0b0fjxYlgyMpByzDFwRPmXTj4w+YBkB8D4dTneMT5JYsciUWxiJ4/HyoiPlggYHcBEsoneDOyA8tzjNBGgTTz3QmPLxTO0hdcTOdinlfEEbeJ9jySSTbxH8P7AFPXrqUZ74azbDaQXaG/Og4NezBGGNvF529XPpnc+2YA/Pv2Rmv/j9afhqBFFaj4S0Ca+gPP+0Bmblq8pxldrdmP8qN6YMHr/AaO6GqMPQaGg5Sff8UpoHyJRbOIxSlSbEqkPQZt4/lG8E2IfnncUZSmIMlYwEwem43Gk9y0Hv+P1xmNKoZaeuuXl5WqAPP7N48xB7ujtS7GX9fDZQAGag+BRsOYAeEOGDFHPDW7PqCN0e1yPAjWvBw6cx75o3776eAgtYBkK06tWrVIxjrk+Rerhw4crWygA875OcZjtZCxnCsDcLkVh2kNRmNumMM729u/fXwnLtJODAvKapD0ckI/rs31jxoxRQjvL025ug/WzDRSq2QbuB3o0C4JwcERYFoRIoj20nWvXoWHJEli1B1Xq5GPgGDBAXxgd+DAWYTn2CX0pTBSbeIxIItkkwnLsQ1t4PREep0SANomw3EkaK4DaXdoDRDs3ek9MGGF57ZZSXHvv69r5EcB1P56C2SdHdnR62iTCcuwT2odIFJt4jBLVpkTqQ9Amnn8iLMcPDFFBQZSCLD16KfAWFhYiPz9/X1+Qx3THjh0oKChQ+SzHeQ6ix3jHPH8pxNKLmeE1KEhThKWozLpYtwGFV26TIjDrYX1MXI/XNpdzXbapNXi/5nKW47psC7dl3BtYB8NjcBtcTpuM+rltzhtCM21gO7iMz4PKykr1fGOdTFxGGzhv1M/9QpvYhlAbuE22TRCEg5MYSoAgxAjsTAbcRoxlCYUhCIIgCF1Cah6QlAlUbdX+SIxQGI1Nbtz20AJ4vX6cc9IoXHzOeH2JIAiCILQOBVEOoMe4wQMHDlQiajgHA/4IQiGWZejlS2G25Y8i/FGBwjLLsM5QUdmAYizXN7ZH4ZdiLoVbQyxuDW6P7aVHM9cdMGCA8jYOFXTpQEUb6HXNxHnjh3jaxfJcl4nbCmcr22Rsg+UNUZmwDRSVaZ+xDQrb8oOKILQNEZYFIcL43RJjWRAEQRC6FMZYTsoCqrboGfHPbQ8vwJZdlRg3ohB3XDVdz41NfnHhMfj6levUVBAEQYh96M1Lz2V6pbeGUSaeoeOX8SWLIAjRQYRlQYgk9Fh2BkfKNdltMNlEWBYEQRCEqJOSq6UsoHqn9iwOhhWJZ/72/BJ8uGwzcjJTMPfqGXquIAiCIHQeeujSq5deuy09lA3ocZwIIYVoA1NrdgqC0HlEWBaESGKEwhCPZUEQBEHoWpKyAa/2DG4Ojvwer7z2wRr8Y/5yNU9RuU/PLDUfyzz24lIcOecBNRUEQRBiG4aRmDJligr9EC5sBGG4CQ5wx7AQ8QoF5aFDhyo7GJ9ZEIToIMKyIEQSCssut5pSWNaeZvoCQRAEQRCiiiMdyCgEqrYDPu1ZHId8vX4P7nh0oZr/9aVTMeWo/mpeEARBECIJPZEPNmgrPXwPVSYeMGI9i8eyIEQPEZYFIcL4XYbHsh0ma2KM7i8IgiAIMY89FcjsHRzALw6F5eq6Ztz60Htq/oJTj8APTx+n5gVBEARBEAQhVhFhWRAiiR4KIxCQUBiCIAiC0KXY04LCcjWFZY+eGT/c9tACFO+txeSxffHbn56o5wqCIAiCIAhC7CLCsiBEEA7ap0Jh+I3B++J7sANBEARBiBsYCiOzD1C5Le48lv/8j4+xZMU29MpLx9xrZLA+QRAEQRAEIT4QYVkQIkkgAP++wfskFIYgCIIgdBnKY7ko6LHsjR9h+aX3vsEL/1up5udeMxM9cjQ7BEEQBEEQBCEOEGFZECJMwMlQGBy8zyqD9wmCIAhCV6FiLNNjeTPgj49QGMtW78I9T3yo5m+54iRMGN1bzQuCIAiCIAhCPCDCsiBEEj3G8nceyyIsC4IgCEKXkZKj9W4tQGOFnhG77K2ox+36YH0/OvMonD9zrJoXBEEQBEEQhHjBFKBrpSAIEcFXXY3iq69B49KlyP/ltcj5yU9gycrSl0YHn8+H+vp6pKenw2JJjJjOXq8Xzc3NSE5OhjVBxHmXy6WOld1uTxibeIwIbUqUc6+xsREmk0mde5wmAk1NTfD7/UhLS4zP62kLryd2X1JSUvTc+Ib3Bo/Ho2ziuZcI0Can0wmbzaZSl11PjeXA8+cBJ9wADDo56MUcIXjuNTQ0qPMuEvfxK+54BV+s3oXjjx6Ah357tp7btdCmuro6dX/ojE2X3/4ylq8pxvhRvfHUXG3/d5DpN3yqzwmCYLDwvuP0ua6H93E+czMzM/UcIZbh/byyshIZGRnIzc3VcwVBEKKLeCwLQiQJBODXOl9Bj2UO3icey4IgCILQZdBbOW+w9na9B3DW6pmxx+8f/1CJyn17ZeGuq2WwPkEQBKHzUFjesWMHqqur9RxBEIToI8KyIEQYhsIIxli2yeB9giAIgtCVmLXnbs7AoLDsqtMzY4vn31yBeQu+UfN3XTMTWRmJ4aUuCIIgdC9ms1l9JcRpOPiO6na71deuFKH5FQ6/mCL8goVf7vHLUeOjdqMs8wzoxc6v4Qz4N+thffyakfUYcBkT6+Fy4yu6loTWwe3xbwOW599cZrTZaB+XcZvGstD6Wcb4Cpb5tI3rhmsD9wGXcdssx6+uBEFoOyIsC0IE4QMs4HJ/57EsMZYFQRAEoeswa8/dbF1YdsaesLxkxXb85dnFan7u1TNwxLBeal4QBEEQog1F1s2bN+PDDz/E+++/j48//hg7d+5U77AUVT/99FPs2bNnn7C6bds2vP3229i9e/c+Mfbbb7/F559/rv6mYPzNN99g0aJFqr7ly5fv5y29YsUKlbdlyxYsWLBAzYeKxsSo46OPPlJl2DZuw6CmpgZff/21Wvbee+9hyZIlah3CsB/cBrfN9MUXX6CiIjjGAm0oLS3F0qVL1Xa5bPHixWpaVla2T5ymqLx9+/Z9NrAMl7cUnwVBaB0RlgUhkihhmaEwAjDZ7UCCxJ0VBEEQhLjAYgXyBgH1JTHnsbxrbw1ufTA4WN9l507AWSeOVPOCIAiCEG0opFLgLS4uxgknnIBZs2Zh7Nix2LVrF9avX6/GeMjJyVHCMD19GVubIjDHUqFAS6GVYi0Ty7K+NWvWqPzJkyfj1FNPVetTuDU8nFl27969qi5ub9KkSfuNJUFRl3Vz+THHHIOzzz4bJ554IgYPHrxv+cqVK5UH9vTp03H66aercg6HQwnOW7duVctOO+00VT/HHKIYzjo5bgDbVlJSgl69eqltn3TSSejduze+/PJLtU1C21nm6KOPxsyZMzFw4EAlvjNPEIS2IcKyIEQS7QHrd7u1SdBjWRAEQRCELoShMHKHANU7Ys5j+baHFqCmvhknTxqMa37YfYNxCYIgCG2DwmRoGIbuTvQqpiBqeNu2B3r30hYO6pedna0E3j59+ijhuLa2Vom4eXl5SlimIEzhltspLCxUQi1hOQ7Gy/VZnt7OFGLz8/PVwLacch2WIxSYOZBg//79kZqaqgTh0MF8KQpzAHC2jd7UDOPB8llZWaoeitLM69GjhxpAktswBpKkZzXLUChOSkpS9gwdOlTtI3ocE26Ly2gz1+U82846aSe3yRAYXEY7OR02bJiqg/YLgtA2RFgWhAjj5+c9WidEhGVBEARB6AaSswGrHbE0eN/vHlmIr9fvweC+ubjr2pl6riAIghDLUJg04hZ3d6IHLhPbEyrOthWKpRRiKayGQsGXAjqFYnocU1Dl34bnMsVnrkdRmgIw20Dh14ibTI9nhq6g9zI9olkPxVrCeuhFzPLhoKjMZdwGhWJ6J1OsNjye2Ra2Ly0tTf0dCsVrrs82G3BbbCsFY8L9RLGY4rkB51nOiKlMO8rLy7Fu3TqsXr0aa9euVdulHYIgtA0RlgUhkmgPz4D+EBJhWRAEQRC6iez+wVAYTZV6RvfxzPwv8fqHa2CzmlVc5ZQk6R8IgiDEAxQmKUTSG7a7EwVSTikydwQKrqSlKG38bYiwhjBriMP09jUEZ3oQG8KyUZ/h3VtVVaXE2J49e6p2GlD8PRjc5qhRo5R4TKF6x44dKlGUZiIt20wOZY+BUS4U5hmJ0AucQjrtoHheVFSkbA63riAIByLCsiBEkIDXCxMfgHyAHuIhKgiCIAhClOAAfm7tpbgh+Plud/HB55vx4POfqvm518zEyEEFal4QBEEQokU4IdYQew3B2IAiMgVULud6FFSNuMeGty9DUdCrlwPjUShmSAl6TnP5uHHjMGXKFBx//PEqdjNjGbM8CRVvW4PLWd/IkSMxdepUFeqC3s/0Wqa3MttheCCHYnhaU9g2MMKEGB7KnOe6xmB/hPONjY2q7ayD2+7Xrx+OPfZYZQMT29G3b9+w+1EQhAMRYVkQIogauE/DrD3MTCIsC4IgCEL3kDNAe8PUXp7ru09Y3ryzArc/vEDN//zCyZg1ZZiaF4T28srcSXj25qP0v2IftnXhfcepNPfSEXpubMG2PXjtWP0vQUgswi3KzYcAAKUFSURBVIm5jH9Mb2OGnGBYC0KxmEIzRWWKsRRSGWeZA/xRtKXIzDwKxRSbKfZSiCX0nKZnLwe/o6cv4XLWZ3gaHwqWo/AbGjea9bOd3C7rpxczYyYz7jNpampSUw7Ix+3Ru9lgw4YNan3aQFgny3MgPgrKrIPiOOukbfSSpt1svxGXmdAGtkkQhLYhwrIgRBAO3EdM/JXULMKyIAiCIHQLOQMBV732dtg9wrLX51eicmOzG7OOH46fXzBZX5J4vPfpRny1drf+V/xiCKHhxMYxAzNiWiSNJbiPivKSMf2GT1W6/Zl1+hJBELoChnL49NNP8fLLL2PevHkqrVq1SoWpGDx4sBKYFy5ciP/973/48ssv1aB1w4cPV+tSzOVyxi+mcEzxlVCApRjNKT19CQfiGz16tFrns88+w2uvvYa3334bX3/99T4RmMKvMR8OCr8UdRctWoS33npLtWn37t1qAD0jBAm3QaGXy15//XW1LYq+FLs5KCCFaeZzOUXjAQMGKJu4XXpV0x7uk48++ghvvvmmigk9YcKEfQI5t8XwHV999ZWqh3Zw3hiAUBCEQyPCsiBEkECIsGyyyOUlCIIgCN0CYyy7u09Yvu3B97B2S5kKfXHXNTP03MTjn2+swE33vx3WOy6eoHBsMKJf+n5/C+1jVP8M7K448LN1QRCiD4VgiqYMTXH00Udj/PjxKnFwPAq1HLRuyJAhOPLII3HEEUeoKcNAGGIxRWIO7sdwEBSbjZAS9CCePHmyqtsQm1mWQjOFWdbFkBisb+jQofviKh911FEYMaL1H+Qo/HJ7Y8aMUXWMHTtWxVvu3bu3XgJK9GUe62fiPNtDKC5TeGY+12c9BQUFql7jucS2DBw4UNXN9rAMPaFZhtB27gNjf7Au2p6RIc8BQWgronwJQqTw+1UoDD7ETA6HeCwLgiAIQneRNzjosVxfomd0HX9/6XO8s2QDUlPsSlS2JugPzX/+x8e4/7nFar6oR6aaxjvrdgRjdf70jP5qKgiCEE/QC5chIui1G5ooBlNgpRhMcZlCMxM9ew1R2cAIccEB+kKhwMsQE/RUDoUxkVme4izjElPsNURbzlM4bg22h17JXJ/tMdYP3QZFZA4gyGVMtM8QrtlWYxnXp3dyy8ENGW6DZdh+lqPw3LIM9wH3BW1gYhnDo1kQhEMjwrIgRIiAz7cvFIbZIR7LgiAIgtBtmLWXRrMVcNbpGV0DBeW/v/i5mr/r6pkY1CdXzScSHq8Pv/7LW3jhfyvV33OvnoFe+elqPhGguEyv5dnH99JzhPaQkRr0JBQEQehu6PDFkBgMySEIQvQQ5UsQIoXusaywO/jdTXBeEARBEISuJ6sfYLUDtcV6RnRh6IvbHwoO1nftD4/DSZMGqflEori0Fpfd9jIWLt2E7IxkPP67c3HWiSP1pYnBk//brqZnTzm4sHz17IEq7jKnoRj5ocI0B99j7GbmGbGcQ9dlXOLQ/NYwYj0bqbXB57i90HKttZH1GWUPNThgyzYyhdpoLCeMsWyUCYcxuF9LmNeyHa3FtzbqN1K49hv73bCXqbUfDIxjw3UEQUgM6NlMj2jDg1oQhOggV5ggRIiAEpZ1j2W7DSZ5gAmCIAhC95HZGzBZgOrvRoyPFhyk7/aH31PevGefNBKXnjtBX5I4cIC+y26bh282lmD4gHw8c/f5mDS2r740cVi9tU55LVMcbU2E7Aj0gv7R9L77BrXjNiheU8jMSrPtyyfhxE225/6rxuwr9+hrW1WdLcVliqP1zZ79ynE7LYVZwvoWrSxX5S6+d4WeeyDcxjGjcnD9I6v31bt0TRWuPGfgPtGag/QxnzDGslEuHMvX16hp6P415mlnKFOPyFPTlZuC6xhCM/efsQ0mrhduv3EfnTguf1+5+Z8cGB6HddIWtnvO7cv0XEEQ4hmG0GD4i6lTpyI1NVXPFQQhGojyJQiRgsKyO+ixbBKPZUEQBEHoXjKKtJ6u9iyujb6wfPvDC7B5ZyWOHF6IO69KvMH63vlkvRKVSysbMHX8QDxz9wUYUBQcwCkRaavXcnuoa/TuJ1pS0CUUM6998Bs1TyjYMpwExc6WUBg1oEDKdSmcGhgic6hIzHIUYSkMt4T5D8/fqv8VHgq+3MbrS0qU6G5AIZnbp2jbXj5eVaGm44Z8F8OV86yPhHpYD+2TpvadIQjfcOFg9XfoPiMU0LnfWnpnkzueXafPHQj3MwV2bvtg4rogCPEHYziLt7IgRB+5ygQhQiiPZcZY5uB9drt4LAtCHMOOqCAIcU5Wb62nawWqd+oZ0eHB5z/FB59vVqEh7ro68UTlZ19bjpsfeFfNXzBzLP5281lISdp/4KNEgwIqBd5Iei3TiziUzbsb1bSmYf98g8FF+3vYGaJrKDtLg3mh3r7hyhnbaClWG+L2wTDEX0MMDoXbb00EPxjcv2znqP7frde3IFl5MjOfYrJBS5tas9EQnkPXJSwbKoiHQsGcojIFdhGVBUEQBKFjiPIlCJHC74dfj7FMYVk8lgUh/jDZzVoKXrsBbwD+Rg+8VU54Shrh2l4H54YqNH1TjsYv96Lhsz2tpyW70bSqHL5qp6pLEIRuwAiFURM9j+XXP1yDZ+Z/qebvumYG+vTafxT9eOePT3+EB/61RM1f/YNj8dsrTlLzhwP0yCUMXxGrlFXrY3uEQOHViCdspHDeym2FYTpIa+JsR6GIHCpKs90UrylWc55QMGcZQwA3yrYmxrcXCsrE2F4oRhzo0NReAV0QBEEQDgdEWBYOC8rLy7Ft2zZUVlbqOUGqqqqwYcMGfPvtt9i0aROamw/0gGgzhseyhsnh0N5lRVgWhFgl4OMPQT4lHPtqXUo89pY3w7uzAZ5tdXBurEbzqnI0Li9VQnH9R7tQt2A7av63DdXzN6PqvxtQ9e/1qHx+HSpfaJG0vIp/rUX1q5vQ+MVeeGsOfPEXBKELSC8CLFagdpeeEVlWbSjB7x5ZqOZ/fclUTDlqgJpPBNweH67/05v4z9tfq7/vumYmLp8zUc0fThhhKc6fpp1LLQjnNdvV9Mh2qKnh/UzYLiOecMvUGXE40qKq4QHNGMoUkBnegu2b99HufYIzvaVDw2AYGGJ3JDBCaLQc/I8ezJHcf4IgCIKQqIiwLBwWzJ8/H3/+85/xwQcf6DlAU1MT3nnnHfzxj3/EnXfeifvuuw9ffvllh8VlClX7Bu9z2LX/5PIShG7FH0DAyx98fNq16QsKyc1eeMub4N5eh+Y1FWj4Yq8SjWvf2oqql9aj4b9bUPvUOpT/fRUq/7NO5Td8slt5Kbt31AU9kH0BWLSXWmt+MmwFKbD1aJG0PHuvVLXNuo+LUfvONiVeC4LQxTCkjT0VcNUB3uDzOVLU1Dfj1gffU/MMD/HDM8ap+URg194aXHLrS/hw2RbkZaXiiTvm4MxpBw78djhgeC23x+O3ZSiGSBHOq5bhIwxBllBUDleuM2zc1aCmxiB6oTCURej22wPXYXu5v0LjKzOfdVLMp32hAr6xLJyNRmxlo71thaI140ezznADHAqCIAiCcHBE+RISnsWLF6OsrAxpaWmwhHgRv/LKK9i9ezcuvvhi/Otf/8Jll12Gf/zjH9iyZYteop0EQgbvs9nFY1kQuhmGr2BIiur5W5QXcdkjX6Pk3i9Q+uBKVPxjDWpe2YS6hTvQ8HkJmtdUwr2jHv4aN+ANwGQ1w5LlgL1POpJG5SJ1ciEyTumH7HOHIO8nI9HjmnHoedME9Lp54oHp1snI/8WRSJ3QU3lEO7+tQOW/18O9K/jJrSAIXUhKXjBVac/2QEDP7Dy3PbRACbCTxvZNqPAQy9cU45Jb52HN5lKMHFSAp+86DxPH9NGXHp5QdAwHBUmKnKGD13HwvNDB9CINwzEYUEilGLpm+3eirjHoYEvvW5ZtmddWOLgf7eRAhqFey7SVnr7PL+x4DHOGveD+ooAcKghTTGYe7WsZB5p/c7vGQIWE7WL7uN6hBiMMB9cxBjgMN/ifIAiCIAitI8KykNA0NDTgww8/RF5eHkaPHg2v16sv0V6eli9H7969cdxxxyEpKQkjR45Ez549sWvXLtTVdeBTtxCPZZN4LAtC9+EPKEG5at5G1C3ahaavy9C8vkoJu74qJ3z1wevUkumAo286UsbkI+3YQmSeNhAp5/RH5qXD0eO6o5D/0zHI+f5wZJ05CBkn9UHqpF5IHpULe/8MWLWXXXOSVcVjPiBZTMprOX1ab2SdMRABT0B5O1e/sglNK8vUtgVB6CJScoFkLVVRbPIH8zrJ/f9cgk++2oaC3DTMTaDB+t5avB6X3/4yKqobceLEQXjmrvPQrzBbX3r4Ygir4Zhz+zIlchoxeAlDK0QDCp8UuY1tUUjl34ZXNaFHL0M2UJA1yjGNH57VqcHpaCe3z4HujDopCHNbLcNUtAeGvSBsb+jggBSPmUda1s/jcf0jq9X2jbawXQxb0hkbr33wm7ACuiAIgiAIB8cU0NDnBSGh8Hg8eO6555RoTAGZXst+vx/f+9734HK5cO211+Kcc87BrFmzVHmfz4cnn3xSeTYff/zx6Nevn8pvK96SElQ+/TSqnn8BWbNnI/eKK2Af0F9fGj1oE4XwjIwMmBNEzOYPAAxJkpKSsp+XeTzDc47Hym63J4xNRtiYWLLJvacBTctL4VxbCXdxA+z9MmDrmQpzqg0W7eWfUyUIOywwa2nf1K5NtfxGdzMsyTYkO5L0GjuHv96NxhVlqF9cDF+NC/bCNKRO7KkSt90VMOwPzz3e2xIB2uJ2u9WU94hEwLCJXbLk5Mh+xt5d8JnqdDphs9nUPaLb2LkUWPs6kF4IHHuV1vPt+HXH4/TCm8tx3z8/U38zRES8e/PynKutrcXLH2zAw//W9pXG92Ydif+7fJqabysUpOntPH5Ubzw19zw9t/1QqBQEYX8onncXvI/z+cT3DEEQBEEIh+UODX1eEBIGCpMbN27ERx99hHPPPVcJKtu3b1fiFz2X+RK1ZMkSjBgxAoMGDVLr8IWRYTAaGxuVEE0vZ74Y86XrUIneyZ6qajR9sQyuteuQNHYsksYdCXN2NvxtrKOjiW2kiG61WmEymZQd4crFU6INPIY8XoliE+2hHbSHhCsTb4nnHYkFmxg/mQPu0VO5aUUp/E4fHCOykTyxJ5JG58I+OBP2QVlwDMqErSgd1oIUmHOTYc5ywJRmgynZCti069iv2eQPwGK2hN1Ou5L2D0kWWHulQDuD4a/3wLO7QQ0SqGKyMwa0Rdt3DrO2E7lZ7e8onOs8TpxS4EuU+wPve5zyHhGuTLwlwybOJ4pNtIepW+8P2rM54GwAanZoaSf8A09CwGTVrrOOPZeXfbMTtz70vrKHwuspkweHLRdPicfoz89+gn++ERyk75ofHIurvj85bNmDpTc/WoeS8nr0yk/HGVOHhy3TlvT8wmLVDkEQvuOHpxSFvV6inQj7ELxPsA8RrkwsJGI8awRBEISuRzyWhYSEIvK7776L/v37Y+bMmSq8BWMt02vqggsuQHl5Oe6++26ceeaZOOWUU9Q6FP5efvll1NTUYNq0aRg+fLjy9GtLR8XkcMCzeTNqHn8CDW+9hYwffF9LP4BtwAAE3JEdMKglFCToSeDQ2pAonSraxONBsTxRvLDZKTeEsESxiS8bPOeMHwC6DbMJno21aFy4C57tdbDmp8DaPx2pJ/WGJT8pGPSJIi6fdvzvIE89QyznC1TE0PYNw2M0f14K11flSlwOeAOw9UuDfXg27AMyYM7Wrt+koPe0at4h2tkeDGGZ94gOP/LV4dX+68xh5qY7uv0QaAOvJ04jepy6EcMmwvteImCI5bzf8R7RLZitMDWWwbL+DVg2vAnX+f/VLu5krXHhwxocjLKqRlxx52sorWzABTNH41c/7j4PwkjR7PTgd499iE++CsblvfPKkzHj2MFqvr1c9fs3sWLdHhw1ohCP3HKmntt+zrq146EMBCFReePujsXH7izs2xnCMvsQsQifn3xuduuXMYIgCIc5iaFuCEII/Dx/w4YN2LRpkwppQRhrmR0j4/NphsfgvCEiGdBbmUKFIVa0WSzTygUCfviNwfvsji4ZvI/tM5Lxd6KRKDax49vyeMU7oXZ0m03aZrlp15oq+MqdsPVKRfJxPZF+/kCYcx1BD2CPlnwBJS4fTKyNmg3asQ94/UiZ0gspJxepGM0Mu+ErbUbTB7tR9/xGNL61A57NtfA3a/ckrb372tnJJhnnW6ds46psj09rl2ZHhxPXjxCdtimGCLWD94lEIGaODwfVTc7VUg5M1Tth0v7uKHc/vkiJypPH9sF1PzpWz41fduypwZW/f0OJyrlZyXjkt2dg5nFD9KWCIAj7E6vP3ETpCwiCIMQz4rEsJBwUlOfNm4dFixYhKytL5dH7lUIyvaboiXzvvffi6quvxvTp01WoDKPMH/7wBwwdOhRTp05FQUFBm1/y2alxbdmCsr/chwZtu3lX/gJZF14IWzvq6AjcLr0I6uvrkZ6evu8T6niF9rD9PBaM6cZYo/RCSASbQmMsx7tNhHYZHv38IaZbbNK2rW0U/gY3Kp5ZA9fmWqSfUITs84fquqz2fzuaRFv44xKnUYlza7S3zq0G82taUwnn2iolJpssZpjsZpgz7EgZk4eUcT20+0eqviJX69i+NY4Tzz2GBGpXPdq6xuuap6IZ7p11KmY0PcTbjbZdDpZo75MBa05Sp+zhPc/4kTA1NbXDdcUKoTbRFp57zItnu9h+3sd53zM8ybrNJm27pq0fAa/8FIGffQxkFAbz29GWe59chJfe+wZ9embhkd+ehl49spVd8XqcGNLjlgffQ2VNE0YP6YmbLz0OQwf0VPfyjtrz09+9si/G8pN3ztFz28+MG4PxqwVB+I4Ff+meH7N4j2N/nPfyzMzMmL3fsZ2CIAhC9yHCspBwUESpqKhQA9pReKDYumPHDqxZs0a9CHLAvgEDBuCvf/2r6ogwHAbjLO/cuRM33XQTrrzySkyZMqXdnRTX5s0o/cMf0PjJEvT41a+Qed4cWPPy9KXRwxCWE3HwPkNYTgTYKeexMoTlRCAmBu/zBdC0ogw1726DyWxCxil9kTqpl76w/RjCcrQHhQu4ffA1eODXkntXPZybquHaWgtftROW7CRYMx1q0EHGhE4alq3yOkpnBu9zae2iAO4pboCvzqW8vzsCQ4FQWE6f1gfJYzp3X6QthrCcKIP38d5ghCxJxMH7mLr1xb94OfD2jcCsPwCFRwGWtn8y/cL/VuLP//hYzT9z13kY3DtDnXfxeh9/Y9Fa3P7wAjV/8uTBuOeXp6K5qUHdHzpjkwzeJwjRQwbvEwRBEGIZCYUhJBx84evbt68apG/s2LEYNWqUSj169EDPnj2VqExOO+00FRLjhRdewN/+9jc8//zzmDBhghKZO/QC7Pcj4AqGwoDDDpO5a4U2+Y1IOBzhWd+0ulyJnvb+mbD3jcyLT7SvJ5Pdojx37X3TkXJ0D2Sc3BfZ5wxG5qwBsBemwbO3EY0rSlG3aBdq3tyKuvd3wrm+Cv7G/cP3tAVui97QbcVb5UTjV6Wofm0zahfuQOPnJXBu0Lbt9MGalwxrfvsTRXTXtlp4ypv0rXQOud8J7cKeAmT3Ayq3aie4U888NJ+u3L5PVL7zqhk4crju7RynPPXyF/tE5R+cfiTu+/UZsFnlVUAQhIMjz1xBEAThYEhvUjgs4IATAwcORL9+2oulzrBhw5SQnJ2djerqauWtM2fOHBUCoyOoWK6u4EB9Jg4gYZHLSxCiDT183cX1gB+w90lTXr7xBuMt2/ukI+WoHsiY3g/pJ/VB+sl9kTwyV8WFblpVjtq3tqLug51oWLIbzasrlHdzW5NnYw08m+rg3hZ+eWhqWlmG+sXFqH9/J+q17bm21SkxOXViT2Ro7co4qa8SwducTumn1mHsa8a59tW4tPtkcJA6QegybClAZh+gehvg1X8APgS79tbi1gffU/OXnjsBZ580Us3HK79//AM8/J9gmIlfXXQ8fnPpNDUvCIIgCIIgCJ1BQmEIQoRwrl2Lkltu0abr0Ovuu5Ex61SYO/DpeXsxQmEYMZYTAQmFER90dygMf7MXTStKUfPWNhU6IuucwSpsRGcIjbHcrZ/ua/hqXWhmHOb1VcqD2d/kha/eDXO6tr8z7Cq8xCFjSLOIP6AVC8BsOsSPXVpd3vImFe7CnGaDRduOtWcKUsbkI3lUrvJ87ig1r29B4xclsA/IROb0frD367hnOUNg8Hpi90VCYcQuMRUKo7EcWDMfKP4SOPl3QGZvfUHrXHLrPKxctxsnTRqE+39zpsrjucfBgOMpFEZjsxu/feBdfLx8q/r73l/Nwqwpw9Q8oU0MHSahMAQhdunuUBhGjGVBEARBCIe4VApChAj4/PA7g55QZodd+08uL0GIJgwLQeGVcZaThucoz9pEgjGJ044tRN5PRiH3x6OU17Cy0eOHr9oFb4UT3spDJK2Mr8oFf5U7/PLQVOVUQrStME1tN+dHI5B30Sg1kGBnRGViL0qDOc2utcUJT1lkwmEIQpuhx3JWX6B6e5s8lu94dKESlQf1ycVd15yq58Yf24qrcNltLytRuSA3Dc/cff5+orIgCIIgCIIgdBbxWBaECNG8ahV2X389PLuKUfTgg0g/cRpMDoe+NHqIx3J8IB7Lkce5uRoVT6xWHrb5Px2LpJE5+pKOE0sey/tBr2MKyg1BgZje2m1tn+Hdm5ScdFAPZ5Yxp9pgzXbAkuEIekSbI7MPPCWNqJq3EZ49DUifUoTMMwbqS9qPeCzHBzHlsUzK1gH/OA245C2gR+thLf4xfzn+9vwSWC1m/PPeCzFy0HfhseLJY/nzVTtx8wPvoLquGWOH9lSeykU9DvQ4FI9lQYh9xGNZEARBiGXEpVIQIoX2chZwB2Msm+028VgWhCjiq3PDtbVOhXlgWAVLXpK+JEExm2ByWGDNTYZjUBaSR+QgaXj2IZJWRitnG5oJ65AMJPPvsOWCiXU6BmhltW2YbNr9K0KiMmGMZUuaTQ3i56kI/iAhCF1KSm7wudxUpWccyIfLNitRmdx1zYz9ROV44vUP1+Dnc19VovIpxwzBM3dfEFZUFrqOMQMzlDj47M1H6TmCIAiCIAiJgShfghAh9hu8z0Fvv8TwHhaEWISxgJ3rK2GyWVT8X0uqTV+S+NCTmKEpDp3MSiCmIM0EzoctF5LopRwlrLlJMCdZVJxob4WEwxC6GKsdyOgNNJQC7gY98zu27KrEbQ8tUPM/v2AyZh0/XM3HG0/MW4bfPbJQzf/ozKPwlxtPV97XgiAIgiAIghANpKcpCJFCeSwHYzea7BJjWRCiCeP0unc1wOywgJ655uTECC8SFfyBYOpmrAUpKkY0Y2O7dzYcNCyHIEQckwXIGwLU7wWaa/TMID6fX4nKHOiOMYh/fuFkfUl8cdffP8Cj/12q5m+4+ATcqCUhNli9tU6F+bj43hV6ThB6MT947Vj9L0EQBEEQhPhDlC9BiBD0WPYbHss2u5oKghB51ABwuxsAr195wTLMQiTDNgjRwdYjFdacJPgbPHDz+AlCV2K2ALmDgh7Lzv2F5Vsfeg9rt5Sq0Bdzr5mh58YP9Y0uXP371/DKwtUwa/fCP91wGn58poRcEARBEARBEKKPDN4nCBGicelS7Pjhj1QIjAFvvoGk4V3zGa0M3hcfyOB9kaNpRRnqFu1UAmX6tD5Im1IUsRAOMTt4XydoampSA3RxcK7uhPGVa9/dhsZP9yBpWDbyfzZW64W0fx/L4H3xQcwN3ud1AWvmA1s+BI66COg/RWU/Pm8ZHvvvUqQm2/HcPRdicN9clR+OWBy8b/POCtz8wLvYtKMCvfIz8IdfzcIRw3rpSw+NDN7XddA7ed2Oelz74DfKS3lEv3R9yXc8+tpWzP+kRM3PvXQEjhn13aC0uyuaw3o8L11ThbJqF86e8t1xN+oJ3U5doxdzbl+m5g1mH98LV57z3WCqrOv2Z9bpf7VOy8HkwrXtlbmTsGZ7HeZ9tBv3XzVGz8W+fdASls9I/e4cfH1JCR6ev1X/C7h69kBl4/WPrMYNFw5GUV7wXhnOrkSj5f7uSmTwPkEQBOFQiMeyIEQK7eUsQLFDmzU7HME8QRAijntXvUrmdBuSx+TBJN7KcQEH77NmJSHg9cNb7YK/2asvEYQuwPBYZigM3WP53SUblKhM5l4946Cicizy2dc7cNltLytR+cjhhfjH3ee3S1QWug8Kq4aITqGV80yGqExBmKIyRVRjWXqyTYmvLWG58cOz9pWjyEuxmGVrGjwqj/VQtA0dPNAQlSngGuuO6p+hBhpsDWMQwtA2M1HkDdc21kdR2ShHwZtCd8vwH6yzvjnYVqMcRWSK6y1hfcvX1+wr29IuQRAEQRC6FhGWBSFCBDxeJSqb6PEj8ZUFISp4ypvgKW3UrjMzbL3SVGgFiK4cN1izHSrOcsDlg7u4QYnMgtAlmLVnM2Ms1+1WMZbXbS3D7Q8HB+u75ofH4eTJg9V8vDD/gzW48q75qG1wYuZxQ/HM3eejZ96BHrBC/EHBl+IrBV/GZjZ4fuFOJaLSczeUlt7CFF0JvYUN72PWQzHY8PIlxvzHqyrUlNDzN3SbLaGnMD2EW3ocUwgO1zbmUfw1oHDO9oZ6axsic6gNLMf2hnpsG7T0ZKaXNW05mCAuCIIgCEL0EPVLECJEwONWn/qqgftE6RKEqOBcXw1PWTOs+SlIGpSl5wrxgiXLoWJiBzw+uHbUaVMRloUuJEm7Z1isaGqoU6KyWzsPzzpxJC47d4JeID74+0uf485HF6r5i846Gn+8/jSYEyR0jwCMGxJ8toUKvmTz7kY17ZG9/1dxFHpDoXBLGB4jHIYAa9RPD+C2irIUcI36QzE8rYf22T/kUriyO0uDeRTQSWt10tuatGxbuLKCIAiCIHQfIiwLQoQIuLUOsPZip8JgyKf5ghAVXFtq1OB9tp6pcAzJ1nOFeMGSlQRbAYVlP9wUlsVjWehqsvrh9v85VfgIho1gCIx4Yu5j7+PvL36u5n99yVRc/5Pj1byQeFDwZYgII4XGKY4E9ExmiAxibCtc6AkDQ+A1BN+OEk7wprgcaitTOG/lgzG4KFWfEwRBEAShKxFhWRAiQSAAv9utXVFmmByOhBn0SxBiBu0a81Q0qzAYnKewzLAKQnyhPJZ7pihB2cNQGC6fvkQQuoaHNo/F+5vNyEqz4a5rZuq5sQ9DXlx192t49f1vYbWY8ecbT8cPzxinLxUSkdD4yqGpLYPrtRWKy0a99ASmmNsynEVLeO10BsPj2vDAJtx2qI2h6WChOQRBEARB6H5EWBaECBDw+QBv0GNZhcIQYVkQIkrAG0Dz12XwN3rhGJgJe4vPbYX4wGQxwZqTDJPNogbv89Y41Q8FgtAVvLFoLZ5eFbx33HVeL/TtFR/hdDbuqMBlt83Dpyu3o6hHhoqnPP2YIfpSIdFYuSkYI3nqEXlq2lXc9+JmNW0ZasOAAi/DbhixmUMxxOiNuxrU1CBc2b4FyaoeQzCmqByunCAIgiAI8YEIy4IQAQJeL/wuPcYyQ2GIsCwIESXgC6BpdQV89W4lLDv6yCBV8YopxQpbUVDc8+xuVD8WCEK0+WZDyb7B+m6cUInji/YXwGKVJSu2KVF5885KHDWiCM/cfQHGDg3GphXin3BCrTHA3dlTeh0QX5ghItoaD/lQPHvzUft5JxtCtiFsh2PRynI1IJ8x4B5he9hWtjl0UD0DttmA26O9HFjQ4Mn/bVdTticUlm2ZJwiCIAhC7CHCsiBEAq9XDd5HQdnsEI9lQYgo/gA8exrgq3TCnGSFrTAN5nQOkinEI+ZkK+y907T7JIVl7bg2di5epyAcitp6J2596D01f/4JffGjIXuB+uBgY7HMKwtX4+rfv476RhdmTRmmPJULcuVrjUTijmfXKaHWiCtsiMYX37sC63bUHxBnmeExIhUagtugIGzUzfnXl5TsG4gvHBSO2YYR/dL3rcc2Ll1TpeprCcXmR1/besA2QsN5GOE4KDgb5ZjGD88KW6cgCIIgCLGFKaChzwuC0EF8tbWo/u+LKPvTn5AyYTyKHngAtp499aXRxefzob6+Hunp6bBYLHpufOP1etHc3Izk5GRYrVY9N75xuVzqWNnt9oSxiceI0KZonnv0Um74ZDfqFxfD3j8TWacPgD1KHsuNjY3qywOee4kSK72pqQl+vx9pabEhSPmd2vW9ugLVr2yCNTsJ2RcMhWNApr700NAWXk/svqSkpOi58Q3vDR6PR9nEcy8RoE1OpxM2m02l7ryerr33DSxevhUTx/TBE7edBcz7CZCaD5z5N71E2+C519DQoM67aN/HH/3vUjwxb5ma/8nZR+NXF0VnkD7aVFdXp+4PnbHp8ttfxvI1xRg/qjeemnuentt+KDAKicErcyehvtkj4nAEoNDeXfA+zmduZmbbn9OCIAjC4YV4LAtCBGAoDMNjWQbvE4TI4qtzo3ldpfJcTh6ZA2tOkr5EiEeU13mvVJjMJnjLm+GvF49lIXrc9+xiJSr3yEnD3KtnABabdhJaAWetXiL2+N0jC/aJyr+5dGrURGVBEARBEARB6CwiLAtCJODgfe7g4H1mxlg2y6UlCJHCW9EMd3EDTHYLHIOyYE7t3Ij0QvdjzUpSx9Hv9cNT2Qy/W7uHCkKEeXnBavzrzaC35F3XzkTPPP1Lh8y+2kmYDNTsDP4dI9TUN+Pnc1/F6x+uhcNuxX2/PgM/OH2cvlQQBEEQBEEQYg9RvwQhAqjB+zz64H12jqYtHsuCEAk8ZU1wba6G2W5B0pAsWNJEVE4ILCYV/sKcZIG3tBG+Kqe+QBAiw5ff7sLdj3+g5m/+6YmYNKaPmldkFgI27Vlds0PP6H42bC/HJbfOw+erdqJPryw8Pfc8nDx5sL5UEARBEARBEGITEZYFIQKoUBi6x7KJg/eZRVgWhEjAUAnN66pgspmRPDpPDfwmxD8mi0nFyaYXuqesGV4RloUIUlbVgNseWqDmf3j6OFx46hFqfh8ZRYBFe1ZXb9MzupfFX23Dpbe+hG3FVRg/ujeemXseRg/pmnEaBCFazLl9mcRXFgRBEITDABGWBSESKGHZpUJgMBSGxFgWugPXjjrUvrcdVfM2qoHRWk2vbUbNW1tR9/4ONCwuRuPnJWhaWYbmNZVwbaqGe2cdPHsbldjnb/Qg4PHrW9gfk92shEGTJfKPEn+DB86N1apdvloXLOk2OAZnqe0J8Y/Jaoa9bzrM2jnEc81Xrd0/BSFCUFTeW1GPKUf1x68vnarnhpDRSxeWu99jed6Cb3DtPa+jsdmD06eOwFN3nof8nNgYaFMQBEEQBEEQDoUIy4IQAQJe33ceywyFIcKy0A1QGK77YCfqtVS3YEf4tFCfvq+VWaglTlme632oTT/ctS/VL9LTR1r6uBgNS/egcXkpmlaVB0XoNdVwb6yBa1stPHsaVNgKitEcbM/f5NGuCe268Af01h0aCthurZ6mb8q17Wlt0NrZvLpCCdcMm2DJZJgZISEwm2AtSIEp2Qp/gxveavFYFiLDPU9+iGXf7ESfnlnBwfrCQY9lq3Y/qd6uZ3QPD//nM/z+8Q/V/KWzJ+D3185U84IgCIIgCIIQL4iwLAgRIODzIuAJCYUhwrLQxXBwO/eOOsAXgL1fBpLH5CJ5dJg0KhdJw7Ph6JsOa34yzIxZbDbB7/QqUZjCrmtzjRJ0G78oQd1Hu1D79jZUv7oJlS+sQ+U/16DqP+tR/fJGNL69A03v7UK9LlRTDG74dDcal5Wg8asyJUA7KUBr9bmL6+EpaYSntAneci1VNisxkd7ITFzW/E056j7YhaoXN6j62BZLuh3JI3KQclQP7UJru0gtxD7mJCusucnKe9lXo50LWhKEzvDCWyvx0rvfqHmKyjmZKWr+ANILAWsSULtLz+h6bn9oAZ56+Qs1f/PlJ+LaHx2n5gVBEARBEAQhnjAFNPR5QRA6SPPq1ah8/Ak0fPQRci+9FDmXXQpLZqa+NLr4fD7U19cjPT0dFktihAnwer1obm5GcnIyrNbEiKnrcrnUsbLb7VGxqfrVzWj6ai8sOUnIOKkvUsb10JccCL2IA80++Js9WvLulwJOPb9R+9vJ5EOgyQMfPZBd2rxXD4uhPTnU48N4grQyr54w+t+mJAssyTaYU6zKU5XCojnFprXHr8JvePc2weRgaA0TzFo5x9AspBzRA46BmSrGclfQ2NioQtnw3EuUkDZNTU3wa/s4LS32Pq+np3zDkt2w8rw9pS+SRuTqS1qHtvB64vmXktKKcBhn8N7g8WjXmGYTz71EgDY5nU7YbDaVon09fbpyB666e76av+Oq6TjnpFFqvlU+fwxY8Q/gik+C3sttgOdeQ0ODOu86eh+vrGnCbx94B8tW70KSw4o/XDcL0yYO0pd2PbSprq5O3R8682x67MWlePylZfjZBZPwiwuP0XO7B/YheO45HA517iUCRh/CuJ4SAR4jnn+JZBP7rrSJ93GzOTH8t3iceP5ldtF7jSAIghB/iMeyIEQCrbNveCzDrnWOxWNZ6CoCARWj1rWtRoWgsPfJQPLYPH1heExmE8ypQW9Re1EakgZngQPjpY4vQNqUQmSc0g9ZZw1CzgVDkffjEcj72VgUXHcUet40UUsT0OPKI5F/6WhknD8IaWf2Q8apfZWYnXZcIVKOzEfS8BwVusLaM1WFrzA7gmJFoNkLb40T7pJGuLfVwrm+Ek0rS9G8qhzesmYlNjOOctbZg9Dj2nHIPncIkoZkdZmoLHQ9tsJUmNPs8Fa7tPO4Sc8VhPZRXFqL2x56V81fMnv8oUVlkpwNpBYAlZu1m1P4OPKRZu2WUlx22zwlKvcrzMYzd13QraKyIAiCIAiCIHQWeVsXhAgQUIP3uZWgLIP3CV0JvY8bPt0Db6UT9gEZSBqa1fbB9HiamrX/tEQvYYYkUMnGQfn0gfkcFu2c1hK9i+lxnGaHrVeqCrdhHZgB+4hsJI8rQNoxhUif2gcZM/srUTr7vCHI/cEI5F86Cvm/GIuCX45Dj58fgbyLRirBOvOMgcg4uR/Sji1U3tWZp/ZH3k9GIXv2ECSPzYclw67aotonJCz2onQ1MKO3qlmEZaHDMKxEVW0zTpw4CL/80RQ99xCk5ACp+UDV1i4Rlj/6Ygsuu+1lbN9TjYlj+uCZu87HyEGtf1kiCIIgCIIgCPGACMuCEAFChWWTg4P3yaUldAEBwFvaDOf6KuUNnDwiF0lDsvWFUYZCtN0MM0NapNtUrGaKwdbsJOUJbc1Pga2nlgrTYO+dDnvfDDiGZiN5TD5SjuyB1PE9kTq5F9KOK0L61N5qPmlYtrZukhKxhcMDnjOWDO2e6QvAV+tUAzgKQnvZU16Hgb1zcHd7Br9LzgHSegBV2/SMNsBnu5HawYvvrMJ1f3wTzS4Pzpw2Ak/cMQe5WYkRxkUQBEEQBEE4vBH1SxAigTcYCoOeykpYFi9LoQvwNXrQtKoMvjqXGoiP4SfMqV0Yp5Chk/3afz4ttRXt0qBHNOMsKyE6Nwk2hsxIt+sFhMMNm3buWrIcyuu+6esyPVcQ2s6///R9vPq3i5Ca3I77SApDYeQBFRsAT7OWod3H/N6Q5AFcddrz3fVdns+tUkDLC/i05W3gweeX4N6nFqn5y+ZMxF3XtEP8FgRBEARBEIQYR4RlQYgAAZ8XAY8eCsNOj2URloXo4y1vQuPyUjVPD2CGqBCEeMM+IFMN0OitcaH+490qZrgx+KMgtIWczA54/ybnAil5QPFXwLaPga0f7Z+2aGn1y8CmBfstt+5cArP2t2nTQqD026Dw3Aq3/O1dPDN/uZr/7RUn4ZofHKvmBUEQBEEQBCFREGFZECIAQ2H43R7titIuKYddhGUh6vhqXXBurFZTc7INyWPy1EB5ghBvUFROObpAea97K5tQ88YWeKud+lJBiBLJWUBGEVCzHVhwG/DWjcA7N+2fmP/uzfv+Nr/3f0ha9DtYFt4KvHI5sPB2YOdneoXfUVHdiJ/+7hW8tXg9UpJs+NvNZ+GCmWP1pYIgCIIgCIKQOIiwLAiRwOsD9g3el6RCYghCNHHvrEfjF6Uw2y1IndRThZUQhHglZVQeMmf0V57Krm21aPi8RHkwC0JUGTgV+OU3wGULgUvf2z9dtgC4diVwxSLgkne1v9+D/+J30Xjhq/Beoi0/434gWztnK7fqlQVZs7kUl942D19+uwsDirLxzN3nY+r4gfpSQRAEQRAEQUgsRFgWhAjAUBh+j0cPhSEey0J08TV4lPjmrWyGOcWG1Ak9uza2siBEGosJSUOzkUFx2etH49I9cK6rRECbF4Q2EehA/BSL9rzmAH6MtRwuqWX5wXmGzUjvgUB6LwTScoFeRwTXr92lVwZ8uGyzEpV3ltRg8hH98MzdF2D4AK2Ow4BfXHgMvn7lOjUVBEEQBEEQDh9MAQ19XhCEDlL7xhso/cMfAa8XvR9+GMnjjoTJ1jVCn8/nQ319PdLT02GxWPTc+MYHP5qdzUhOSoGFo70ZcGwlpxf+5mAK6FO/26eWhUW7xZmTrWqAOGtesp7Z9bhcLnWs7HY7rFarntsxGr8qRf0HO1UYjNSjeyJr9mDtbq4v7EKamzngFZRNiXLuNTY2qi8OkpOTE+bLg6amJvj9fqSlpek5sYuvxoXat7aicWWZumYzTu6HlHH5+tIgtIXXE7svKSkdiK0bg/De4PF4lE089xIB3pJ5nOx2xwHj2fq8Hji151Zzg5bq6+DUpu7mJmV/e7Ha7OgzaixSs7L1nOjBc6+hoQEpqWmweuqBD+/WbhoVwPn/wH/e/hp/fPojVe7sk0bhzqumq/lYhzbV1dWp+0Nnn02xglfrizmdTjgcDti6qC8WbYw+BO1JFJt4jHj+JZJN7BfRJt7HzQyPlwDwOPH8y8zM1HMEQRAEYX9EWBaECFD76nzsvfdemLROZJ8nHkfSqFEwddELWiIJywG3X4nEXqcbzoYm2E02WAJmlRdw+eBv9MDH1OCBv8GtJW2+Xps6vUEVI5wO6A/Akm6HvV8GHEOyYctLhjU3GSZ713b4IyUs04Ozet5GNHyxF44Bmcg5bwhsvdJEWI4QIix3P+5d9ah5cwtcm2rUNZt52gA4+mfoS0VYjgcC2jFqbmxAQ22tdsC0+7fXC492zDwuJ1xNjWiqqUZDTRUaqqrQqE0bq6uUyMz12n4zC970k9PSMfMXv0Th0BHB7CjCc08Jy9p5p+7j7/0W2LsaD5hvwrOvBQfpu+L8Sbjye/HjtUubRFiOfURYjg9EWBYEQRAOR0RYFoQIUDNvHvbe/XuYtY5kv388A8fQoUAXCW0dFpa1Sz/QpV+Za7cabXsBH6fBFDCmHp8Si321bvjqXPDUOOGtaQYafPDXe+CtdWlTN2A1w2QxqQSLMa913Pl3a2iLAh6/EqVNZhOShuUgdXwBbEVpMKfZYbJqBVoREFV2S1e7DqJeCv26sGw5yMv7wY6L1pSmr8uVtzLDYKRN7oWscwbrC7seEZbjg3gTlknj8lI0LC6Gu6QBycNzkPO94fvCvdAWEZY7jt/n5W2m0wS0G1XA59fa7tXq1O7VeqJwTKG4pqwU1XtL0FxbjfryMtRXVaBWy6OHssVmg8Vqg1Wbmq3W4JT3xXZdcwHtlmiCIzUNp/7iOhQO60JhWTtGbDMW/wU3v1KJd4oL1PLbfn4y5kwfo+bjBdokwnLsI8JyfCDCsiAIgnA4IsKyIESA6v/8F6Vz74I5KxP9/v0CHP36QetR6kujS0eFZW9Fs/L2pdgbVagT8C6j3Wq4PYZvUAKymrrg1eb9TR7NEK3QwTQFs0mFtLBkOWDNsMOS6VDzappuDwrAxrZCoPDs3tuI5tXlcG2pCS73B5TXcvLYPDgGZsFk045VyzuhVpfZYVECdCQwXgoP5rFMj21vjfai1aDtjzDtYap9extcW2uRNCwbmTP6wd6/+zr6IizHB/EoLJP6RbtQ/9Eu9QNU8th8ZJ8zWF2rtEWE5fZDb+DG2hrUlu2FT9tWp85vbV2GrmiorEBteSnqystRV1GG6pLdcGnXEI9Ra/VbtPtfSmYWMnoUIDO/BzLyCpBV0BPpuXlKZG5562sVFtQ2YdbuPXm9+8KRkhrMjyK0y/BYrqxtxm/vfg5f7fQiLcmKP9xwOqYcNUAvGT/QJhGWYx8RluMDEZYFQRCEwxERlgUhAlT961/Ye8edsBUUoP+8l2ArKtKXRJ+2CMv+Ji/cu+vhKWmEZ4+WtCnFXOU93PbX+E6jtqcl5anso7eb/rc2z0HoLNkOWDLsMKfb4U8xwZGbCltWssqjeKwEYLNJeR6HTlVqDS7StuF3eeHd24SmFWVoWlkGv8cHc5I1WGcrq1OUpnidPDwbSaPztOPbceGCnXJ6Xpub/TA1+ZS47q3TXhTr3PBriSK7ihtNoV97KWkNHkuScXJfZEzvp+a7CxGW44N4FZb9Lh8aPi5G7Xvb1fWfMaMfUo8uQMBhhqvZKcJyG/E4ndj57dfYtGwpdq5ZpUJSRAJ6LPu92r3M61Fe0D6vljQbSEpmNjLyC5CaHZxm9ShARm4eMnv0RGpOLqzaPYOiC0VhI5nMWuIl195HkrZOcN3oX6+GsLxldx1ue2ghiktrMSjLgz9c2BNDZvxIKxF/9wwRluMDEZbjAxGWBUEQhMMREZYFIQJUPfssSm7/Hex9+mDA66/BmpenL4k+fu0tvL6xHhmpGeqVlrGIPWVN8JY3w6Mlb0WTCifha9Je/hv11OCByaq91FPETbJolUT/NsAtUMilQGROs6kwFBZtaknX5lNsMDksMNu1tmjt8psDcPncSE5PgS3Fodoakfd1zU5vlVN5azs3VivPX4beUAJ1KCaTiutMD2uT1nAK3tbsJFgLUmDvm6FiG9u0+VD8TsaAdgf3NacM7aEltb+1erzN2lQ7NvBqFbq1o6bVr2JHq+QPxonW4D4xp9IDO7zJ3I9Jg7KQdmyhihvdnYiwHB/Eq7BMeB+rX1yM+o+L1WB+2ecOhm1wBjx+L/xevwjLB6Fk80bs+GaFmlbvKUZN6V7lYZxR0BMOtY3OnN8BFcoiOT0Dqdm5SMvOQVpOcJqSkQlHaqp237YF71epaUjRzj2bIwm2pKS4vq54Hb318RrM/fsieLTz79jh2bj3mG3IZJiWab9Vz454Q4Tl+ECE5fhAhGVBEAThcESEZUGIAJVPPYWSW2+DY8gQDHz7LVjS0/Ul0YWipLu6GQ17a+DwWBFgPOIa7eWj2qkEVJ82z1i8JrslGEIiO0kPH2GHJSMYQiIYBqJrbgNsh/ISTraqKUNbmJMtB7yM++BXnfPkJK29pugIlt5KJzyl9Nz2wtSy76+1h4Pk0ZvYs7sBbi15ShqUZ7StZxrsvdNg65UKc4q2zxm/WatDeRs3UcDnvCckT5sy1AdMmt2a/cpmJpv+t03tA0uq9jf3icOipge0SYfe3vSctvVIUWJ8dyLCcnwQz8IycRdzML+tcG6oQvLIXKSd3AemfinqhxkRlveHMYzLtm1G2fZt2Lt1E3avX4v6ynIkpaWj1+BhKBgwELl9+imBt1Nojwx6GduTU5CsPe9YP0VmisgcxNbA5fHCatXubwlyLb3wvxX48z8Wq/nZJ4/G734wBFj9ClC2Bjj3qQOeZfGACMvxgQjL8YEIy4IgCMLhiAjLghABKv7+OEpuuQVJI0di8PsLYdJeZiKNEjCbvcqzNeDkYHduJR5THHWV1CNQGfybKK/XFKagiKlE5fwU2LRkzU+GNS8JJlvsCoF8KVTCstYx7+4XXc9ebf9uqYFre53ynjRiQ1N4piisxGOG8qAgbNeStl9NdnNQRNenFO8DWjKlWmDLYIzoJCUkczAyhv0IeinH30uVCMvxQbwLywyZ49pcg5rXNqvrMWVSTzim9IS5hwMp9ujEI+5q/FpXzO12B4Xldoq+zoZ6NFRXoWp3MYrXfYvtX3+lvJSTtOOdkZePzIJe6NF/IPqNORJ9Rx+hBs7rCiiCUZAwRKN4v57++s9P8NzrX6n5K86biCu/f6z2gNDugav+Daz4p5b5sVoWb4iwHB+IsBwfiLAsCIIgHI6IsCwIEaDi0UdRcsutSBo7FoM//ACmTopswdjDegxi7RL1N3rVAHTePY1wlzTAU9ygvJF5+SqPY6sJZmtQ0LRkJylvWruWOLUVpgVDScQRsSQsh0JRq3lNBVwbauCpbFZeewxZQe9ra6YDZnqCpwfjRKtY0drfKj/NDrfZC792TO1WGyxcKQEQYTk+iHdhWaFdaxzIr+HT3SrEjP3oPKTO7IPUjNi1iffngN+nzR36PAp6LAeF5aSkQ597fq1er9uN5rpabFu5HOs/+wR7t2yEV3v5p6DsSE1D0fCRGDx+MvqNHae8ibuaRBGWKfr/9oF38e6SDervX198HC6cNe67Z9O3rwLv3gT8ai1giT9xTITl+ECE5fhAhGVBEAThcESEZUGIAOUP/A17774bKUcfhYFvv90pYZkeySr8Agfa45QicrVTecUqIVMVCgrK1pwkWAtT4c+1Im1ALhxFGcpLmWL0PjEjDt/lY1VYNqC3sre0ScWDZlgRs8PY5xpqf4fsdH3WeCmkCJsoL+8iLMcHCSEs61S/vFENvskB/FLGFyDntEH6ktiCom9DVYXyJD7keaQt572B9z3e4+0Ou3bb4DphumesS7vX1JbtxdaVy5WozMH5OHCeIyUFPQcNwdBjTsDg8ZOQkpkVFDa66TxOBGF5b0U9bn7gXaxctxsZqQ7cc92pGDs4V4Vg2Xcf3/w+sOAW4MLngRztfGwtjlGMIsJyfCDCcnwgwrIgCIJwOCLCsiBEgLK//AVlf/4LUiZNwoD5r3ZYWKaIXP/hTrh31auB3tQAb06v8jhmTF0OXkUvZCs9kXOSVPgEDt7X4GxERnYmLPbEeSmMZWFZwQEPqZO0USwRYTk+EGE5tmHc89r/bUXjl3vVj2pZpw5A8ujcbhNPW1KztwRbVyzDlq++RGXxLu3u7NdF4oOzf1dMW+MQq1C4djY2wOfxoM/IMRg0fiL6jBqLrIJesDocsCd1f4iQeBeWV23Yo0TlPWV1GNI3D/f+ahYG9s5GQ0PD/sLyrmXAx38EJv0MGDAVsHYyfnUXI8JyfCDCcnwgwrIgCIJwOJIYTzxB6EYCWgcyQE8zrQNp6mTH2FfZjOZvK+CtdcFemIrUiT2Rfe4Q5P1kFLLPG4qM6f2QOqkXkofnqBAXlkwOxOdQg+GpkBhC12E2xYyYJQiHCwwxkzK5JxwjcuAtbkDdol3w7G3Sl3YP7uYmbF7+ORY99wQWPvkwvnzjVWz+8nNUFu+Ez+2Fz3foxNAWfk592tQfvsy+5PEgPTcXR04/DWddfzNOvPinGH3SDBQOHaG8lGNBVI53Fny2EZfe9rISlY8b1x/P3H0+BvfN1Ze2wJ4GZBQBVdu0h7hbzxQEQRAEQRCEwwPxWBaETuJ3uVD2pz+j8vHHkXrCCej3r392yGOZg/PVLy5GzZtbYO+TgazT+sNakBoUji2tC5j0YKmvr0d6enrCeI3GhcdyOxGP5fhAPJZjH5/fh6ZvylH/7g74SpuROrkXMk7pC2tuxwXV+soKNDfUI6Bdo235wYglvB43qkv2oHTrZpRs3oDdG9bCrZ0/2YW9UTBwMHr0G6A8iNWPUIeAx4f3B/bI7PyB8iCrBPwBpGRkokf/AWpgvlglXj2W//XmCtz37GI1f+4po3H7L05R84TH6QCP5ZodwKr/ahdaFTD1N0BKKwJ0jEKbxGM59hGP5fhAPJYFQRCEwxERlgWhk/jq61UojKpnn0PaSSeh71NPdkhYdu9uQP2iXWheU4nU8QXInj24TYKECMvxgQjL8YEIy7EPw/+4apvQ/E05nB+UwNfgRuasAUib1AvmtEOLE/zKxNXUCKd2rJ0N9aivLMfezRtRW14GP78+aYuwrJVhHRSTa0v3Ij0nFxn5BcjsUYDeI0Zj4NET0aP/QL102+Awf+yRWRPjtItLYfkvzy7G82+uUPO/uHAyfnbBZDVvEFZYpqC88V1gzXzgrAeB9NgV+8MhwnJ8IMJyfCDCsiAIgnA4IsKyIHQSX1UVyu67D9X//g/SZ8xA70cf6ZCw3LSiFHULd8Lv9iHrzEEqbihjKx8KEZbjAxGW4wMRlmMfhotwB7zwVDvh+6wcjctLwXHulLh8XKFe6jsCAT/8XoaY0JJ2b6kq2Y2STRtQvG4NSjauU17HNge/DGnfOcyzw2Q2IzUrB0XDRmDYcVMx6OiJwYXthPcGj8ejYi3z3EsE4klY9vn8+L8H3sHCzzapv++4cjrOOXmUmg8lrLDs8wA7PgP+dz1w0atAVr9gfpwgwnJ8IMJyfCDCsiAIgnA4IsKyIHQST2kpyu+7HzWvvoqMWbPQ+4G/Ah0Q2Wrf3obad7fD3icd+T8/Apb0tnWyRViOD0RYjg9EWI59aIvb7YY/4EcSHKj811q4ttTA2iMFGdP6IOXoHnrJINV7dqN43bcoXr9GiclNtdUqTjEFagrDaTm56H/E0UjW7qEmkxkBqtRtgJ7P+X37o3DYSGTmB7fJ+jqCCMvdB+MoU1T+ZkMJsjKSce8vT8UxR4YXh3nuHSAsk8otwENHA1ctA/KH6ZnxAW0SYTn2EWE5PhBhWRAEQTgcEWFZEDqJp7gYZff/FXX/+x8yzjoTRX/6kxrIrz34Gzyofm2z8lpOGZuP3IsP9JRqDRGW4wMRluMDEZbjAz+T1n2xaseoev1uuBeUwr/HBXeOF1W9qlHpKVZxJRqrq1FTuhcNVZVwNTbAqaWUjCz0HDQEvUeORq8hw5FT2Bv2pCTlsdyeI87Ok007920RGCxPhOXuYeW6Pbj5gXewt6IewwbkK1F5YJ/WYyS3KizX7QGengmc/TDQ/zitDxA/93gRluMDEZbjAxGWBUEQhMMREZaFhISdoA0bNmDp0qVKdKXodeSRR+KYY47Z76V9xYoVWLZsGWpqapCbm4uzzjoLBQUF7XoBdm/dhrIH/or6he8ja/Zs9Lr7rnYLy83rq1C3YAd81U6kHV+EjJP66ksOjQjL8YEIy/GBCMuxRXNDHZza/a25Xp9qfzfV1qJBu2erwfY8bu3aaoZttwn9/MOQl9obpYFd+KpqIeoay9V6VqtdDaJHMZmD6mUXavfY3Hyk5eYpb+VYOM4iLHc97y7ZiJsfeJu/P+CE8QOVqJyaYteXhqdVYVk71/DqFcCY84GhpwIpOfqC2EeE5fhAhOX4QIRlQRAE4XBEhGUhISkrK8PChQvVlLBTxA7emDFjcNppp6m89evX48MPP0RJSQkyMjLUp9X5+fmYPXu2mrYV14aNKHvgATR+8gmyzj8fPW+7td3Ccu1729GwZDes+SnIOn0gHIPa3nkTYTk+EGE5PhBhuetxO5tRX1mBxuoqeFxOuLXzinmuhgYlDDfX16K5jtNgatLn6YHMkBb21BSkZ+VhRN4xGJI0DgGnD5uaV6KpjxOWdIe2LBfZhb3Ro98A5GnJGoMChgjLXctzr3+Fv/7zEzV//syxuOWKk9T8oWhVWG6uBj68Ozhw35jzgOz++oLYR4Tl+ECE5fhAhGVBEAThcESEZSEhoaC8cuVKTJkyBampqaqT99hjj2HNmjV49NFHVZm//OUvSgyjl/KgQYOwY8cO3HrrrbjqqqswefL+I8EfDOe336L8bw+icdkyZH//eyi46aZ2C8sVz3yLplXlSB1fgJwLhsHkaLtIJ8JyfCDCcnwgwnLXs3v9Gqxf+gn2bFin4h8zfEVTXa2KYWyx2VW4CQuvGybtb+ZZbDaV7A4HUrOykZKdhcy0nsitz0fqLu3YmU2wT89H9sR+MNlj/9wUYbnr+PMzH+OFt1aq+at/cCwun9P2ARd5HYUVlt0NwFfPaQ/zzcCES4CeY/UFsQ9tEmE59hFhOT4QYVkQBEE4HEmMJ54gtKBHjx6YOXOmEpUJO3eGFzI75oShMgYMGKBEZVJUVIRRo0Zhz549+zyd20KAYoD2EsP4nGZHkp7bRgLaC1BFM7w1LpisZlhzk9olKguCEB0SRVSOB3Z88zXWLf4QezdtQHNdvRKMM/LylZcxw1cMOGoCRp5wIsafPhtTvncRTr7sF5h59Q045+Y78MN7/opzfnM7Zvz0Wkz6/gXoP3sy7MMy4HW74fqoHK5tdfpWhMMdt8eHG//81j5R+a5rZrRLVD4ojKmcMwCo3wM46/VMQRAOhTxrBUEQBCH+EWFZOCygJxg9EQ2vXnr40suypWdYz549UVtbq5a3FUNYVl7K9nZ6XPgDcG2phb/RA3tRGmyF6fqC9iOdc0EQ4pHK4p2o2rMbOUW9MeNn1+DsG29VgvFlDzyOH//xb+rvUy67CpNmX4DRJ56C/kcchbzefeFIDv5wGIo1PxkZ0/vDmpcMX70b9Yt2affYGn2pcLiya28tLrttHt7/fBNyMlPw+B1zcOa0kfrSCGDRnv05g4LCsju+fsxIxL6D9IfiA+M4yTkY+8g1JQiCIBwMCYUhHBa88cYbKqYyQ1yccMIJyiP5nnvuwRlnnIFTTjlFleGnk6+88ooayG/q1KkYPny4+vTrYJ0pk82Gxo8Xo/qxx+DeuhVZl16C7EsuAfg5qd+vl2oFswkBtw/187fBuboCjtE5SJ1aBGthKuBr+2XJT+74mVpSUlLCfHZnfBbOTyMTJcSC8Zk77UkUmxiXnPDz6UQ593jNE35CnSjEsk3VJcX44MlHULz2W4ycdgpOvvwqcDQ1C88pLfH+a3RTjKnf59fu18HriT8Q7gfvq16/dj+uQ/0rW+Cvd8MxMgcpx/aEbUimtrJWph33166C93E+g8gBNsUptIn3PeOe113CxIq1u3Hbw++jvLoRwwfk465rpqNfryx9afugTbyeeIx4z9tnE6deLf+xCfBO/S18R/8YJv3+GOsYfQjeHxLl2USb+HzisymRwnvQrkTqQyRqv4g2sf+aCP0i3uNoE8+/WA3TZJxDiXKtC4IgxCMiLAsJz9KlS7F48WIV8oLxlPlCWFlZiTvuuEP9PX36dFWOnaYXX3xRxU+cNm0ahg0bpmKTHgyTVlfTBx+g5vEn4N2zB1mXX4b0739fhcVgfNBW0d5B2Vmjp3Ltk+vh29uE1Fl9kXxCL0bHUMJKW+ElzE6f8aKbCJc0beDxMATLRLCJYjntYOc3UWziMeJ5THsSwSbawhddkigvKIZNPDa8R8TKMWK7yLpPFmH56/Pg9/ow7rSzcfSZ58Lr0V7M9ftny/aq+6a2jInLwh0nVbc/gOZlZWj+eDf8TV7Y+qbDNjgT9uFZsPbWY017g3V0N22xKd4wbOJ9z7g/dAcLPtuMOx77UM0ff1Q/3HHlSUh2dCyWq2ETryfj2bQPM0UxE5KeORHesd+H78gfI2BN0s7DYOitWId9CEMIi5V7RGegDXw+GYJlIthk9CF4jBLBJl5PPEaJZlMi9iF4nHj+8cenWD1G3N+J8qOsIAhCPCLCspDQ0Et5/vz56Nu3L0466ST06tVL5dPj6JprrsHZZ5+N008/XeWx08QB/hgug8Jyv3791MvWwaCw3PD226h6/HH4KiqR84tfIOP886D1kOkyo5cKg5neTX64d9Wj9tn17Lkh49xBSD6qB/zuoNdaW+ElTAGcngSJ9ALFzjk7iYlikyHusfObKDYZ18cBIkucwhcoeu5xmigvKLSF9zsKYrxHxMp5Z9LOF7bt/ScextqPP0DhsBE45vwfomjEKPi16/9g0Aa+6NKmsF7YSrM2IeD0wvVlOZyrK+EuaUDAH4BjbC4cw7Jg758JS7ZDDfIX8Gn36m7cLdwPvOcZwlEinHuGTbzv8X7XHSLLP99YiYf/s1TNnzdjNH5zyQlqvqPQJp5zhnfvfvc8E+e1+/v8nyLQYwT8o85DIGeg9jALikyxDM85DjhGm3icEuHZxONkiOWJYpNxzzOup3i3idcTjxHtoE1M8Q5t4vOWNvE+zr/jHeM48fzjoKWxet7xftwdzxlBEAQhiAjLQkLC07q4uBj//e9/1aB9DHmRl5enLw1y3XXXYcKECbjgggvUywdjMN95552YMmWKCpeRldW2T2Xr3noLFY89Bl9dPXpc90tkzp7Nnpi+tHXoRdfw2R7UfbgTjgGZyJzRH/Z+7Y+xzBcNjuiekZGREOIeYQeWL7rsxCbCywYxxD1DLE8EeIxIItnE+wBfpHjuJQr84YnnXlqa7qkbI9Ar+d+33YjtX6/A+DPOwUmX/Ay2pEN/amuIRpy25Ti5ttWi8Yu9cG2uhq/GDVOSFWnH9ELKEfkqFnMsDJhq2MRnV6x+btxeKCxThOXztavF8j88tQj/fWeVmr/mh8fhsnMnqPnOwuPEr5p43oUVMT68SyvkBUacCRSN1zNjG55zHFuC94dEEWZ47hliOc+/RID3B9pliOWJgNEvSiSbeN4Zz6ZEEJYJ7+M8//ieIQiCIAjhSAwVShBasHPnTvznP/9RLxVnnnmmEpXpOcXEDh+ZOHEiSkpKsGzZMiVk0ruZYnSfPn3aLCoTv9uDgMcLk0W7nNrx8uxv9sC5tUZ5LlNQtmR37MXb+G0oEX8jSjSbaE8iHqdERI5TdKGoXLWnGI1VVbDYbMjs0bNNorJBe44Pf7jLPm8osi8YDnt/7cVYW7fugx2oeH4t6pfshr/Rq92Qu/d4J/r51pX2/eqPb+4Tle++dmbEROU2kT0AcNUD9aV6RuyTiOdeotpkpEQhEW0ySDSbEvEYCYIgCJFDhGUh4aBHx9q1a/Haa6+pQfsuvvhiFUuZAvMVV1yBd999V4nLc+bMQVFREZ599ln84Ac/wN///ndcdNFFGDJkiF5TG+EgUl6virFodiTpmYeGHsuebbUI+AKw98uEJSNxBgsTBEE4GD7tvlm8fg3czibk9xuArF6F+pLoYLKYkDQoE3mXjEbW2YNg750Bb4VTfTFS9sQqNHyxVw36J8Q/9Y0u5Gal4Mk75+CMqSP03C4idyDgagAayvQMQRAEQRAEQUhsJBSGkHDwlObgfNu2bVOf51NoZh4TPZgLCwtVeAx+olZRUYHS0tJ9MRP79++P1NTUdn2+Vv3Cv1HxxONKVC645bdIO+GEQ4bCCLh9aPq6HFXzNqpPsfN+MhK2nqn60vZB++rr61Vs6EQJR2CEwuAn4Yn0ySePFT8JT6RPPkkihsLguZcon7HGYigMl7afP3jmMaz/9GMMnngsJp1zHgoGtu1HPdpixLHsSMgSv9MLb6UTzvVVaPqqFO7ienX/teYkAVazdoPWCx4Kf0Ct4xiUBcfgLFgyOh7ugZK2x+9Wm04yB+vh4K6+OreWXPA3eOCt1e4h6m83zElWJGnbdAzRtpvedWEmvOVN2v5qgHtnvWqX2WGBRdsH/GHUkqmlLO1eoE3ZPtrS7HXCpt3vbOjaex57ttG4fHnuHTQURsNe4I1fAoVHAtNu1jNjG9rEcFqJFAqDfQijX5cooTCMPgTtSRSbeIx4/iWSTUYoDPYhEiU8HY8Tz7/MzEw9RxAEQRD2R4RlQegkVc8+i4onntRerDPQ83e/Q+rkSYd8o/WUNaHh42I0flWKlHE9kDmzv/ZC3jGPZRGW4wMRluMDEZa7hobqKvznthtRvmM7Tr705zhq1lmwJbXtiw/a0hlh2YBirWtbDZwbatC0uhze8mbltdyWw646Ttp/FJPtvdJg650Ge6E+7Z0Ok+3QgoK/2au+XAloU0+DC+46p/a3B1aPad8y/q1Ss08JzQyhxGUmuyW43SItadu1c7vafKTjRfsb3PBo+4X7xlvB1ARPhRNe7RnG9tFOS5oN5hQtpTJZ1dSSageSLfBrjzVrugP2zCStnCNYJil+7xU89w4qLJPn5wAcuO+0P+sZsQ1tEmE59hFhOT4QYVkQBEE4HBFhWRA6SeWTT2rpKVjz89HzrrlIGTfukMKyc1M1al7fAm+VEzlzhiB5dF6HBQERluMDEZbjAxGWu4aSTevx71tv1K4JL2b/5nYMmXisvuTQ0JZICMsGvno3Gr/cC29pUzAcRhuPe8Dnh6/WrURW5UWcSi/ibOW9TLHXmu2A2WGF3+1TX6kw+d1+bepV4jDX9Wvb5va5vleb8m9/vUe53FI8pghr0uqgZzAHHTRZTSqsh9/lU17XvmonzOl2OAZmKg9mCs30ouYPlSrufzsJeDSb6BWt2uSCp6QRnt1BD2U+r6Btm3bRK5nto7ge8Gi2OTXbnJpdTJpt8GrtpzdzpnZvyNCS1h5LZhKsGdo+4d/avlL22M1B2zQbOd+ha05bxURPc3P0r1eee4cUll+5DLClAqfeq90cO/YlUldCmxJVWF6ychf+74H3MP3YofjzDafpS+MTEZbjAxGWBUEQhMMREZYFoZNUPPIoKp9+WnuhL0LhvfcgadSoQwoTjV/sRdWLG9QLd4+rx8Ga2/bYzC0RYTk+EGE5PhBhOfo019dh3SeL8NE/n0JOUR9Mv+JqFA0bqS89NLQlksJyh9F6T65ttWj+tgKuLTXw1evexY0eWAtSkDQsB7a85GAIi5qQ1OBWAi69fSn+UiwGRWBLUDQ22SywpFiDoSX2Je2+kZMUFGC1Mr4ap/qBsnl9ddCTmcnlgzXLgeTRuUgelau1IRXmZBvMDq3ug5zLFNOV6O30wrOrAc4ttcouz+56tZwCMQVyk9YmFfpjQKZK9FKmqKtE8iqnapO32qUEaArTAYrMFOp92o7iNryB4LZ8mu1Ws/bcS4Yl2wFrdlJQDKdY3Z5QJAba/nMMyoQlLfohQXjuHVJYfv9O7cSoAyZcBvRo+3ndXdAmEZZjHxGW4wMRlgVBEITDERGWBaGTlD/wN1Q+/Yz2YjsQhX/6ExxDBh/0JZ4CAAeMqv+oWHm25V82Ouj51UFEWI4PRFiOD0RYjj5Ve3bj05eex8aln2DMSTMw4ezzkN2z7YP30ZaYEJZDoFDcvKYSzavKlShLgfkAD1r+qfW4TFo+PZEtecmwZCUpD2BThg2BNKvy5k0rylLeu22B23VuqEbTqrLgduvcwe1q27H2TEHKqDwkH5EPW4G2n9jba9EkitHuHXVKHHeurVSC8L7nlza1MtTHwEztuZatxGS2tU34AXdNM5p21wK1XqDBA1+lMxhOo9qpPJyN/dFhdHvMKVbk/mik8tqONjz3Diksf/m01jFYDww6GRh2qp4Zu9AmEZZjHxGW4wMRlgVBEITDERGWBaGTlP35z6h85h9IGjkSRfffB3vfvt+9mIfBtbUGdR/uUi/z6VN6I/3kPkEvrQ4iwnJ8IMJyfCDCcvTZs2EtXvvL3WiqrcGpv7gOQydPgT257QIxbYk1YZlQ5KVHLoVT18Zq7V5fq7x0rXnBMBAMB0GPYg62p8JAUADWkvJADvjh8XoQ0LJSUttnk/IC1hJDa7i31aJpdQWc2vYJw0xQeOXghMkUmUfnqjjH7l0Ukyvh2lyjPIz9DGXB+M45SSqchqNPelBILkhRP3zyGaWeU+24JHxeH5qbmmEza9vnPc+vtdWvdTnZVm1bFJkZyoNezhSdlajdgS6pOdmKzDMGqTjT0Ybn3iGF5Y3vAVs+DMZZnvQzPTN2oU0iLMc+IizHByIsC4IgCIcjIiwLQicpvedeVP3jH0g+8kgUPfig9gJfcFBhuf6jXahbuBPmNBtyzh8a9LJq6dnWDkRYjg9EWI4PRFiOPus/W4zX/3wXbEnJ+NE9f0WPAYP0JW2DtsSisByKr8GjBr5THsqMIcywF4yZzEH9wtzv/QE/3G63El557nUUFZaixqXEWvfWGjSvr4JnT4O2xARrvnY/ZTgNq1mF46CwywEMKTQnDc9RMZpZRg2wl8IB+GwqPEdH4f3O6XLCpt0f7NYDRSMVm9ntD8agdlEc96n91V4o0FvztOtV28/RhufeIYXl0jXA1y8E+wEzfq9nxi60SYTl2EeE5fhAhGVBEAThcCQxnniC0I0EPG7thdirvYBbYNJeoA8mKgd8ATUYEgdFYnxlW5/0TonKgiAI8URjTTUqd+3U5kzI690XKZlZwQUJhiXNpryEbb1Sg/GD0+3Ke7i1+73y5I3Az/z03uU2k0fmIO24QmTO6q+lAUgemwf4/Gj6phwNX5So55C1RwrSTihC1lmDkHFiH6RO7AnHoCzVbj6fOiMq74M2abaF82FgLGmK2IyxbOuZAnvvdNi1Z2J7Ez2su0JUbjOZfah2A1Xb9QxBEARBEARBSFxEWBaEThJwexDweNQgTGbHwQcP4gBPnvIm9TJtK0wLCg2CIAiHCbVle1G6bTPsScnoPXIMLLboD7h2uGLJTlLhLzKm90PmzP5IO6E30ib2ROq4Hkg7phcyTu6LzFMHKEGZ4qz8yBkhkjIAqwNorNAzBEEQBEEQBCFxEWFZEDpJgHEx6bFstsDkOPjARhwgybO3CXbtJT55ZK6eKwiCcHhQW7oXZdu2wKrdK3uPGAXbIX6MEyIDvZjTT+iN3J+MQt5lY5B19mD1DKKHsxAFkrJVnwCN5dofEXBFFwRBEARBEIQYRWIsC0In2f2r61H1r38h84zT0ffZZ/XcFmhXGQcmKn9qNdxba5E+rQ+yzxuiL+wcEmM5PpAYy/GBxFiOLktf+Q8+ePpR5PXpjx//4W9Izc7Rl7Qd2hLrMZbbC+8NHo9H2dSZGMuxhIqx7HTui5+aCNcTz71Dxlgmq/4LrP8fMPkqoO+kYGiMGIU2JWqM5cdeWo4X3voaBblpeO+Jy/Wl7WP6DZ/qc4KQeCy87zh9rnUkxrIgCIJwKMRjWRA6SYACh9sd9E5qhYAe29Jf71afHNv7putLBEEQDg8aaqpQU7oXVpsDOYVFSM6Ql1QhQUnN11IPoGaH9of4bwiCIAiCIAiJiwjLgtBJAn6fmpoO4rEZ8AbQvLJMjdafNDQbjsGJOWCVIAhCa1Ts2I6akt1IycxEz8FDE2bEfEE4ED9Qsw1Y/xZdgvU8QRAEQRAEQUg85K1OEDqLzw8TPx+12fSM/Qn4AvDsroentAkmuwX2fhmw5iTpSwVBEA4PyrZvRdWe3UjNykHhsJHixykkLmkFQEYhUFus/SFnuiAIgiAIgpC4iLAsCJ2AIS4CPp8SlU328INQMfxF08oyBLx+OAZkwtYjMWKCCoIgtIfKXTtRV16K1Kxs9Bo8LGFiWAvCAeQNA/odz0+aoJ3oeqYgCIIgCIIgJB4iLAtCJwi4XYDfpzyWza14LDP8RfPqCq1wAMlj8mDNS4yBmQRBENpKc309asv3wuf1ISMvX4nLgpCwWB2AIx2o3q51Arx6ptCVbC2uxvI1u/W/BEEQBEEQhGghwrIgdAIO2kevZRUKw36gsOxv8sC1ow6+Rg/MKTY4BmVp08QYdV0QBKFNBALYs2ENGmuqkVNYiLx+A/QFgpDAJGUCKbnBAfwCwbEYhOizZMV23PiXt3HRLa9gw/ZyPVcQBEEQBEGIFiIsC0InCLhcgM/wWD4wFIZnbxOa11bCZDMrb2VLmojKgiAcZphM2LNpvRKWs3sVoUf/gfoCQUhg7KlAZp+g17JX6ysIUeWVhavxg9/8G1f//jV89OVWFWpnSN9cfakgCIIgCIIQLURYFoROEPRYDgrLpjAey549DXBtq4XJZkHKuAKYksOHyxAEQYhXAn4/SrduxravV2D7qv3Tjm9WavlfYde33wSF5Z6FKBgwSF9TEBIYCsvZfYGqbSIsR4nSygY8+t+lOOnSJ3DX3z/A2i1l6JmXhiu/NxlvPvRDTBzTRy8pCIIgCIIgRAsRlgWhE/gpLOsxlk0tPJZ91S649zQg4PHD1isV9qI0mCwyiI8gCIlBTeleJRp/8frL+PyV/+LzV/+Dpdq0Zfr81Rexd+tmmLR/mQU9kZyRqdcgCAkMheUseiyLsBxpVm0owe0PL8DMK57CE/OWoaq2CUcM64W7rpmJdx+/HJfOHo+s9CS9tNAVPHvzUVh433H6X21n9vG91HpXz068L1loF/eLIAiCICQ6IiwLQmdwuwGfH1DC8v7eyO7d9fDubYIl046kIVkwWUVUFgSh67Fo9yemzhNAc30dqvYUK0F5xTtvYOETD+Ojfz6FLSu+QOWunVravl8q37lNTR0pqSgcNgI5ReJBKBwm2FKAzL76AH4iLEeCBZ9txM/ueBU/+e2LeGPRWpU387ihePLO8/DcPRfizGkjVF538srcSUpQPFh68NqxemkhHIZIPWZghp4jCIIgCEIsI8KyIHQCv8ulh8KwwWTf32PZW94Mb2UzzMk22ArT9VxBEISO4dfuNV63C+7mZi01tTE1o7m+Hs0N9fA427Pe/snn8aCyeBe+ef8dvPPw/Xj57lvw1Vvz0VBVgfx+AzD25JmYfO73MKlFMvImnDUHE8+5AL0GD9OtEYQER3ksSyiMztLk9OCfb3yFs695Dr+5720sW70TqSl2/OTso/HmIxfjj9efhgmje+ulu585ty/D9Bs+3ZfI7orm/fKuffAblS8IgiAIgpAImAIa+rwgCO2k6csvsffOufCWlyP3ssuQe8VP9SVA9UsbUb+4GI5h2cj7yShY0u3aFacvjCA+nw/19fVIT0+HxWLRc+Mbr9eL5uZmJCcnwxoRT8vux+VyqWNlt9sTxiYeI0KbEuXca2xsVIM+8dzjNFbw+bzY9tWXWPfpRyjZuB7OxgaYzG3c59pjng/6ztoTCPjh065Nn8dN52X0HXskRk89BX1HH4nkjFDPsvDdCpPJrLVZS51sh9/vV9cTuy8pKSl6bnzDe4PH41E28dxLBGiT0+mEzWZTKZaup47Cc6+hoUGdd226j9cWA38bC1yxCOh5hJ4ZW9Cmuro6pKWlxdSzaVtxFV5euBovL1gNl9ur8gb2zsF5M8ZizvTRcNhbbyv7EDz3HntpOV5462sU5KbhvScu15e2D0Mc7ij0vKWwfPG9K/Sc2GPupSNwzKgcXP/IaqzeWqfntg96GRflJbd7fzEUxpXnDMTrS0rw8Pytem5i0NFjT4/2Ef3SO33utQW28VDwWuIzNzNTwlgJgiAI4RGPZUHoBAGXMXjf/h7L/kYPfPVuJSRbUm2wZERHVBYEIbEp274Vn817AfPm3oIPn3sCm5Z9hvKd21GztwTVJbvblGpKS1CrpXDL2pqq9uxCXXk5HMn/396dwEtW1Qce/7/9vX6v9xW6G7qhgW6aRsEFJYAINBgRCQJRDC6ZQZkZnczHJB+Ms8RoPnHGiTomE2MSxyQaNxRciIqKuxhcUJCtWZpmp6Hpvfu9fvub+t9Xfzh9uWvVrap7b/2+WFbXrbuc/znn3lfn/+47NUdeeP6Fcul/+3PZ/LZ3ynEvPV2GFi16drqN2Uflmhfw6OzqKkVyEUisZ0Bk/iqRAzv0Tw6qCxHlltsfkT/+y2/IJf/l0/LZr9/mJZVPf+HR8pFrLpIv/9Wb5Y0XvjAyqQwAAIDm4o5loA4Hvv992fHBD8r02LgsefvbZOEb3+gtH9u6V/Z+Y5tM7hiRwdOPlAUXNu5LSbhjuRi4Y7kY8nDH8vDePfLYPXfK9gfukx0PPyjPPPyQlxwemDtPVm3YKEeecKLMXbxktnxxP8Erq4zrL8AqP+r7+vvi1w+h9zx3dnZ5ZViy+mhZeOTK6jvNxx3LxcAdyxWj+0S+9FaRjZeIrL9QZM7i6hv5kZc7lr/yvbvk+pvukrseeKq6ROR1550kl52/SU48dnl1STJFuGNZ5w/+yDs2VV/N+tuvbpOv/GR79dXsnat6F/Cf/fOWZ9e95e7d8qf/uMX7d9jdpu7dv/qleBefcYT3b7V/eNKbrkMFlUHF3WXr36ce78XrFwTesWx3Mhu3/CrojmX3jl1737+dCrqzV+e4njf4XD/23wltZde7s//srRu8dTXeR58+5N217W8Dpfs8cGgisk6sLEb3r3Xrr0uLx2V3ige9p7Y8cuCw6VP87R5U5qS4YxkAkAUSy0Ad9n/rW7LjQx/2/r3k6qtlweWXef/WKTAOVh4dA90y95WrZfDUdIOiNEgsFwOJ5WJoZWJ5Znpatj9wrzzwy5/Jtl/9QrZvvV+6urtkyVFrvC+9W1p5XrXhJFl5wgbp6U+efJyuPKYqP+l7ip/X85BYLgYSyxVjB0W++16RocpngJMuFVl8bPWN/GhlYnnnnuFnp7vQf6tli4bk0vM3eQnlxfNrO7/znljW5OYrT1n6bIJXWQLWnY7CTVb6p6nQ/boJR1vXXc+muHATj0FTVqSZCsMSs26i103m+pO8yp/Idssdl1hWYYldfx346zooKe0mxd1jBpVNBZXPz8pr9ewm7N3yaD0ftXzgsDis7tx688dvgspo8USVLwqJZQBAFpgKA6jDzPi4jp6lozIY66gMnM3Ek8PeVBhdC/qlZ/lgdSkABNMvx3v0rt/IT6/9jDf1xYFdO2X52mPlxLPOlZdfeoWc//Z3yhlveLOsecGpqZLKanRkRMaGD1ZfAWganQddk8kHn5q9exkevSv5fX/7XTnvqk/I3137My+pvOm4FfK+d2yW73ziKrn68tNqTioXgSYA3aSy0sSgesULlnjPLn3PTfhqMlF94usPe8/qB7c94z3b9pqE1GSxJlXdu1k/fO1W71mTnLXQhLgmS927h/2xKN2/Jkz1bmujMWh5NGmq5Uvq7of3e8lwdxtN+CqLW5Oxyk3aatyahNV68NPlbiJWy6ZxadlcGq8KS9pqmXQbt551X5pk9tM68yfHrfwWT5Q/ev06745zN/Gt5dJyWzkBAGgFEstAHab1rjlLLPc6ieWnh2Wq8uGve36f9Cwv7+AIQP00qXzH974l3/r4R+XhO2+X+cuWy2mXXC6X/4+/kIve9Sdy4lnnyOCC5w+MAeScJpYXaWL5aZHRvdWF7eu7P3tA/uOff0Wu/JMveFNfqPNefpz8/XtfJ//yv94gF5+z0VvWzpYt7Kv+6zm13IlqCebbHji831mCesHQc59Zk9IkqiaLddoIP01uuvTOXE2CuglxtWPPmPe8bmXymy6+9MMnvOfLz35uCiZNpOr+LZmriWd/GdTegxPesz+RbQld1633ztaVJe6VJo01CR0mrJ7dZH4S7nQhYcJi1HqwO8YBAGgFEstAPcYrH1inp6uJ5dkv75t4ekSmD01KZ0+ndM3vrbzHaQYg2Mi+vfLdT35cfvy5f/buUl62Zq287t3vlVN/+2KZt3RZdS0AhdTZLbLoGJF929v2jmX98j39Ej79Mj79Uj79cr6B/h658qJT5av/9y3yoT++UE47+ajq2u1Dk5c6DYE9gubWDWOJ5re9Zo33rGx6B38SWvfrHkcfzaLJTv+xrZxp2N3Emqw2mmTVO5ldusx/vKC7lcNY3el80cp/V3QW9E5ut3xp60MT3e72+vDfZQ0AQLOR8QLqMD1evWO5p1s6+2YTy+OPH5CZsSnpXjYgXYv6vWUA4PfYXXfItz/+Ubn7hzfJ5Pi4HP+yM+S33/FHsvyY46Snn2sHUHgdlY/Zmlg+tLvy2FNd2B4eeXKPfORTP5FX/v7fy1/+04/kocd3y9qVi+SP33qWfP+Tb/ee1xy5sLp2e9Hkos2Lq/Po6iNo6oQwlvB0k4yaVPXPyat0v3YM9+FOp9Aoeidt0LH1kfaOXr2bWGPUO481fk1a253MRpPPQcfSh//O6TB6d7Idx39XdL10ug6b89rKZVOgJKXlc+NyHwAAtAqJZaAOM2Nj3hzLUp0KY6byz4nHD3qJZZ1buZvEMgCfsZERufP735Fbrv+8bPnpj2Rg3jx58YW/Iy+/9A2ybM0x0tHJj2agNHQ6jDmLKif+AZ33prqwvH5+x6NyzYe/KRf/50/Jp2/4lYyMTnh3JOudyV/56zd7dyrrHcvtzKaJqGWKC2XzHEclFn/0m53e8ynHzd59mwVLzrp3DhtNxrp0ugxN/vqnoKiV1ZVOPaExafxuslhf+8tQC5u3Wqfd0MS9/65oPz2u8tdz0JzJWj5dv9ZEdVYxAgCQNUavQK1mZmRmbNyZY7m3MmgUGX/sgEx7dyzPIbEM4DCjBw/Ilpt/KD/78hfkgV/eIiuOPU5edOHvyItec4ksPXptdS0ApaJf4DdxSGT/k9UF5XPDD+6Rt/zXa+Xq931ZvvNv93vLLj7nRG/uZJ1DWedSxiybE9dNuqaZCkNpgtGdDkEf17//tOq7s0lg++I6f5JT13OX2bzHQV8c6KdfUqfHduch1mP72Zf7/dlbD/+SQD2uW840NB6dpmLjmnnPzodsLCH8z+851Xs2Wk7/sig27YZNoeG/K9pPk8S2vrWnxhjUngcOTRyWGNb1g6bCsHmh/e2mdzdrv7EvKjR6B7x/GQAAzURiGajDzPi4d8eyl1ju6ZHp0SlvjuWZqWnprnx47Jr//C9hAdC+7rvlJ15Sec/2J+WIdcfLmVe8xUssDy3ky/mA0tLpMCZGRA5m8yf1ebF734j8w5d+Lhe8/f/Jn/7Nd+Q3922XJQsG5erLT5ObPvE2ed87zpdNx62org2j01BoMvIj79j0bFI4zVQYur0mp//wY3c+745lN8mr62ki2D/P8mduevSwu2b1bmBN2mqSU9+PSlJqwlj3aevqQ8uuy/zcMtnjys1HyaV/+nNveVo617EmZjW56r/bWxPCejx/wl0T0W/9n7+urpWMJa21jdy7osPo/t321PrWsugyl66n7WZl0/WD2l3rWLe1dtPEsdI20zb3z7OsX8TYjKlNAAAI0zFTUf03gDQqp87TH/ifsufaa2Xw5afJknf8gXQMrJad/3indHSILH7TidK/ofHJoqmpKTlw4IDMnTtXurq6qkuLbXJyUg4dOiQDAwPS3V2Ob7oeGxvz2qq3t7c0MWkbKY2pLH1veHi4cv52eH1Pn7O07bZb5edfuVYe/s2v5cjjN8hr/ss1sujIVQ2f+mJkZESmp6dlaGiouqTYNBY9n/Tjy5w5c6pLi02vDRMTE15M2vfKQGMaHR2Vnp4e75H1+dQK2vcOHjzo9btU1/HbPyfyxK9E1p4pcuLvVBfmg8a0f/9+7/qQNKZ7Htwh1990p/cwJx67XC47f5O87ryTqktaRz9DaN/7+Bdvlc9+43ZZvnhIvv0PV1XfTceSo3mid+BqgtKfTNS7czXhq8nKrOYFbkd2x7Emy+3O67LSxHQcPZf0Z+78+fOrSwAAOBx3LAN1mB6vToXR21MZRXfK+OMHK0tnpGf1kHQOtfccggCec2D3Lrntxhtk269+IUesO0HOeevbm5JUBpADi9bO3rF84KnqgmL6wS8elHf+xVfljdd87tmk8jmnHSt/+z8ukc/97ytykVRuB+50Cq5lC2f/Sm7rE8PeM2qjc1iruGkwAADALEa0QD3GZ7+8z5sGY7JDJp44oHll6T1yrnQOklgGULlETE7IzZ//lHen8pLVR8umc86XVSduIqkMtAudCmN8RGR/8e4inZicks9/83a57F3/Iu/64L/Kzb9+WPp6u+WNF75QvvxXb5aPXHORnP7Co6troxn0bmWdDsGdo1n/rfP8Jp2+AeG0brWOqUcAAJJhVAvUYXqsOsdyX/WO5ccOVBbOSM/KIRLLAGRyfFxu//Y35P6f/dSbCmDDma/0HmWYFgBAQkPLRWamREZ2Vhfk32NP7ZOP/svN8srf/wf54Cd/KFsf3SVHHbFQ3vXmM+X7/3i1XPPvzpZjVjE3fCvoHMXunL760H/r1A1p5xPG4ewL8+5+mKQyAABJkVgG6jCj83xOT0lHZ7fMjHfI5K5Rka4O6Vk+Rzr7yjHnLIDa6Nylj99zp/zyhutkfHREjn/Zb8mGM86WOfOYpxBoO/2V835qXGQ839MU3Hr34/Ke/3OjXPSOf5J//uqtcnBkTF5y0ir54B++Wm74m7fIWy5+kQwO8IvzVtMEss7/7D7KPh9wM+jc1NQlAADpkFgG6jAzMVH5v2mZHu+UqRE9nWake36fdM3tnV0BQNt66sH75dZvfFUO7NolS1avkZe89lJZevTa6rsA2sr8VSLd/SK7t1UX5Ms3fnyv/P5//6Jc9afXyY033+ctu+jsDfKpD7xePvG+y+SC3zreWwYAAAC4SCwDddA7lmV6WmZGRab2T0tHT6f0rplXGTxyagHt7MDOZ+S+f/uJPPCLf5P+oSHZfNV/kqVHH1N9F0DbmXekSFevyN5Hqwtab9+BUfnkl38pr7/mOnnvx74rt215UhbOG5CrLn2pfOvv/738+X++QF5wwuzUAAAAAECQjpmK6r8BpFE5dR6+4o0yfMvNMnTelTJw2ptl4rE9Mu+Co2XwJSuaNhXG1NSUHDhwQObOnStdXeWYfmNyclIOHTokAwMD0t3dXV1abGNjY15b9fb2liYmbSOlMZWl7w0PD3vzH2vfC5oHefzQiDx5/73y+Ja75eCeXTI9Nfm89TordbH36afkqa33V37KdsgZr3+TbDrnAumt7LMVRkZGvGk5hoaGqkuKTWPR80k/vsyZM6e6tNj02jAxMeHFpH2vDDSm0dFR6enp8R5lmFdc+97Bgwe9fpf6Or71uyIPfm/2zuWXvaO6sDXue+gZuf6mO+W679wp09VhwPq1S+Wy80+uPDZ5r4tMP0No3/v4F2+Vz37jdlm+eEi+/Q9XVd9NR6dFAMpK5+eOo+eS/sydP59pvAAAwUgsA7WqnDoPXXqZjPzqZzLw0jdK/wuvrIxmRmTxWzdK76q50tHVnEE0ieViILFcDIdGx6Srp1t6q/Ec3L1Ldj3+qOx87BHZ9cRjsu/pp2R43x45uGunjB0akZnp6cpah5/rmkAbGxmW/sEh74v6zn7zVTIw97lv7282Esv5R2K5GOpKLO/YIvKbL4hMVK6br/7f1YXN9aNbt8n1N90lP648m1e8eK28+ox1cu7LTyjNzyYSy0AyJJYBAFkgsQzUqnLqbLvoIhndskX6X/AG6d1wiXTPm5Flf3CKdA40b3BGYrkYSCwXw47HH/OmsZgYPuA9737ycdmz/Unved+Op2RqYkLmL1sh85evkKFFi6W7p1dmKv/5TU9OyaKVq+SEl58pK449rrq0NUgs5x+J5WKoK7E8ul/k3/5a5MnbRa68rrqw8aanZ+RL37nDSyjf//Az3rLurk659PxN3t3Jx65aJPv37/euD2VLLN9822PyJx/9tmw+/Xj5yz96dfXdYrLPEHY+lYG2kZ5TZYpJPxdpTHod7+wsx7R4JJYBAHFILAO1qpw6W8/fLJPb90vfyZdJ77pzpHd1nyx9W3P/jJTEcjGQWM6faU18DR+UscpDn/fv2CFPbL1fdjy0VXY9+rDsfeoJ6ekb8O42HphXeVSe5y5aIouPOlqWHrXWSxz39Pd71wI/b2A5NM+bX7nVSCznH4nlYtC+V3NiWf3kwyL3fE3k6h9XFzTOkzv2y3XVhPK+g6PeslXL58ulm2cTynMH+7xlGhOJ5fwjsVwMJJYBAO2IxDJQq8qp88DZr5DpsQXSd+LF0nfcKTLnRYtk/uaj9W/hqys1HonlYiCx3HqaSNY5kacmp2RqfNy7C/mJ++6RJ+/f4s2bPLx3t3RUBoLdvX2VNuqR3jlzZOnqNbJ83XFyxHEnyIpjjpM58xdU91YcJJbzj8RyMWjfqyux/MtPitz2WZErPi8ytKwhnxV+veUJL5n8jR9tqS4ROfXElXL5+Zvkt89cX13yHI2JxHL+kVguBhLLAIB2RGIZqNF05YPWg5vPlY6Bk6X3uAukd90amb95tQxsXFw5s6orNQGJ5WIgsdxaE2OjsuOhB71Esj6efnCrjOzf5yXydJ5kfcxbuty7G/nI4zfI6g0bZdmaY7wkc0dnR+WUrvxXeW7qyZ0REsv5R2K5GLTv1ZVYvvsrIndcK3L6H4isPk2/6bP6Rv1u/Mm9ct1Nd8mv7n68ukTk1Wet9+5OPnXDyuqS59OYSCznH4nlYiCxDABoRySWgRpN7d0r2y58lXQd8RrpOeos6Vs3Xxa9cb10L5j989JmIbFcDCSWG2vnow/L1lt/LnufelI6u6tlqfx06+7r975ob8/2J+TQgf3eF+7p1BeaIF505Eo54rj1smztsbLimHXenMkTU5VBbn+/zJu/QLpKMtAlsZx/JJaLQfteXYnlh34kcud1IqtfKnLyG6Rykam+UZsDw2Ny3XfulOtvulMef3qft2z+UP+z010cuSz+S0M1JhLL+UdiuRhILAMA2hGJZaBGk0/vkIevuHI2sbzqNBk4cUgWv2Vj9d3mIbFcDCSWG2N47x7ZcvMP5ZE7bpOnH3pQDu2fTa4YndpC71bWqS0WrVwti1fp42hZsOIImbt4iQwuWChz5s2XgcpDjY6Pe9Pc9Pc19xdEjURiOf9ILBeD9r26EstP3Sly95dn52U/+z36m6/qG+k88MhOb7oLnUN5cmraW3b8mqVy2eaT5LLzT5ZO768rktGYSCznH4nlYiCxDABoR+X4iQc0W+VD4/T4uHTOPVI6uudI52C3dC0uRzIAKAJNID/wi1vkZ9d/QX7x1S/JPT/+vkxNjMvK9SfK2lNeImtf+CLvseYFp8oLN79azrjiLXL67/6enHbJ6+Ulr32dbHzFuXLUSS+QxauOejaprKYmJry5mPmdK4DMDSwUmbNEZPc2kZnZhHAaN//6IXnXB/9VLv/Dz8gXbrzdSyqf+aK18lfvea188cO/J7/7qhekSioDAAAA9eKOZaAWU1My9tBD8tT7Py0z3etl4JRNMnT6Mhl80fLqCs3DHcvFwB3L2RgbGZH9zzwt2379S7nrB9+RJx+4z7vzeGjhIjn+ZWfIsS8+zZvSQpPDqqurW+YtWVr5aZcs2TI8POzdWal9rwx3WCruWM4/7lguBu17dd2xPFG5Zm75V5GfflTkqu+K9CTrvzbdxZZtO7zXnZW69Ka7uGCTnLCmcn2rg8bEHcv5xx3LxcAdywCAdkRiGW1NB/I6ANEPgfoBMGmCbKayzdh998szf/dTmR5bKoO/tV7mnbNSelfPra7RPCSWi0E/lNsAqlyJ5Y7KedPT8L6nieLJ8VHZcvOP5bZv/avseGirdHb3SP/QkBxzykvkJa+9VJYevba6du1ILOefxkJiOf9ILIfY9gORa98k8of3iPSFz4H81M4DzyaU9+yf/SXeEUvnyaWbT5LLzz9Z5s/t95bVS2Mqa2K5r6+vNAlLEsvFQGIZANCOSCyjbWnX/9rXvibf/OY3ZdeuXbJixQq5+uqrZcOGDfEfcKcm5NBdd8nuLz0tk7u7ZN75x8iCV6+Rjt7mJ3ZJLBfDuE6xUBls6C8v9G6zMhitDDQ0WaQxNTKiyYlxeejXv5Sff+062f34YzI6fFC6K+fo6o0ny8svu0KWH7NOenr7Et+VHIXEcv5pLCSW84/EcognfiVy3e+LXPEFkaXrK9etw5NPv7nvSW/+5Bt+cE91icgpG1Z6CeXXvGJDdUl2NCYSy/lHYrkYSCwDANoRiWW0ra9//ety7733ypo1a2TTpk2ydetWuemmm+Sd73ynrFu3Tqb2jMro1r3S0e0bDFcGgTPj4zK27VE5dPeETO0akfmvXSfzX7WuukJzkViuzaHKQPrph7bKwd27pbPh9TYjExOTXtKou7tr9ngluPKOT4x7z91d3Q0ZQHV0dcrIvr3y1Nb75fEtd8n+Z3bI5PiYHHPqS2XTOefL6pNOlsF5C6Qzwz5CYjn/NBYSy/lHYjnEjntEbny3yGn/QeSYs0V6B73FU1PT8h///Cvyizsf816rV51xvPdlfC/euKq6JHsaE4nl/COxXAwklgEA7YjEMtrWu9/9bjn++OPl9a9/vTeg2rNnj7z3ve+Viy++WM449yzpuG9Ydn7xXuns9yUddXBc+dA4fWhcZiZ6ZXLPE7LgouNk/qtOqq7QXCSW03l621Z5fMvdsn3rfbLnyce9OXs7mvBlR96ltvI/L7lSjnylzEzP/vhoVEwdHZ0yPnpIDuzaKWPDB2XNyafKuhe/TFZvOlmWrzlWuvv6qmtmh8Ry/mksJJbzj8RyiD0Pifz4wyLLTxQ5+Xdnv8yv4pbbH/ESy0Nz+ry7kzWhvHpF4xM5GhOJ5fwjsVwMJJYBAO2IxDLakn4412kvLrnkErnwwgu9ZfpB8GMf+5gsWbJEXrH5bFmxf57svn6rdPT5PxhWBscz0zJ94KBMbH9SZsa2y6IrfksGzj21+n7zDR8alcGBbOZbzIvRiQnpz2igcWj/Ptldaaudjz4sj951uzx2529kZP9eGVywSObMX1BpzvTfzp+WXWpncyvlSFg2K6be/gFZsvooOe6lp8vaF53W0OrTwZMmwHR6j7IYHx/3rm/9/eW5RmjiSGMqUztpTHpOlSXBovR80njKkmBR+ouaun6hMbpL5FefEjmwQ+TMPxIZfO7L9+584ClZv3aZ9HQ3t740WV6WXzwZSyyX5ReEer2zxHJZaDwaV5li0l8Qakza98pCfzbp54iy/CIXAJA9EstoO9rl7e7k1772tbJ582ZvuX5wuvbaa727Dc4+7xw5emCJPPbDO6Sz5/A7eHSQMjM5IeOPPiYjt/xMOnrGZf7F58jcc86Q6UOj1bWaRz/A6l2Wg4OD1SkWin9KT1YGG5qQ6K98MNc7qOq5TE1WPuQ/seUuue+Wn8gT994tM9Ih3XMGZe7S5bJyw0ZZsOJImZmabtjMFDqknan8NzU55cWhd5V3dnUWuplsmD5ROQ+UF1NnY2KanpqUwQUL5aiNm2Rg3vxKPU427BcBem7bHcuahC1LQsLuoNLEURl+5GssOsjVWMp0d2+Z7ljWc0d/pup1XK/hmjgqw/lkP2+1jfS6lzqmzsrniUO7pXvb92Ro6w0yfvq7ZHrx+koHOPyzQ+XDuUx0DlQefZXrbWPPWY3J7sLWdirDNULPJ00s6y+e9FGGmPSap3Hp+VSWmPT6oP1P+10Z7pbX64H9vNXPEGX4hZrGpOeS9r958+blst9pmTSRr+MgAEBrkFhG29Eu/8wzz8gHPvABueiii+Tcc8/1lusg+Prrr/eSzhdc+BqZ3v6IfPa975b+wZC7eCoftmanUKgM+6amdXQ2u7wVtBhlO5MzjKmj8uFeH509vdI9f5EMrDlW+pYeIR3NGkRXDjE5pQnR5xLLZTAxPuG1kyWWG6bSRtpOjW4rHUDp4EmV7Q4qVYZkhLaRDto1waKxlKGd3JhUWRIsGpP2Pb0+6KPo3Ji0jWq55s10dEr3zKQsGX9Uznz6n+SJ/hNkuGuhdMps25uumQl5bPAFsn3Oeumanr0mNYqeR3rd03NJ26no1wilMVg7lSUmvT5o/7Pzqegx6fmkn7vLFpP9glD7nr4uOotJ+58my/PYRnr9Wr9+vZx11lnVJQCAZiOxjLajXV7nE3zPe97jzad8wQUXeMv1A+5nPvMZ7wPUq15zkYw+/IB85r//sfRH/Xmofmj0zqDK/+lziz5DdlT+07tiyySzmDSZO2dQeleslP5Va6Vn/kKRaqK5mbR/aTRdmuBu8rEbRWNSGk+jY/J6QoN/XOkASgco+lyG5J5yB7plSSxrDJZkKVOyXB8aS5kSy9pO+m9NGlnbFZXFpOeTJmH1dXqVbSr/65sakY37vlv5EF7px1Kpm+q7pmtmXB4ZPKXhiWVrE5uypAzJPaUx6M+nsiQslZ5LGof+rC1LEtb7XFSJQ+PRuMoQk/28Lcsvp62dtP/pXcF5bCP93LZhwwY5++yzq0sAAM1GYhlt66qrrvLuWNbkstIB44c+9CFZtWqVvPKcc2TJvLmyfduDOb+7VAe6U8/O+Vj8wYYOr2eTRmNj45UPsb1ekqXemDo6K4OWvn7p1OkNuqr7a3I96Qdf7WM62MgipjzQP4/UQYfGU4aYNBb9M3cd4JZlPmKNSa8P2jb6Z6JlaCO9PujgXc+nskwbYTFp+5Sh72lMmozQ655dH3RZkVk76fmkbaQx1UZ/bVrpu1P7pXPm8DuVnzMjY52DMt41p/JBvbF/DaV9Tr8AWK8PZbiOq9nPEGPeL570Z24ZYrLPENpGZYhJzyebCqNMMblf3lf0a57SGPSznv580i8Jz2MbaZm0vvlyQQBoHRLLaFvvf//7ZenSpfK6171Oli9f7k2Pcc0118iVV14pZ5xxRqG+eGOk8uF8Tom+KESNTU5JX3fx/3za6EBDB7tluYtF2R3LtSdY8kcH7zqQKlM7WRK2TF8mpOeSxlSmdtKY9CNZ2c4nbaMyJFiMJo7K8AsNl31PQ5lo0rJM17wyfobQmPRRpmuefi7SmPSXGmVhv6jhy/sAAGHK8ffYQA3OO+88L+Fyww03yPe+9z258cYbZdmyZbJ27dpCDUb0A994ZaCrz2Xh3el2aOTZxGUZaF/TRxljKlPfs5jK9DtXi6ksdNCuCcsyxaTnUNnayY2pLOeT9j2Np0zX8TLGpLFY3ysLi6dMMel1vGzXcmsjPa/Komz9DgCQPRLLaFunn366bNy4Ue6//3759Kc/LXfccYe86U1vktWrV1fXAAAAAAAAABCEqTCAgtO7wnR+RJ37TOdYLgO928j+3LgsfyKpf0aobaV/HlmWmLSNlMZUlr6nfxKuf7ZflvkRlc4Jq3dPDUV9EWmBaCx6PunHl7L8aa7d3asxlWWaBY1J5+bUP90vy3QY2vcOHjzo9buyXMc1Jv1CY70+lCUm/QyhfU//+qwsU0fYZwg7n8pA20j7X5licudYbvSXGjeLtpP2P+YwBgCE4Y5lAAAAAAAAAEAqJJYBAAAAAAAAAKmQWAYAAAAAAAAApEJiGQAAAAAAAACQCollAAAAAAAAAEAqJJYBAAAAAAAAAKmQWAYAAAAAAAAApEJiGQAAAAAAAACQCollAAAAAAAAAEAqJJYBAAAAAAAAAKmQWAYAAAAAAAAApEJiGQAAAAAAAACQColloARmZmaq/yqPssVEGxWDxlTGvlemmCyWsrZT2dqqrO1UJmWLR5WxnVAMXB8AAO2mo/LDgp8WQIHpKTwxMSE9PT3S0dFRXVps09PTMjU1Jd3d3aWJSeNRnZ2dxJRjk5OT3rP2vbIoW0x6zdNrhD6XLSbV1dXlPRedxqTXCL0+6KMMNCY9n7SNyhRT2T5DlLHv2TVP26gsMdlniLLFpO2k14gyfdbT/qfXCAAAgpBYBgAAAAAAAACkUo5fDwMAAAAAAAAAmobEMgAAAAAAAAAgFRLLAAAAQMaYbS6ftF3cBwAAAGpHYhkAAABISZOS9qWLfpawJHGZL5ZMpl0AAACyQWIZAACUCokjNJr2L00qh/Wzjo6O6r/Kk1wuUhxR7WIPew0AAIDadVQ+eDHyAoAmGR0dlT179sjk5KSsWrWKQW2OadJoampKenp6qkuAxpuYmJCxsTGv3/X19VWXIo/0+qC6urq856Lbt2+f9zw0NPS8mNzhQt5/bmlZ9dHZyf0zQFb0M9H+/fu9n0v9/f18fgUAPIvEMlASOsAdGRnxBoP6oU8HVHzoy5/x8XE5ePCg9zw4OChz5swpTVKiLDSxp4l/Tex1d3dXl5aL/ejnGgHUzu5YLss1XH8u6TUvLCHrDhnyfO3QcuojaWJZ1y3ztdDaLa8xar/bu3ev114DAwNe0jLpOWVtrfL0iwT9DKGf9fTzeG9vL5/zAAClRmIZKAlNhukglzvcgNrpj0T9JU1ZE8rIF/sIRoK/mPRnrj7Kcr3QWFSeEnS1SHte6fr6KHrcYfIe3/bt22Xbtm2ycuVKOeKII1J9jtW49Ge2tnWekreaLNdyaaIcAICyI7EMAADQAmW74zUr9tE0zwl3LaO1X1hi2eKw57wnLi2movdHq++4/mMJSV1fn8uYWNbY8t7/tM9p/Qe1l7VNFG1HZf02yTaIZ/3GrcugZQAAlPNX8wAAADlng3QcTuvF7p7NIy1fXNvZOvrQJAyJmHyxdjFx7ZlH1r/i2C9A8koT3rWeHxaXGx/nWja4bgEAkiKxDAAA0GRBCZGkdJtatisCiy0P8cWVIep9S8pYYibvCZokdW7raKIyz4l/FReLtoeb0Mx7+4RJEqc/trht8qSo7VJmtAkAwI/EMgAAQANYEi6Mvl9Lkiduv2XQ6uRXXP0mKZ8l9ZIkYlodbxwtnz2SxlQEZYkjjPUrt3+VPWZkxz3vFX0HABCExDIAAEDG/APyrDRqv3mS1/jcMtndrmkSLWEx5SXeqDJYrBZvmrhbIU358h5LlCKXPam4c0N/CWTr2LkUtw1qR90CAPxILAMAADRAoxIcZU+cuImivNFyucnVtIm9oDuh89CeSY5v8SaJOa/tF6Zo5VVp+16RRbWPvmcPlbSPojZxdeu2hfG/BgCUC4llAAAKKmgAh/zQJGLYlAqW/KglAVL2dq/ny7yyEtQ27jL7t3+dIFNTU5F9IQ+SxuIK64PN7p/1HKvZZW2EuPJrv7N1LN6ix+xy+26Z4mqmsH7hvy4kqV//NkFoJwAoFxLLAFAHSxgAzaYDs7wnq7ISNOAtAjehEyTJADxI3H6LymKqpU6ylqQMWt6480/Xcfflbzd77V/eCrX0x6D4NZZmxZNV/eWh/usRVX59zx6qlnbOK41JY3HjQ+3i6tD6TZq6Dlq3LP0PADCLxDIA1MEGNEAraN8re//T+DR5FZfAyxu9NnR3d3sPP2s3XaeWAXYe7uhtFI1L4+vp6akuyR/rk0nOPYvH2sttN7cPdHV1VZe2RlD5wuTpDuyg8toyO8/iJFknj6zcceXX+nDrpEz03NKHXmf9fUFj9cdry8pWD1kJOp9U0HKrw6D6tGVBywEA5UNiGQDqoAOaVicE0J5s0Fa0hGstggaoRaDXhrDrg8WTJBli7L2wwX8ZWHxFiTGsrfzC4slbvHHx+Puff317HbefLAXVn77WMiQpRzPL2ihhMejyNHVRRJZcVm6MQf3ClLUuahVWT0lE1bMpc/8DAJBYBgCgkHQgF5W4LBMdkNaSQM/rQNYG4v4BuZU3qtz2y6w839Fbq6D6yGMbuuV0yxvHv667H9XKeO3YccfX8moftHL7y28x5eW6lDQeV9w2eeHWvftvlyVd2+GOXi2zxRhX/rD6ykJR6y+NpPWsdF17uNqhngCgXZBYBgCggHSQZknGsqt1AOofyOZJ0CA7CV0vaJDeSrW2TxzdZ17vyK+1/qPqKc/x+oXFrzHkoX9aPUfVtwp6P0/nVpwkdW3JZeXGG7VtXL3lVVy5G922enx7lFnaerbX7nZR/Q8AUCwklgEAaFNpB8Bp18+CHk+Tbc0+bitYUjFssO0fiLeiPZohaZu3OvY0SZGotmpFvP59WSxpYvKvq6/dZXqMLMuclB7TymIJVTxXL/bvKG47tpq1ZRTraxZXq8ofdNy4us6LJPXscus7iH9/uq69LkqdAACS4dMWAABtSgd3Se+QtHUnJyebPihMM9gtKv8gPIk07ddojeoTYfu15c3ui/WKK2+z4g3qa7WcZ1Hl0fda1T/12LWcU2UX13+KVF8aixuP+zouzkaxMrjHL2sf1HNbH2nqulXtAgBoLBLLAAC0oaABcBQdHNufVA8PDzdtgGjJobIOzl1at0ljTdJ+zWqjrLl1EFYXtk7Y+41Wa90GlVeX2bmlj6B2rSdO21+SJFDS4wSV0SQ9Vtz7tdIY3DjijuOWVZ/t4Qpbngf+eIP4y5+0nfNoamoqsH8lqQeVdL161NtP6t0+Cbc/GFuW9vhx6/vfL3L/AwA8H4llAADaVNoBpA4GWzGnczMSAUUU1X72niZgisjaXB9p+mgrRLWD0Tg0aRx1/rjxBrWbvZ+GlU0fabdNIi7usPdtedz2WYk6jr5nDxVVz80qbxbcmJT7ukhxuLTc1jZuPKaocbmC4gqSdD2Xu35UP09Ct7UyJCmHu16S9QEAxUFiGQCANpV0QOg3ODhY14DUL64ceixNyuFwUfVmSQMb/DdSo9qnlW0eV2dWr+4jjm6TRJJ9JWV9wI4dVQZ7L2k8YeskOV5UObJiccTF4pY3at24/cS93yx5uaO3EfWh5dLrgpXPfdbl3d3d3muXlsNfFltWSxnjtklyB3wciytqO13H1ksrbXn87Nj6izJ/GaLirbW8AIB8Y5QGAEAJ1DJQDEo+JNGIwWFUOWwQ64oavLaLuPazemtEe2GW1a2/HWrtm43o01H9wH88XUeXJSlH1DpBx/ILK1MjhJVVlyeJOWk8rWbx2L/9MUXFWCQao7++3bhdQevWK6oerd5tnVqOH7X/RkpTTk3k2y//3PJGxRv0lxgAgOIjsQwAQAmkHbiqWrbJmg5IoxKkWkZ3AKt0XduubCy2JPLQfo2mMeY1Tu2TWjZ/e2m/rLVvNiNeK29UP4vrg1pG95wM0up2c48fVha7tuidrknKm/TcbBVrF4vFfbY4/TQmf1y2LM/xBrWXLnOXt6L8bhlqOb4/BhPUHrYs7XGC9m/Cjh9Gj23rR5VD1wmaCqiW8gMA8oXEMgAAbcgGg3kY0GkZ0ibibDCah/K3gsadl/ZrpDQJjiwlOa6u4yZXs+qPut9Gxx12vln54+JIul6ruUnWMLqOtWPe40kqqA/Za3+MQeuaeuojbJ9Z0bLFlc+N2V2/UWXT/eu+3WPVyr+97rfRdVqruFjdcvvrJs9xAQCSIbEMAEAb0kSK3j3U19dXXRLOPxDMWtz+/QNPXVcTY/pctgFp0kG2tV9vb291SbFY+5WBtpebwKwnLttHkj6gc+mmOZbNvWtJZf8x7HzShyVa40SV08pWlHa2+MOkqZc8CIpFl9kjTivbrdZj23ZJ4msE7R/6CLoDXsvmj8uW+Zf728j/fq2C6iXo+LYs6Ljucv96cfUeVCcAgOIjsQwAQJtyk2Fh/APHRqhl37ZNI8uVd5bEKBptM01uxvW9otA4/LHUG1tcv9b39Rj6nOQc0HXsfHfPe7ectj99dpdHiTp20n3kSVw8RYspSd8IonEm+fnQKhaX+6yPsPIGLddljYjPvS679R91PHe9ILadxWnrZ1H+oHLZsqD9u8c39tq/3E/fd/cbtH8AQPGQWAYAAJGCBpJZSpvAcMvDwLQ43D5UhnazfmixWHyWVKqF7dP2FUaPaedN3N3f9p6u6z6C2PKw911xx9V9pD23G0GPH1cGi6OetsuTrOJpRdtF9SmX9S/7d1xZk6yTJY3DjhcXU1i5kpY3bD09rj2yELQfPXaSfqbrWTmTxgUAKIZyfHoCAAANoQNJTSDpn9E3StpBpg5idRqIsiSB2oklJsrSdmF9t1mJEztOVOJI34t6v1ZJEsv60PXyyK0XLaf2yWa1W6NZ3bdKPf0tSbktvlbGmERcPaQtf9j6YccJW7/ec9J/vHraGwBQfIzIAABAKB2YahI36Nvcs6D714SOzkmZlG6j6zeqTGgMbTdLdNhz3oUlTNzl/nXSxBa2bZp9xK3bqLrW/cbte//+/bJz587qq3ywuaZJhuVbI9oni30m6fd6HHuoRp2D/uME8ZdX17XXUduFcc8d23fQz+K4cgEAyoPEMgAACKWDRrtDuFFscIr2UJa2joojaYxB69VSP1EJnEYkeHR/Ws64/R46dEgWLlxYfdV6Vm6lz7XUNZonSb/VdWy9qPWT7KsebjmU+zrLY/v7rSZ60/6ipJ7yWFz2sLLYa2Pl9C8HAJQPiWUAAICCY+DeGG4Cx+VfHlf/9r4lWeLWDzuuX9y+khzP3rcEVRJaPv1lU09PT3XJ8+k+Fy1aFLlOs2m59Rdlaaa9sPqxBxovaduYpO3irpdVW4bdAa8xJIkj6XpJxMUUVMa0grbxL8uqbgEAxUBiGQAA5JIOThmgJpNVYgLpaR/VxFJcGzSyLwftO8n5Y+voQ8uftB/pepagjZI2qRxX3mZz6ycP8lY/YbK6HiXdT1y9BLVjVmV0zwF/OeLKlQWNIyi+MO56SdZ3udu52yb5NwCgvEgsAwCA3NEBaZo7KIFW0H5qyZOoJIomf9xEVlRSy95z9x0lbp0k5bJjRpUrrbT7ShJro4Qdu5H1g2hp6jruFxy10D5h/SLuHLJfslg5bFnQdwe4+zW2LOo4QfQ4+tC/HvDXV9T+/OsmZTFqXLoP//79+w0qk4kqHwCgWEgsAwCAXGLgiaJI2k810RKU1PFvb0mbJPuNWifJ9lamoHL5JdlfEkH7SXL8RtCyRMWVpn4aLQ9lyBurkyR9M23/Tbu+yy2Xu5+s+5Kb0E56nHp+YRt0PDuWPpLGG7YcAFA8JJYBAEAu6eCUO5bRav5ESRB9P22ixPYZte+44+rxLMkTRN+rtVx+ujyuPPVKUs5GlyFO2Y/fjHbOmr+PB5Xf/VliMUbFGXbeBG0Xtr8k5cqK7tuOFXUcXSfoy3iDyh/FPZ7LHzMAoPxILAMAgMSiBp5pB6Zxst4fUKuofqgJq1r7adgvTmx/cfsNW09fW3KnlkRPULl0n3HlSaLefTQiaZVF/TRTFu0QpdH7b7Sg9rT+a7ElPS/8dZF0O1fUL39U2v2FiWs39zhuXaha4oo7nl9WcQIA8oXEMgAASCxsYKgDTE22ZJVw8Q96gWZz+3RUX7S7gpOyvq2PoGSOHUuXxyWkjH8f9tr2738/yNTUVKbncJik5cmbZtVPEo2qP+uXRRVVL26/88docfuXu9uoeusmafmScMtr/7bXcfvxv2/bJeU/nittHACA4iOxDAAAMhE20KyFDkzTJuzQOFm1a1FlGb8lXty+HfRv/zpR4sqX5H33WP717XXcfhpBj9mK47r0+FH1UwRJ6zHuFylFpe0XVwdxcVsfsP3Y+knP0yy5xzf22r/cL+l6Ll3XXT/NtgCAciOxDAAAMqEDzSzv5tPEctI7NtE47ZpA0GSRJYzCEke6XPtoT09PdUlytn9//bqvw47rimofey9uPxaH+3BZWYPmZq2Vli2u7PpIUgf1iiqHsvqxsjSjTGHqOXaSOP37j9umCDQmbT/tv0ExmrTL/ZKup6x/u5LWta7nP5a+9p+3QXQ929b/HEXXcctn9QkAAKM1AACQiaCBcq1s8JtkwAs0StKESz3q3d7uMM3q/As778KW1yOqvHa8rK4pWag3/jzFEsTK55YzKOa8xxFE47DEqz+mtO0atn6aetF9pD2uyeL4aRWxzQEAzUFiGQAA1E0HnVn/CbUOnpPcgYXGa5ekQlCctSZ/amHHT3Pnv54j/vNEt7d91JPA8suqH+h+8tSn0tRPrXUZFq/O3dwsWfWDqP3kqV2DZFUHjZC0bHb+WF3rdvoIuoPYXc+v3uMl3R4AUG6M1gAAQCayHmQycM2PsMRE2eSlv6Uph7uum/jRZHOW8TSiDxS1X9Vbbnf7Zk0n0Ii+HVQPjThOM2i56yl7ku21vuxh/K+T0OPYNra9Hdu/v6ByuesnEXU8AABILAMoLPeDM4DWssGrDTaTnJ82QEV+tVsb+WPV19av66mHJNvasdLQ9TWBbMnJsO3T3AHdDFbOpPFa/emzPWpV77b1bK90+7TtnKW48rt/eWLxBm3jLgt737/clgWtj3SCfnHkfx1Xz2n6Yda/qAIAlAeJZQAAkAkddNrAM8kA1F0f+dVOiaCg/mix19NX47ZtZP3qvutNLFv5/OVsZLmN/9j1XDfC4kgr6fb+9eope5aiyq/v2UMFldnej+pXzYrVLWuYuPdrlUV8tezDH4/tw5bHxZv2mGHHAwBAkVgGUFh8sAXyRc9J/1yvKD5NKrh3MbYT7dP2qEdY3YUtT3o82z5q/5OTk4etZ4847jr1xh8k6T7d9eotR9D2tqyWeomTZdnrZeWOK7+W060TV9LY09RRPeKOo+83qiy1tKdbt8rKlnZfth97uDE2It6o4wEAwOgPAABkwgadLh2AMggtNk0q61QL/rYturz0S7cctZQp6Bxz28ret3Xc89S/XZig9ZJum5Ws+p8bv9HXbh3FyaosrRIWpy5PUxdh61j92H5svUbUm16f6r0jPw03njhx69VbH/7t9XUj6tg0ct8AgOIisQwAAOqmA069W9m9Y9kG1UkH4cgnf7umlbf2t/IkTZK4yRrdttHxpD1WXDz+8tfCtneP4T9eLfvWfSTZzn9dqTWOOHH71fL6z4VGlSVrUW1n7Fzv7u6ObF99Tx/N+uLBMEFx+MvZSmHHb1S5NHbdd9D1Wt8rSl8FABRL7aMEAACABFo9uEcyQUkHXZbF3cp5S2okLY9/Pa2HLOPw16u9tuMkPZa7nUu3j9qXf31X0Hv+fbjrRO0rStx27vtJ6yMt22/c/u19f5kbVa6sabnj6tuSy3FsP1GxBx0rSRmSCmo3/76zPF7eWZz67G+XdqoHAEBzkVgGAACZCBq4MpDNP0tABLWVJpjqbUO3XzTzT9ajuGVSYckx/3pK1w1bP0rcdv7jqKj17b2oJKAlCYPuQE3DjhVVnmaw9qgnFj+NyfYZl1ANOnaWZckbN7agOP310er+gefQLgCAZiGxDAAAMucOZIMSEq2i5WKQ/XzNqpe81n2acjViTlf/8e110nJFnWOWXFb11n+ezuUsab1obEnjK2s91CusXqiv1rB6t2ft5/VeAwAA8COxDAAA2oINqvNy12yeaOIhafKn6IkJf/mtXySl9ZR1Hbh1r/u29gi6g9Z/7DTt5l83SRxB22XBYmw1fzmS1IlfHuJIqp56D9suan+Nrhu9nlub6bM9GqXR+69FmjrOoj0a3aYAgGIhsQwAADKXx4Gnlske7aARyQ9LqtSSnLe6z1tSRiXtE1Z2q4e0grbxH9vqyOoribTlN3Hb1RJjGUTF7bZLmesnaZ9qNW0Deyi3fRqhyG1elDYFABQLiWUAANAQeRzEapnsLtCpqSnvOamiJBTcBEsSQXGFxar7tEct9WHb5omWJ25uXWPrpv1Cw7h1/e/b67Dt/HUf1xb6vj1cYduFLU8Tc9GE1VGYNOu6atkmK1bmpGUoQntrGa2c/rgaUddlPgcAAKgFiWUAANB2NOGQNrFclIRCFsmUqDuSLZFTS32UISlTS+xZJrh0X9o+bhmC9q/L3OX+13H827aTJPUWtjxOs8+BWsuZJ2Hl1+Van1nHGHU8PIf6AAAoEssAAKDtZJ2IyAuNKW3CHPVJ0o8smVhvUtHtt+6zu19NOrvzzhpdx9bzv5eEu20t2+edW4f6b4uzqLGG9YMixuO2jUv/ekAf3d3dz1unnjjDjqfL7YHwegIAtBcSywAAoO0EJVzKQOPSxHK9sel+yqoRyZC4+tb3s0xIhR3PjmP/9q/nLvO/5/KX017rc9B+/eLezytNUga1kT8ee53XOLVcUf2gFnmN1ZLLzaL1GtRHAABoVySWAQBAS6VNWNSbKNFty5pY1oRHb29v3YkPvQOwrLJOCiVJNLnvx/XfuPeVJUBtv+5z2HK7s9PYe3HHs/VcceV3n4tIY7aHn8Zl7+lc22k1o3785Xef3eVB/OXS140sa5bcuKJiBAAA2SGxDAAFUpTBHaDS9Nek6+p6mhSenJys63wo6x25Wd29V+akjPWhIPX0KRP3S4uo46u4xF+SNg7ah72O2refPw57nUU95VVQ/fiXafy6LE1dGtumlm3TCipj3HHD3teYy9zuSI5+AABwkVgGgAJpxkAUyEojEhF6DlhibXh4OPX+df2yJpVrlUUiuiis/cP6jfavWvusu++wPmb7rvVartv5tw3bV9Qxkh7fXU/Lrq/1EdRn/PWm6/mXFZE/DqsDo+/lOU63rMbKm6TcQdsXRZHLnmfUKwDARWIZAAAUig5qa/kTdMWAuDXyknhrVvvnJd6k5Qhaz19X+lrX0+ek9dis+m4lrZO8tLfLyuWWT5/1lx5pv+AzTZu3Sjv0tTxw+xMAAIrEMgAAaIg0yadakgKDg4MkE0qkWQmLJH2mlnK4/TjsGLpc7/ZNUoZ6WPn9x4l77Re2fth2ZUw4hcWky9273/MWu7WRlsttN31E/WIuLJ6wNs+TIpSxyPLWxwEA+UBiGQAANIQlMRqFJEIxRCUj9D17NLq/uOISJHHvh0la/kbHaXUZdxy3/uul+9BEa9QxszhOM1l5i1ZuE9QH7HVYTPa+f7ui1gGypf3ApvqhTwAAFIllAACACO08eG507GFJrEbReOJiClsnaV00K5akwsqty7Ws+qh3nm23zqLqKW91E8fKG1Ruq7u8y7LsRYgXjUc/AAC4SCwDAIC2EJXwQrB6Ewh5SjZqGeL6QJJ1iigsJl2u9Z9VG5Sx7qL46y2v8YeVK027N+s8zUq79cVmCvty0iC0AwCUH4llAADQFupJjDA4ro3VeZq6b3RdJ9l/2Dpx2+r7Gqs+Gh1HGkH1b+U0Wt6oMse9r/R9/36LLi4W9/28xW3tVab28PP3yST9FOHi6k/7Utwc3ba9PmsSOk0iGgBQPCSWAQCxAwmgrJL0+2afG+1+LjYyCVZPe+vyuDmElW1ftGSexRdG44mKSbdNUr9FVLS2NNZmRS1/EmGxaV8sa3/MmltPUf3FXR5Wt7rcvY7oNvaa9gCAciKxDAAA2orOJ9vb2yt9fX2hA2hX1EC7Eco2+E5af5aYzDp+d3/a9nHlCXrfLVdU+WzbqP03W1xZNJ4sksJWt2UTF5O/veutR9SnjH2wWZL23STnhNF/1zuHOwAg37jKAwC8D/4MxtAubKCbdLDLuVEfTVYkSVg0qp51v3p8278+hx0r6j1V9qRh2eOrVVSfsD5j60Sti+Zw2wPZs+tE0PXCrXuuJwDQHjoqF3yu+AAAADmhH83KlBSxj5p5iSmuPEH1r8umpqa8556enurS8tC47M/Vo+ZPjRJUbwDyr5ZzV7dRQddKl74ftP+w7QEAxcMdywAAADlStoF2HuPxJz9cVl5dx10vi+ki8iqLNiJBBMDotdJ+WWXc66deL7hmAEA5kFgGAABAQ+UpgVBrQqOscwgbkjxAewo69/2/WFNRieGgdW2Zrcc1BgDKicQyAAAA2kotCQ6SIqiXP/kG5JVe7/zXvKhroPbtsDuU6fcAUG7MsQwAAADE0I/MZU0uuwmgoIQSAIRx0wl67dDX9tA52+26AgAoJ+5YBgAAAGKUPTFiySESQEB7smtArdztuY4AQPsgsQwAAAC0MU0C2QNAe7Lzv5YEc1BSWeel99P16k1gAwDyhcQyAAAAAABI/QumoPV1WZrlAIDiIrEMAAAAtDkSPgBqxfUDANoXiWUAAAAAAJA5Es4AUG4dM0xyBAAAAAAAAABIgTuWAQAAAAAAAACpkFgGAAAAAAAAAKRCYhkAAAAAAAAAkAqJZQAAAAAAAABAKiSWAQAAAAAAAACpkFgGAAAAAAAAAKRCYhkAAAAAAAAAkAqJZQAAAAAAAABAKiSWAQAAAAAAAACpkFgGAAAAAAAAAKRCYhkAAAAAAAAAkAqJZQAAAAAAAABAKiSWAQAAAAAAAACpkFgGAAAAAAAAAKRCYhkAAAAAAAAAkAqJZQAAAAAAAABAKiSWAQAAAAAAAACpkFgGAAAAAAAAAKRCYhkAAAAAAAAAkAqJZQAAAAAAAABAKiSWAQAAAAAAAACpkFgGAAAAAAAAAKRCYhkAAAAAAAAAkAqJZQAAAAAAAABAKiSWAQAAAAAAAACpkFgGAAAAAAAAAKRCYhkAAAAAAAAAkAqJZQAAAAAAAABAKiSWAQAAAAAAAACpkFgGAAAAAAAAAKRCYhkAAAAAAAAAkAqJZQAAAAAAAABAKiSWAQAAAAAAAACpkFgGAAAAAAAAAKRCYhkAAAAAAAAAkAqJZQAAAAAAAABAKiSWAQAAAAAAAACpkFgGAAAAAAAAAKRCYhkAAAAAAAAAkAqJZQAAAAAAAABAKiSWAQAAAAAAAACpkFgGAAAAAAAAAKRCYhkAAAAAAAAAkAqJZQAAAAAAAABAKiSWAQAAAAAAAACpkFgGAAAAAAAAAKRCYhkAAAAAAAAAkAqJZQAAAAAAAABAKiSWAQAAAAAAAACpkFgGAAAAAAAAAKRCYhkAAAAAAAAAkAqJZQAAAAAAAABAKiSWAQAAAAAAAACpkFgGAAAAAAAAAKRCYhkAAAAAAAAAkAqJZQAAAAAAAABAKiSWAQAAAAAAAACpkFgGAAAAAAAAAKRCYhkAAAAAAAAAkAqJZQAAAAAAAABAKiSWAQAAAAAAAACpkFgGAAAAAAAAAKRCYhkAAAAAAAAAkAqJZQAAAAAAAABAKiSWAQAAAAAAAACpkFgGAAAAAAAAAKRCYhkAAAAAAAAAkAqJZQAAAAAAAABAKiSWAQAAAAAAAACpkFgGAAAAAAAAAKRCYhkAAAAAAAAAkAqJZQAAAAAAAABAKiSWAQAAAAAAAACpkFgGAAAAAAAAAKRCYhkAAAAAAAAAkILI/wcGBJNOcc2cRAAAAABJRU5ErkJggg==;" vertex="1" parent="1">
          <mxGeometry x="-190" y="50" width="1430" height="731" as="geometry" />
        </mxCell>
        <mxCell id="Wv0K25ZhWj1n_kQ2JJXl-4" value="" style="shape=ext;double=1;rounded=0;whiteSpace=wrap;html=1;sketch=1;hachureGap=4;jiggle=2;curveFitting=1;fontFamily=Architects Daughter;fontSource=https%3A%2F%2Ffonts.googleapis.com%2Fcss%3Ffamily%3DArchitects%2BDaughter;fontSize=20;fillColor=default;strokeColor=none;" vertex="1" parent="1">
          <mxGeometry x="270" y="80" width="190" height="80" as="geometry" />
        </mxCell>
        <mxCell id="Wv0K25ZhWj1n_kQ2JJXl-2" value="Now" style="text;html=1;strokeColor=none;fillColor=none;align=center;verticalAlign=middle;whiteSpace=wrap;rounded=0;fontSize=20;fontFamily=Verdana;fontColor=#565656;" vertex="1" parent="1">
          <mxGeometry x="600" y="610" width="240" height="30" as="geometry" />
        </mxCell>
        <mxCell id="Wv0K25ZhWj1n_kQ2JJXl-5" value="Project X:" style="text;html=1;strokeColor=none;fillColor=none;align=center;verticalAlign=middle;whiteSpace=wrap;rounded=0;fontSize=20;fontFamily=Verdana;fontColor=#565656;" vertex="1" parent="1">
          <mxGeometry x="285" y="111" width="240" height="30" as="geometry" />
        </mxCell>
        <mxCell id="Wv0K25ZhWj1n_kQ2JJXl-6" value="Time" style="text;html=1;strokeColor=none;fillColor=none;align=center;verticalAlign=middle;whiteSpace=wrap;rounded=0;fontSize=20;fontFamily=Verdana;fontColor=#565656;" vertex="1" parent="1">
          <mxGeometry x="930" y="610" width="240" height="30" as="geometry" />
        </mxCell>
        <mxCell id="Wv0K25ZhWj1n_kQ2JJXl-7" value="Now" style="text;html=1;strokeColor=none;fillColor=none;align=center;verticalAlign=middle;whiteSpace=wrap;rounded=0;fontSize=20;fontFamily=Verdana;fontColor=#565656;" vertex="1" parent="1">
          <mxGeometry x="110" y="610" width="240" height="30" as="geometry" />
        </mxCell>
      </root>
    </mxGraphModel>
  </diagram>
</mxfile>
